{"glyphs":{"0":{"ha":772,"x_min":43,"x_max":713,"o":"m 376 971 q 648 816 564 971 q 713 487 713 696 q 654 159 713 289 q 375 -26 569 -26 q 115 125 200 -26 q 43 466 43 252 q 86 750 43 631 q 376 971 166 971 m 374 85 q 526 169 469 85 q 582 482 582 253 q 541 754 582 648 q 383 861 500 861 q 225 760 275 861 q 176 461 176 659 q 208 222 176 313 q 374 85 256 85 z "},"1":{"ha":772,"x_min":133,"x_max":492,"o":"m 133 688 l 133 781 q 317 824 265 794 q 395 967 370 854 l 492 967 l 492 0 l 361 0 l 361 688 l 133 688 z "},"2":{"ha":772,"x_min":43,"x_max":715,"o":"m 43 0 q 95 218 50 125 q 271 387 140 311 l 401 463 q 524 549 489 513 q 580 678 580 606 q 529 813 580 763 q 393 863 478 863 q 220 768 268 863 q 191 627 194 717 l 67 627 q 114 833 69 753 q 394 975 193 975 q 638 884 561 975 q 715 684 715 794 q 633 484 715 567 q 463 368 585 436 l 370 316 q 265 246 303 279 q 180 115 197 187 l 710 115 l 710 0 l 43 0 z "},"3":{"ha":772,"x_min":33,"x_max":712,"o":"m 361 -26 q 111 68 189 -26 q 33 298 33 163 l 161 298 q 196 161 169 204 q 368 85 243 85 q 522 136 464 85 q 581 269 581 188 q 519 410 581 370 q 349 450 458 450 q 324 449 336 450 q 298 448 311 449 l 298 556 q 330 553 317 554 q 358 553 343 553 q 471 574 427 553 q 548 710 548 612 q 496 822 548 783 q 376 861 445 861 q 208 780 254 861 q 178 652 182 735 l 58 652 q 101 837 58 761 q 363 972 176 972 q 593 906 512 972 q 675 715 675 840 q 627 570 675 625 q 549 515 597 535 q 669 434 626 494 q 712 288 712 374 q 621 61 712 149 q 361 -26 529 -26 z "},"4":{"ha":772,"x_min":35,"x_max":726,"o":"m 459 344 l 459 784 l 148 344 l 459 344 m 461 0 l 461 237 l 35 237 l 35 357 l 480 974 l 583 974 l 583 344 l 726 344 l 726 237 l 583 237 l 583 0 l 461 0 z "},"5":{"ha":772,"x_min":45,"x_max":713,"o":"m 172 248 q 269 103 184 143 q 369 83 312 83 q 530 152 477 83 q 582 305 582 221 q 520 463 582 407 q 371 518 458 518 q 263 494 308 518 q 186 426 218 469 l 80 432 l 154 955 l 659 955 l 659 837 l 245 837 l 204 567 q 269 606 238 593 q 394 628 323 628 q 621 542 528 628 q 713 323 713 456 q 628 81 713 186 q 357 -24 543 -24 q 147 42 238 -24 q 45 248 56 109 l 172 248 z "},"6":{"ha":772,"x_min":52,"x_max":718,"o":"m 406 975 q 633 891 569 975 q 697 717 697 806 l 576 717 q 542 807 566 774 q 408 868 498 868 q 245 773 306 868 q 178 503 185 679 q 284 595 220 564 q 414 622 342 622 q 627 544 536 622 q 718 311 718 466 q 632 77 718 179 q 387 -25 546 -25 q 151 78 250 -25 q 52 427 52 182 q 96 734 52 608 q 406 975 181 975 m 397 83 q 542 148 494 83 q 589 301 589 213 q 547 443 589 376 q 391 511 504 511 q 253 458 313 511 q 194 301 194 406 q 248 146 194 209 q 397 83 302 83 z "},"7":{"ha":772,"x_min":51,"x_max":726,"o":"m 726 955 l 726 848 q 602 690 680 803 q 465 448 524 578 q 375 216 406 321 q 324 0 355 149 l 189 0 q 393 553 235 278 q 588 832 486 715 l 51 832 l 51 955 l 726 955 z "},"8":{"ha":772,"x_min":45,"x_max":712,"o":"m 378 564 q 504 609 458 564 q 549 717 549 654 q 506 817 549 771 q 374 862 463 862 q 246 817 286 862 q 207 710 207 771 q 258 603 207 642 q 378 564 309 564 m 385 83 q 526 129 470 83 q 582 266 582 175 q 524 409 582 360 q 376 458 467 458 q 234 408 289 458 q 178 270 178 358 q 229 139 178 194 q 385 83 279 83 m 212 517 q 132 568 161 539 q 79 709 79 623 q 157 896 79 818 q 380 974 236 974 q 600 900 520 974 q 679 728 679 827 q 633 581 679 637 q 553 519 607 549 q 648 455 613 491 q 712 279 712 387 q 626 61 712 151 q 382 -28 540 -28 q 143 49 241 -28 q 45 273 45 126 q 87 421 45 359 q 212 517 129 484 z "},"9":{"ha":772,"x_min":50,"x_max":706,"o":"m 184 235 q 262 95 190 134 q 347 75 300 75 q 496 148 434 75 q 583 444 557 220 q 483 353 543 379 q 353 327 422 327 q 131 414 213 327 q 50 640 50 502 q 130 872 50 772 q 368 972 211 972 q 661 781 581 972 q 706 518 706 676 q 652 202 706 340 q 351 -27 564 -27 q 135 47 209 -27 q 61 235 61 122 l 184 235 m 370 434 q 502 482 442 434 q 562 649 562 530 q 508 809 562 756 q 371 861 454 861 q 229 801 281 861 q 176 641 176 741 q 222 490 176 546 q 370 434 269 434 z "},"\u0000":{"ha":0,"x_min":0,"x_max":0,"o":""},"\t":{"ha":386,"x_min":0,"x_max":0,"o":""}," ":{"ha":386,"x_min":0,"x_max":0,"o":""},"!":{"ha":386,"x_min":161,"x_max":298,"o":"m 161 996 l 298 996 l 298 669 l 265 237 l 196 237 l 161 669 l 161 996 m 161 141 l 296 141 l 296 0 l 161 0 l 161 141 z "},"\"":{"ha":493,"x_min":56,"x_max":411,"o":"m 411 996 l 391 597 l 309 597 l 288 996 l 411 996 m 178 996 l 159 597 l 77 597 l 56 996 l 178 996 z "},"#":{"ha":772,"x_min":0,"x_max":771,"o":"m 20 380 l 178 380 l 242 614 l 85 614 l 106 692 l 263 692 l 344 996 l 445 996 l 363 692 l 513 692 l 596 996 l 696 996 l 614 692 l 771 692 l 750 614 l 593 614 l 528 380 l 686 380 l 665 302 l 509 302 l 426 0 l 326 0 l 408 302 l 257 302 l 176 0 l 75 0 l 157 302 l 0 302 l 20 380 m 427 380 l 492 614 l 342 614 l 279 380 l 427 380 z "},"$":{"ha":772,"x_min":43,"x_max":720,"o":"m 414 71 q 574 155 530 76 q 597 250 597 196 q 535 378 597 334 q 414 427 499 404 l 414 71 m 184 725 q 229 620 184 658 q 349 567 273 582 l 349 886 q 222 831 260 882 q 184 725 184 781 m 62 717 q 138 903 62 820 q 350 987 214 985 l 350 1077 l 414 1077 l 414 988 q 622 908 549 979 q 697 723 694 838 l 578 723 q 551 812 574 774 q 414 884 508 880 l 414 554 q 628 471 572 510 q 720 283 720 408 q 602 26 720 102 q 414 -29 537 -16 l 414 -161 l 350 -161 l 350 -29 q 82 111 153 -16 q 43 296 43 179 l 163 296 q 193 160 169 203 q 349 74 235 83 l 349 444 q 132 536 202 471 q 62 717 62 602 z "},"%":{"ha":1235,"x_min":45,"x_max":1183,"o":"m 947 472 q 1114 403 1044 472 q 1183 236 1183 334 q 1114 69 1183 138 q 947 0 1044 0 q 779 69 848 0 q 710 236 710 138 q 779 403 710 334 q 947 472 848 472 m 848 967 l 924 967 l 380 -26 l 305 -26 l 848 967 m 281 566 q 380 607 339 566 q 421 705 421 648 q 380 804 421 763 q 281 845 339 845 q 182 804 223 845 q 141 705 141 764 q 182 607 141 648 q 281 566 223 566 m 281 942 q 448 872 379 942 q 517 705 517 803 q 448 538 517 608 q 281 469 379 469 q 114 538 183 469 q 45 705 45 608 q 114 872 45 803 q 281 942 183 942 m 947 96 q 1045 137 1004 96 q 1086 236 1086 178 q 1045 335 1086 294 q 947 376 1004 376 q 847 335 888 376 q 806 236 806 294 q 847 137 806 178 q 947 96 888 96 z "},"&":{"ha":926,"x_min":60,"x_max":895,"o":"m 397 609 q 486 683 461 654 q 526 785 526 729 q 496 861 526 829 q 418 893 467 893 q 313 843 342 893 q 298 787 298 817 q 321 707 298 745 q 397 609 344 669 m 366 84 q 495 119 441 84 q 578 196 549 153 l 353 471 q 229 373 258 407 q 184 249 184 322 q 242 127 184 170 q 366 84 300 84 m 286 554 q 201 676 222 627 q 180 772 180 726 q 245 931 180 868 q 419 995 310 995 q 581 936 523 995 q 640 795 640 877 q 579 627 640 699 q 461 530 544 585 l 643 313 q 668 394 661 368 q 683 469 675 421 l 799 469 q 753 286 787 374 q 718 215 718 198 l 895 0 l 738 0 l 644 114 q 543 26 589 54 q 357 -23 462 -23 q 131 61 201 -23 q 60 250 60 144 q 129 439 60 363 q 286 554 171 485 z "},"'":{"ha":265,"x_min":106,"x_max":229,"o":"m 229 996 l 207 597 l 128 597 l 106 996 l 229 996 z "},"(":{"ha":463,"x_min":96,"x_max":413,"o":"m 411 1013 q 273 708 304 806 q 224 365 224 559 q 279 5 224 168 q 413 -283 313 -95 l 331 -283 q 208 -86 232 -129 q 157 30 184 -43 q 104 244 119 130 q 96 357 96 303 q 159 714 96 557 q 326 1013 199 814 l 411 1013 z "},")":{"ha":463,"x_min":46,"x_max":363,"o":"m 48 -283 q 187 23 156 -73 q 235 365 235 169 q 180 724 235 561 q 46 1013 146 824 l 128 1013 q 255 807 233 846 q 302 699 277 768 q 349 532 335 614 q 363 372 363 449 q 299 14 363 172 q 133 -283 259 -87 l 48 -283 z "},"*":{"ha":541,"x_min":53,"x_max":480,"o":"m 305 996 l 305 845 l 453 897 l 480 821 l 332 773 l 424 646 l 357 597 l 268 730 l 178 597 l 109 646 l 202 773 l 53 821 l 80 897 l 227 844 l 227 996 l 305 996 z "},"+":{"ha":811,"x_min":62,"x_max":770,"o":"m 62 297 l 62 411 l 358 411 l 358 709 l 474 709 l 474 411 l 770 411 l 770 297 l 474 297 l 474 0 l 358 0 l 358 297 l 62 297 z "},",":{"ha":386,"x_min":115,"x_max":260,"o":"m 115 -142 q 181 -76 162 -134 q 191 -17 191 -45 q 191 -8 191 -12 q 189 0 191 -5 l 115 0 l 115 148 l 260 148 l 260 11 q 228 -131 260 -70 q 115 -206 195 -192 l 115 -142 z "},"-":{"ha":463,"x_min":58,"x_max":398,"o":"m 58 450 l 398 450 l 398 324 l 58 324 l 58 450 z "},".":{"ha":386,"x_min":119,"x_max":260,"o":"m 119 148 l 260 148 l 260 0 l 119 0 l 119 148 z "},"/":{"ha":386,"x_min":0,"x_max":419,"o":"m 316 996 l 419 996 l 103 0 l 0 0 l 316 996 z "},":":{"ha":386,"x_min":154,"x_max":296,"o":"m 154 717 l 296 717 l 296 569 l 154 569 l 154 717 m 154 148 l 296 148 l 296 0 l 154 0 l 154 148 z "},";":{"ha":386,"x_min":154,"x_max":298,"o":"m 154 -142 q 220 -79 201 -133 q 229 -16 229 -50 q 229 -11 229 -13 q 228 0 229 -8 l 154 0 l 154 148 l 298 148 l 298 11 q 277 -111 298 -62 q 154 -206 242 -191 l 154 -142 m 154 717 l 298 717 l 298 569 l 154 569 l 154 717 z "},"<":{"ha":811,"x_min":19,"x_max":812,"o":"m 19 411 l 812 722 l 812 600 l 163 355 l 812 109 l 812 -13 l 19 298 l 19 411 z "},"=":{"ha":811,"x_min":62,"x_max":770,"o":"m 770 557 l 770 444 l 62 444 l 62 557 l 770 557 m 770 267 l 770 151 l 62 151 l 62 267 l 770 267 z "},">":{"ha":811,"x_min":19,"x_max":812,"o":"m 812 297 l 19 -13 l 19 109 l 667 355 l 19 600 l 19 722 l 812 411 l 812 297 z "},"?":{"ha":772,"x_min":106,"x_max":710,"o":"m 334 141 l 469 141 l 469 0 l 334 0 l 334 141 m 106 684 q 189 920 106 831 q 416 1009 271 1009 q 630 933 549 1009 q 710 738 710 857 q 681 621 710 666 q 562 490 651 576 q 477 383 496 427 q 458 254 458 339 l 337 254 q 360 410 337 351 q 461 546 383 469 l 515 600 q 555 648 540 623 q 582 739 582 692 q 542 854 582 806 q 411 903 503 903 q 254 819 298 903 q 227 684 230 772 l 106 684 z "},"@":{"ha":1410,"x_min":153,"x_max":1255,"o":"m 847 606 q 819 681 847 648 q 741 715 791 715 q 607 624 664 715 q 551 442 551 532 q 580 341 551 376 q 653 306 609 306 q 796 413 745 306 q 847 606 847 519 m 712 -29 q 275 148 429 -29 q 153 475 153 290 q 302 851 153 696 q 746 1023 467 1023 q 1126 901 987 1023 q 1255 602 1255 786 q 1163 338 1255 448 q 956 229 1070 229 q 857 261 888 229 q 825 338 825 293 q 826 354 825 346 q 829 371 827 362 q 739 261 793 293 q 625 229 684 229 q 490 289 542 229 q 438 444 438 349 q 527 682 438 579 q 717 785 615 785 q 831 745 786 785 q 879 649 876 705 l 913 763 l 1013 763 l 922 466 q 907 410 912 431 q 903 373 903 389 q 921 329 903 342 q 964 315 940 315 q 1102 395 1041 315 q 1164 606 1164 476 q 1054 853 1164 764 q 758 943 944 943 q 364 793 500 943 q 248 471 248 665 q 359 186 248 301 q 730 50 489 50 q 939 85 842 50 q 1117 181 1036 121 l 1162 120 q 979 18 1101 66 q 712 -29 858 -29 z "},"A":{"ha":926,"x_min":20,"x_max":909,"o":"m 617 408 l 466 848 l 305 408 l 617 408 m 395 996 l 548 996 l 909 0 l 762 0 l 661 298 l 267 298 l 159 0 l 20 0 l 395 996 m 465 996 z "},"B":{"ha":926,"x_min":102,"x_max":871,"o":"m 480 575 q 613 599 566 575 q 688 733 688 636 q 608 865 688 831 q 475 884 564 884 l 235 884 l 235 575 l 480 575 m 526 115 q 703 187 650 115 q 736 297 736 233 q 639 445 736 406 q 503 466 587 466 l 235 466 l 235 115 l 526 115 m 102 996 l 530 996 q 779 892 705 996 q 823 749 823 830 q 769 595 823 655 q 689 536 741 563 q 804 471 766 507 q 871 291 871 406 q 810 117 871 195 q 524 0 720 0 l 102 0 l 102 996 z "},"C":{"ha":1003,"x_min":61,"x_max":945,"o":"m 526 1023 q 819 924 715 1023 q 935 697 924 824 l 804 697 q 714 850 781 793 q 527 906 648 906 q 289 803 380 906 q 199 486 199 699 q 280 202 199 311 q 524 93 362 93 q 751 208 673 93 q 813 366 793 268 l 945 366 q 828 102 927 209 q 508 -26 709 -26 q 216 79 334 -26 q 61 509 61 218 q 178 870 61 729 q 526 1023 304 1023 m 498 1023 z "},"D":{"ha":1003,"x_min":112,"x_max":935,"o":"m 488 115 q 601 130 557 115 q 730 231 680 156 q 787 386 770 292 q 798 490 798 442 q 724 778 798 675 q 487 880 650 880 l 248 880 l 248 115 l 488 115 m 112 996 l 515 996 q 834 850 721 996 q 935 513 935 719 q 876 227 935 355 q 514 0 770 0 l 112 0 l 112 996 z "},"E":{"ha":926,"x_min":119,"x_max":855,"o":"m 119 996 l 845 996 l 845 874 l 250 874 l 250 572 l 800 572 l 800 456 l 250 456 l 250 119 l 855 119 l 855 0 l 119 0 l 119 996 m 487 996 z "},"F":{"ha":848,"x_min":119,"x_max":810,"o":"m 119 996 l 810 996 l 810 874 l 254 874 l 254 572 l 743 572 l 743 453 l 254 453 l 254 0 l 119 0 l 119 996 z "},"G":{"ha":1080,"x_min":67,"x_max":977,"o":"m 536 1022 q 779 968 677 1022 q 961 694 928 890 l 827 694 q 726 853 803 804 q 533 903 650 903 q 300 800 395 903 q 205 490 205 696 q 283 201 205 313 q 538 90 361 90 q 761 168 673 90 q 852 421 850 246 l 540 421 l 540 533 l 977 533 l 977 0 l 890 0 l 858 128 q 736 24 789 53 q 511 -26 648 -26 q 206 88 334 -26 q 67 483 67 232 q 203 881 67 733 q 536 1022 332 1022 m 514 1023 z "},"H":{"ha":1003,"x_min":109,"x_max":900,"o":"m 109 996 l 245 996 l 245 585 l 764 585 l 764 996 l 900 996 l 900 0 l 764 0 l 764 466 l 245 466 l 245 0 l 109 0 l 109 996 z "},"I":{"ha":386,"x_min":136,"x_max":273,"o":"m 136 996 l 273 996 l 273 0 l 136 0 l 136 996 z "},"J":{"ha":694,"x_min":24,"x_max":595,"o":"m 595 297 q 557 101 595 171 q 294 -26 488 -26 q 103 34 182 -26 q 24 250 24 95 l 24 321 l 151 321 l 151 250 q 187 128 151 169 q 300 87 223 87 q 441 161 408 87 q 461 332 461 206 l 461 996 l 595 996 l 595 297 z "},"K":{"ha":926,"x_min":106,"x_max":921,"o":"m 106 996 l 237 996 l 237 511 l 723 996 l 909 996 l 495 595 l 921 0 l 745 0 l 397 500 l 237 347 l 237 0 l 106 0 l 106 996 z "},"L":{"ha":772,"x_min":106,"x_max":745,"o":"m 106 996 l 241 996 l 241 119 l 745 119 l 745 0 l 106 0 l 106 996 z "},"M":{"ha":1157,"x_min":102,"x_max":1057,"o":"m 102 996 l 296 996 l 582 154 l 866 996 l 1057 996 l 1057 0 l 929 0 l 929 588 q 930 689 929 618 q 932 840 932 760 l 648 0 l 514 0 l 228 840 l 228 810 q 230 698 228 773 q 231 588 231 623 l 231 0 l 102 0 l 102 996 z "},"N":{"ha":1003,"x_min":106,"x_max":897,"o":"m 106 996 l 265 996 l 768 189 l 768 996 l 897 996 l 897 0 l 745 0 l 235 806 l 235 0 l 106 0 l 106 996 m 492 996 z "},"O":{"ha":1080,"x_min":54,"x_max":1025,"o":"m 536 1023 q 926 854 800 1023 q 1025 515 1025 722 q 912 144 1025 292 q 533 -29 779 -29 q 172 123 303 -29 q 54 493 54 269 q 155 839 54 695 q 536 1023 283 1023 m 549 92 q 807 219 728 92 q 887 513 887 347 q 795 796 887 689 q 544 903 703 903 q 292 797 389 903 q 194 484 194 691 q 278 205 194 319 q 549 92 361 92 m 540 1023 z "},"P":{"ha":926,"x_min":119,"x_max":863,"o":"m 119 996 l 567 996 q 781 921 700 996 q 863 711 863 846 q 790 508 863 594 q 567 421 718 421 l 254 421 l 254 0 l 119 0 l 119 996 m 726 710 q 645 859 726 820 q 522 880 600 880 l 254 880 l 254 535 l 522 535 q 670 574 613 535 q 726 710 726 612 z "},"Q":{"ha":1080,"x_min":54,"x_max":1025,"o":"m 1017 3 l 949 -79 l 795 38 q 675 -11 740 7 q 534 -29 610 -29 q 170 123 302 -29 q 54 493 54 271 q 155 839 54 695 q 536 1023 283 1023 q 926 854 800 1023 q 1025 515 1025 722 q 1002 330 1025 419 q 880 109 966 195 l 1017 3 m 550 92 q 629 97 592 92 q 692 120 665 103 l 583 205 l 651 289 l 781 188 q 865 346 843 258 q 887 513 887 433 q 795 796 887 689 q 544 903 703 903 q 288 801 382 903 q 194 484 194 698 q 284 198 194 304 q 550 92 375 92 z "},"R":{"ha":1003,"x_min":122,"x_max":949,"o":"m 569 540 q 719 578 664 540 q 774 715 774 616 q 697 860 774 821 q 587 880 656 880 l 257 880 l 257 540 l 569 540 m 122 996 l 583 996 q 771 963 697 996 q 911 728 911 899 q 874 581 911 638 q 771 490 838 524 q 859 427 829 466 q 892 302 888 389 l 897 168 q 906 83 899 111 q 949 22 918 36 l 949 0 l 784 0 q 773 33 777 13 q 766 112 769 54 l 758 278 q 686 409 753 376 q 564 427 647 427 l 257 427 l 257 0 l 122 0 l 122 996 z "},"S":{"ha":926,"x_min":65,"x_max":861,"o":"m 194 321 q 234 184 199 237 q 471 85 301 85 q 609 106 547 85 q 730 257 730 149 q 679 373 730 338 q 517 432 627 407 l 382 463 q 195 528 250 492 q 100 715 100 591 q 193 935 100 849 q 456 1021 286 1021 q 723 946 613 1021 q 832 704 832 870 l 705 704 q 662 827 695 784 q 452 905 600 905 q 281 854 333 905 q 229 738 229 804 q 290 631 229 665 q 471 576 330 609 l 610 545 q 766 481 711 522 q 861 279 861 412 q 741 42 861 113 q 461 -29 621 -29 q 170 66 275 -29 q 67 321 65 160 l 194 321 m 467 1023 z "},"T":{"ha":848,"x_min":22,"x_max":831,"o":"m 831 996 l 831 878 l 495 878 l 495 0 l 358 0 l 358 878 l 22 878 l 22 996 l 831 996 z "},"U":{"ha":1003,"x_min":115,"x_max":900,"o":"m 252 996 l 252 380 q 293 200 252 272 q 496 92 353 92 q 730 209 668 92 q 763 380 763 273 l 763 996 l 900 996 l 900 437 q 850 154 900 253 q 507 -26 760 -26 q 165 154 255 -26 q 115 437 115 253 l 115 996 l 252 996 m 508 996 z "},"V":{"ha":926,"x_min":35,"x_max":905,"o":"m 184 996 l 471 148 l 753 996 l 905 996 l 541 0 l 398 0 l 35 996 l 184 996 z "},"W":{"ha":1311,"x_min":25,"x_max":1292,"o":"m 172 996 l 359 186 l 585 996 l 731 996 l 956 186 l 1144 996 l 1292 996 l 1030 0 l 888 0 l 659 826 l 427 0 l 286 0 l 25 996 l 172 996 z "},"X":{"ha":926,"x_min":28,"x_max":903,"o":"m 191 0 l 28 0 l 385 511 l 51 996 l 220 996 l 474 615 l 726 996 l 887 996 l 553 511 l 903 0 l 736 0 l 467 410 l 191 0 z "},"Y":{"ha":926,"x_min":28,"x_max":916,"o":"m 28 996 l 186 996 l 472 517 l 758 996 l 916 996 l 540 401 l 540 0 l 405 0 l 405 401 l 28 996 m 474 996 z "},"Z":{"ha":848,"x_min":32,"x_max":817,"o":"m 32 112 l 643 878 l 77 878 l 77 996 l 817 996 l 817 880 l 202 119 l 817 119 l 817 0 l 32 0 l 32 112 m 447 996 z "},"[":{"ha":386,"x_min":87,"x_max":347,"o":"m 87 1003 l 347 1003 l 347 903 l 202 903 l 202 -174 l 347 -174 l 347 -273 l 87 -273 l 87 1003 z "},"\\":{"ha":386,"x_min":-47,"x_max":446,"o":"m 59 996 l 446 0 l 340 0 l -47 996 l 59 996 z "},"]":{"ha":386,"x_min":32,"x_max":292,"o":"m 32 -174 l 176 -174 l 176 903 l 32 903 l 32 1003 l 292 1003 l 292 -273 l 32 -273 l 32 -174 z "},"^":{"ha":652,"x_min":81,"x_max":663,"o":"m 424 996 l 663 411 l 553 411 l 372 860 l 193 411 l 81 411 l 319 996 l 424 996 z "},"_":{"ha":772,"x_min":0,"x_max":772,"o":"m 0 -174 l 0 -105 l 772 -105 l 772 -174 l 0 -174 z "},"`":{"ha":463,"x_min":26,"x_max":300,"o":"m 300 823 l 208 823 l 26 1019 l 177 1019 l 300 823 z "},"a":{"ha":772,"x_min":56,"x_max":743,"o":"m 183 193 q 222 110 183 140 q 313 79 260 79 q 438 109 378 79 q 540 271 540 159 l 540 370 q 482 346 517 355 q 413 332 447 336 l 339 323 q 239 295 273 314 q 183 193 183 263 m 479 440 q 535 475 521 446 q 543 522 543 492 q 499 613 543 585 q 372 641 454 641 q 236 589 276 641 q 207 505 214 561 l 93 505 q 180 691 96 639 q 374 744 264 744 q 583 695 503 744 q 662 543 662 646 l 662 125 q 670 94 662 106 q 703 83 677 83 q 721 84 711 83 q 743 87 731 85 l 743 -3 q 699 -14 714 -12 q 659 -16 684 -16 q 567 29 595 -16 q 546 96 552 53 q 439 12 509 47 q 285 -24 369 -24 q 120 37 184 -24 q 56 191 56 98 q 119 347 56 292 q 284 416 182 403 l 479 440 m 378 744 z "},"b":{"ha":772,"x_min":80,"x_max":720,"o":"m 80 1000 l 199 1000 l 199 638 q 294 718 239 690 q 415 745 350 745 q 635 652 551 745 q 720 377 720 559 q 636 91 720 205 q 405 -23 553 -23 q 265 17 322 -23 q 193 93 231 41 l 193 0 l 80 0 l 80 1000 m 397 85 q 546 163 496 85 q 595 371 595 242 q 546 561 595 486 q 401 636 496 636 q 255 574 317 636 q 192 371 192 513 q 218 205 192 269 q 397 85 266 85 z "},"c":{"ha":694,"x_min":40,"x_max":662,"o":"m 370 747 q 569 688 492 747 q 662 482 646 628 l 543 482 q 494 594 532 549 q 370 638 455 638 q 203 524 253 638 q 170 342 170 450 q 216 158 170 233 q 361 83 262 83 q 482 130 437 83 q 543 257 526 176 l 662 257 q 560 46 642 113 q 352 -21 479 -21 q 125 83 210 -21 q 40 343 40 187 q 133 641 40 534 q 370 747 226 747 m 351 744 z "},"d":{"ha":772,"x_min":38,"x_max":682,"o":"m 167 355 q 216 159 167 238 q 375 81 266 81 q 514 154 460 81 q 569 363 569 227 q 513 567 569 500 q 374 633 456 633 q 224 562 281 633 q 167 355 167 492 m 351 739 q 490 704 434 739 q 564 633 523 684 l 564 1000 l 682 1000 l 682 0 l 572 0 l 572 101 q 471 4 529 34 q 337 -26 412 -26 q 127 76 216 -26 q 38 348 38 178 q 119 623 38 507 q 351 739 200 739 z "},"e":{"ha":772,"x_min":49,"x_max":712,"o":"m 392 743 q 542 706 469 743 q 652 612 614 670 q 701 484 689 557 q 712 324 712 434 l 180 324 q 232 147 183 214 q 383 80 281 80 q 536 143 479 80 q 582 228 568 180 l 702 228 q 670 139 697 188 q 610 58 644 90 q 473 -15 555 4 q 373 -26 429 -26 q 143 73 237 -26 q 49 349 49 172 q 144 633 49 524 q 392 743 239 743 m 587 421 q 552 548 579 500 q 385 636 502 636 q 243 575 300 636 q 183 421 186 515 l 587 421 m 380 744 z "},"f":{"ha":386,"x_min":19,"x_max":363,"o":"m 120 837 q 146 948 123 913 q 311 1010 189 1010 q 335 1010 323 1010 q 363 1008 347 1009 l 363 897 q 335 898 344 898 q 319 899 327 899 q 253 870 264 899 q 242 723 242 841 l 363 723 l 363 627 l 241 627 l 241 0 l 120 0 l 120 627 l 19 627 l 19 723 l 120 723 l 120 837 z "},"g":{"ha":772,"x_min":41,"x_max":678,"o":"m 346 739 q 495 697 431 739 q 566 628 530 673 l 566 720 l 678 720 l 678 59 q 637 -159 678 -79 q 351 -307 562 -307 q 153 -255 233 -307 q 64 -90 73 -202 l 188 -90 q 223 -165 197 -139 q 353 -206 264 -206 q 537 -107 494 -206 q 561 101 563 -49 q 473 18 524 45 q 336 -9 421 -9 q 130 75 218 -9 q 41 352 41 159 q 131 637 41 534 q 346 739 220 739 m 566 366 q 510 566 566 501 q 368 631 454 631 q 192 511 239 631 q 167 342 167 446 q 217 155 167 219 q 351 91 267 91 q 536 210 482 91 q 566 366 566 277 m 360 744 z "},"h":{"ha":772,"x_min":90,"x_max":682,"o":"m 90 1000 l 212 1000 l 212 628 q 290 705 255 683 q 437 744 349 744 q 651 633 595 744 q 682 466 682 573 l 682 0 l 556 0 l 556 458 q 536 575 556 538 q 411 635 503 635 q 273 583 335 635 q 212 385 212 530 l 212 0 l 90 0 l 90 1000 z "},"i":{"ha":309,"x_min":90,"x_max":214,"o":"m 90 723 l 214 723 l 214 0 l 90 0 l 90 723 m 90 996 l 214 996 l 214 858 l 90 858 l 90 996 z "},"j":{"ha":309,"x_min":-26,"x_max":212,"o":"m 212 855 l 90 855 l 90 996 l 212 996 l 212 855 m -26 -184 q 73 -169 56 -181 q 90 -95 90 -157 l 90 723 l 212 723 l 212 -108 q 186 -227 212 -187 q 24 -293 143 -293 q 5 -292 15 -293 q -26 -290 -5 -292 l -26 -184 z "},"k":{"ha":694,"x_min":87,"x_max":689,"o":"m 87 996 l 204 996 l 204 418 l 517 726 l 673 726 l 395 454 l 689 0 l 533 0 l 307 366 l 204 273 l 204 0 l 87 0 l 87 996 z "},"l":{"ha":309,"x_min":93,"x_max":215,"o":"m 93 996 l 215 996 l 215 0 l 93 0 l 93 996 z "},"m":{"ha":1157,"x_min":90,"x_max":1067,"o":"m 90 726 l 210 726 l 210 623 q 289 701 254 677 q 426 743 349 743 q 566 700 513 743 q 620 628 595 675 q 715 714 661 686 q 839 743 770 743 q 1038 637 985 743 q 1067 484 1067 580 l 1067 0 l 940 0 l 940 505 q 904 604 940 577 q 815 631 867 631 q 691 583 743 631 q 640 422 640 535 l 640 0 l 515 0 l 515 474 q 498 582 515 548 q 394 633 470 633 q 268 579 325 633 q 212 385 212 526 l 212 0 l 90 0 l 90 726 z "},"n":{"ha":772,"x_min":90,"x_max":682,"o":"m 90 726 l 205 726 l 205 623 q 315 715 257 687 q 443 743 372 743 q 652 635 597 743 q 682 466 682 576 l 682 0 l 557 0 l 557 458 q 538 565 557 524 q 420 633 505 633 q 349 624 376 633 q 260 564 298 609 q 221 490 230 528 q 212 380 212 452 l 212 0 l 90 0 l 90 726 m 376 744 z "},"o":{"ha":772,"x_min":40,"x_max":717,"o":"m 378 79 q 544 171 499 79 q 589 375 589 262 q 557 541 589 477 q 379 641 505 641 q 216 555 267 641 q 165 349 165 470 q 216 156 165 233 q 378 79 267 79 m 382 747 q 620 654 523 747 q 717 378 717 560 q 631 88 717 203 q 366 -26 546 -26 q 128 75 216 -26 q 40 347 40 176 q 133 639 40 530 q 382 747 226 747 m 378 744 z "},"p":{"ha":772,"x_min":80,"x_max":720,"o":"m 396 82 q 538 154 481 82 q 595 368 595 225 q 570 517 595 454 q 396 637 522 637 q 222 510 269 637 q 197 338 197 442 q 222 195 197 254 q 396 82 270 82 m 80 723 l 199 723 l 199 627 q 279 703 235 676 q 424 744 340 744 q 633 649 547 744 q 720 379 720 555 q 595 40 720 142 q 412 -24 517 -24 q 275 12 330 -24 q 202 81 242 32 l 202 -290 l 80 -290 l 80 723 z "},"q":{"ha":772,"x_min":41,"x_max":682,"o":"m 168 353 q 195 195 168 259 q 362 82 241 82 q 538 201 490 82 q 564 370 564 267 q 535 527 564 464 q 361 635 486 635 q 225 566 281 635 q 168 353 168 497 m 349 743 q 500 697 439 743 q 566 625 534 673 l 566 726 l 682 726 l 682 -290 l 559 -290 l 559 83 q 474 6 528 35 q 340 -23 420 -23 q 132 68 224 -23 q 41 345 41 159 q 126 631 41 519 q 349 743 212 743 z "},"r":{"ha":463,"x_min":93,"x_max":446,"o":"m 93 726 l 209 726 l 209 601 q 279 690 223 637 q 407 743 334 743 q 418 742 410 743 q 446 739 427 741 l 446 610 q 426 613 435 612 q 406 614 417 614 q 264 554 314 614 q 215 418 215 495 l 215 0 l 93 0 l 93 726 z "},"s":{"ha":694,"x_min":45,"x_max":644,"o":"m 162 228 q 193 134 168 167 q 353 75 239 75 q 472 105 420 75 q 524 196 524 134 q 482 267 524 243 q 378 302 456 282 l 281 326 q 144 378 188 349 q 65 515 65 427 q 139 682 65 618 q 339 745 214 745 q 576 649 503 745 q 620 517 621 588 l 505 517 q 475 593 501 559 q 330 641 433 641 q 225 614 260 641 q 189 545 189 588 q 236 469 189 497 q 316 439 263 452 l 397 419 q 573 357 528 387 q 644 210 644 311 q 571 43 644 113 q 347 -28 497 -28 q 117 46 184 -28 q 45 228 50 119 l 162 228 m 342 744 z "},"t":{"ha":386,"x_min":16,"x_max":353,"o":"m 114 929 l 237 929 l 237 726 l 353 726 l 353 627 l 237 627 l 237 153 q 263 102 237 115 q 311 94 277 94 q 330 95 319 94 q 353 96 340 95 l 353 0 q 310 -9 332 -6 q 260 -12 287 -12 q 144 32 175 -12 q 114 146 114 76 l 114 627 l 16 627 l 16 726 l 114 726 l 114 929 z "},"u":{"ha":772,"x_min":87,"x_max":671,"o":"m 212 726 l 212 244 q 229 153 212 189 q 351 88 262 88 q 524 202 478 88 q 549 370 549 263 l 549 726 l 671 726 l 671 0 l 556 0 l 557 107 q 498 37 534 66 q 329 -20 429 -20 q 117 84 174 -20 q 87 233 87 140 l 87 726 l 212 726 m 379 744 z "},"v":{"ha":694,"x_min":7,"x_max":680,"o":"m 149 726 l 343 135 l 546 726 l 680 726 l 406 0 l 275 0 l 7 726 l 149 726 z "},"w":{"ha":1003,"x_min":12,"x_max":977,"o":"m 146 726 l 286 154 l 427 726 l 564 726 l 707 157 l 855 726 l 977 726 l 766 0 l 640 0 l 492 562 l 349 0 l 222 0 l 12 726 l 146 726 z "},"x":{"ha":694,"x_min":7,"x_max":673,"o":"m 20 726 l 178 726 l 345 471 l 514 726 l 663 723 l 418 372 l 673 0 l 517 0 l 337 273 l 162 0 l 7 0 l 263 372 l 20 726 z "},"y":{"ha":694,"x_min":14,"x_max":678,"o":"m 543 726 l 678 726 q 564 408 652 656 q 452 102 497 220 q 303 -237 347 -176 q 154 -298 260 -298 q 114 -296 128 -298 q 80 -288 100 -294 l 80 -177 q 126 -188 112 -186 q 151 -190 140 -190 q 201 -179 185 -190 q 228 -151 217 -168 q 252 -96 231 -146 q 283 -21 273 -45 l 14 726 l 153 726 l 347 135 l 543 726 m 347 744 z "},"z":{"ha":694,"x_min":35,"x_max":643,"o":"m 35 96 l 466 617 l 67 617 l 67 726 l 630 726 l 630 627 l 202 109 l 643 109 l 643 0 l 35 0 l 35 96 m 349 744 z "},"{":{"ha":464,"x_min":-29,"x_max":434,"o":"m 265 -3 q 318 -152 265 -108 q 434 -204 371 -197 l 434 -283 q 234 -213 313 -271 q 155 -20 155 -154 l 155 120 q 132 237 155 194 q -29 328 90 315 l -29 405 q 132 494 91 419 q 155 612 155 535 l 155 723 q 211 925 155 850 q 434 1014 266 1000 l 434 937 q 286 840 325 927 q 265 709 265 793 l 265 633 q 240 477 265 531 q 64 366 195 378 q 240 252 194 355 q 265 99 265 196 l 265 -3 z "},"|":{"ha":361,"x_min":98,"x_max":214,"o":"m 214 0 l 98 0 l 98 1010 l 214 1010 l 214 0 z "},"}":{"ha":464,"x_min":28,"x_max":492,"o":"m 398 366 q 222 476 268 378 q 197 633 197 530 l 197 709 q 176 844 197 798 q 28 937 138 927 l 28 1014 q 266 905 203 1000 q 307 723 307 845 l 307 612 q 330 494 307 536 q 492 405 372 418 l 492 328 q 330 236 372 315 q 307 120 307 193 l 307 -20 q 228 -214 307 -157 q 28 -283 149 -271 l 28 -204 q 149 -146 101 -195 q 197 -3 197 -98 l 197 99 q 222 252 197 197 q 398 366 269 355 z "},"~":{"ha":811,"x_min":12,"x_max":819,"o":"m 223 469 q 264 466 243 469 q 339 446 303 460 l 490 387 q 547 367 524 374 q 610 357 583 357 q 694 396 659 357 q 741 492 728 435 l 819 492 q 752 316 802 395 q 602 237 703 237 q 529 249 571 237 q 456 275 505 256 l 318 328 q 265 343 292 338 q 220 349 237 349 q 130 304 163 349 q 92 217 111 279 l 12 217 q 37 313 24 273 q 85 403 51 353 q 146 453 113 437 q 223 469 179 469 z "}," ":{"ha":386,"x_min":0,"x_max":0,"o":""},"¡":{"ha":463,"x_min":157,"x_max":296,"o":"m 157 726 l 296 726 l 296 585 l 157 585 l 157 726 m 157 58 l 193 488 l 261 488 l 296 58 l 296 -271 l 157 -271 l 157 58 z "},"¢":{"ha":772,"x_min":71,"x_max":712,"o":"m 194 355 q 230 182 194 249 q 294 107 252 138 l 444 633 q 425 637 435 635 q 397 640 414 640 q 253 562 311 640 q 194 355 194 484 m 411 747 q 441 746 425 747 q 472 741 456 744 l 508 865 l 564 865 l 527 728 q 653 632 608 694 q 707 479 699 569 l 593 479 q 566 558 586 519 q 496 617 542 600 l 345 85 q 369 79 358 81 q 400 77 380 77 q 543 140 492 77 q 595 254 573 178 l 712 254 q 642 86 691 153 q 389 -29 554 -29 q 349 -27 364 -29 q 315 -20 333 -24 l 273 -161 l 215 -161 l 262 -3 q 114 140 157 45 q 71 353 71 235 q 160 637 71 527 q 411 747 250 747 z "},"£":{"ha":772,"x_min":38,"x_max":741,"o":"m 45 80 q 168 198 121 134 q 215 339 215 263 q 206 390 215 361 q 188 440 201 408 l 38 440 l 38 511 l 144 511 q 122 553 144 507 q 92 620 99 599 q 80 666 85 640 q 75 722 75 692 q 161 911 75 827 q 408 995 248 995 q 637 912 559 995 q 717 678 715 829 l 591 678 q 544 834 591 781 q 398 887 496 887 q 254 837 303 887 q 205 716 205 787 q 221 644 205 681 q 286 511 236 606 l 508 511 l 508 440 l 316 440 q 326 391 323 409 q 329 355 329 374 q 288 221 329 287 q 161 90 248 155 q 253 127 208 113 q 342 141 298 141 q 471 117 391 141 q 576 93 551 93 q 635 105 608 93 q 684 136 651 113 l 741 45 q 673 -1 703 14 q 568 -24 623 -24 q 431 7 527 -24 q 279 38 335 38 q 182 20 228 38 q 112 -16 155 9 l 45 80 z "},"¤":{"ha":772,"x_min":51,"x_max":709,"o":"m 181 477 q 239 338 181 396 q 380 279 297 279 q 520 336 461 279 q 578 477 578 393 q 520 619 578 562 q 380 676 461 676 q 239 618 298 676 q 181 477 181 561 m 51 743 l 115 806 l 209 713 q 287 756 247 742 q 374 771 328 771 q 473 756 431 771 q 551 712 515 741 l 644 806 l 709 743 l 614 648 q 660 566 645 608 q 675 473 675 523 q 662 390 675 433 q 614 307 649 347 l 709 214 l 644 149 l 551 241 q 471 197 513 212 q 382 182 429 182 q 299 195 340 182 q 209 242 257 207 l 115 148 l 51 214 l 146 307 q 103 385 117 343 q 88 473 88 427 q 104 573 88 531 q 146 651 121 615 l 51 743 z "},"¥":{"ha":772,"x_min":-21,"x_max":778,"o":"m 130 953 l 378 495 l 627 953 l 778 953 l 598 651 l 717 651 l 717 559 l 545 559 l 458 411 l 694 411 l 694 319 l 441 319 l 441 0 l 313 0 l 313 319 l 67 319 l 67 411 l 297 411 l 210 559 l 35 559 l 35 651 l 157 651 l -21 953 l 130 953 z "},"¦":{"ha":361,"x_min":98,"x_max":214,"o":"m 98 618 l 98 1010 l 214 1010 l 214 618 l 98 618 m 214 0 l 98 0 l 98 392 l 214 392 l 214 0 z "},"§":{"ha":772,"x_min":51,"x_max":709,"o":"m 132 764 q 199 929 132 862 q 377 997 267 997 q 602 889 540 997 q 636 743 634 833 l 517 743 q 495 838 513 807 q 383 893 463 893 q 286 863 319 893 q 252 783 252 833 q 265 730 252 753 q 302 689 277 707 q 481 583 353 654 q 709 313 709 455 q 660 172 709 232 q 566 90 632 137 q 621 17 602 56 q 641 -68 641 -22 q 570 -226 641 -159 q 378 -293 498 -293 q 155 -190 218 -293 q 112 -33 119 -134 l 233 -33 q 256 -130 238 -99 q 370 -186 289 -186 q 454 -172 422 -186 q 514 -73 514 -146 q 496 -14 514 -41 q 465 17 485 1 q 395 66 454 26 q 328 112 359 90 l 207 193 q 104 276 135 241 q 51 412 51 336 q 91 529 51 477 q 196 622 131 582 q 150 680 166 649 q 132 764 132 720 m 496 146 q 555 192 536 169 q 589 291 589 232 q 553 381 589 344 q 463 446 531 404 l 265 567 q 206 525 225 545 q 170 433 170 487 q 179 381 170 404 q 242 310 196 340 l 496 146 z "},"¨":{"ha":463,"x_min":56,"x_max":406,"o":"m 279 980 l 406 980 l 406 839 l 279 839 l 279 980 m 56 980 l 182 980 l 182 839 l 56 839 l 56 980 z "},"©":{"ha":1023,"x_min":12,"x_max":1009,"o":"m 755 403 q 676 261 740 311 q 524 210 612 210 q 332 290 412 210 q 253 503 253 370 q 325 711 253 627 q 511 794 396 794 q 642 765 584 794 q 752 591 743 713 l 670 591 q 627 680 664 642 q 521 717 591 717 q 378 629 422 717 q 350 507 350 572 q 396 351 350 414 q 528 288 441 288 q 621 317 584 288 q 673 403 659 347 l 755 403 m 511 929 q 209 803 334 929 q 85 500 85 677 q 208 195 85 321 q 511 68 333 68 q 813 195 688 68 q 937 500 937 321 q 812 803 937 677 q 511 929 688 929 m 1009 500 q 863 146 1009 293 q 511 0 718 0 q 158 146 304 0 q 12 500 12 293 q 158 851 12 706 q 511 996 304 996 q 863 851 718 996 q 1009 500 1009 706 z "},"ª":{"ha":514,"x_min":40,"x_max":487,"o":"m 336 792 q 228 768 304 778 q 142 694 142 750 q 160 650 142 666 q 212 634 177 634 q 301 659 267 634 q 336 741 336 684 l 336 792 m 297 842 q 326 852 314 845 q 337 882 337 859 q 316 935 337 918 q 245 951 295 951 q 175 932 197 951 q 151 880 154 913 l 64 880 q 112 986 69 949 q 260 1023 155 1023 q 407 975 366 1023 q 434 884 434 942 l 434 670 q 439 648 434 656 q 464 640 444 640 q 487 641 468 640 l 487 569 q 458 563 472 565 q 430 561 445 561 q 377 580 395 561 q 357 630 360 600 q 276 575 323 590 q 190 561 229 561 q 77 601 115 561 q 40 692 40 641 q 100 800 40 764 q 189 827 134 820 l 297 842 z "},"«":{"ha":772,"x_min":132,"x_max":635,"o":"m 416 444 l 635 614 l 635 492 l 488 379 l 635 267 l 635 144 l 416 315 l 416 444 m 132 444 l 350 614 l 350 492 l 204 379 l 350 267 l 350 144 l 132 315 l 132 444 z "},"¬":{"ha":811,"x_min":62,"x_max":770,"o":"m 770 557 l 770 151 l 656 151 l 656 444 l 62 444 l 62 557 l 770 557 z "},"­":{"ha":463,"x_min":58,"x_max":398,"o":"m 58 450 l 398 450 l 398 324 l 58 324 l 58 450 z "},"®":{"ha":1023,"x_min":14,"x_max":1009,"o":"m 511 929 q 208 803 334 929 q 83 500 83 677 q 208 195 83 321 q 511 68 332 68 q 814 195 689 68 q 939 500 939 321 q 814 803 939 677 q 511 929 688 929 m 1009 500 q 863 146 1009 293 q 511 0 718 0 q 159 146 304 0 q 14 500 14 292 q 160 851 14 705 q 511 996 305 996 q 863 851 718 996 q 1009 500 1009 706 m 641 608 q 605 688 641 668 q 488 709 568 709 l 406 709 l 406 511 l 493 511 q 585 523 554 511 q 641 608 641 545 m 501 774 q 650 755 603 774 q 735 616 735 720 q 682 509 735 543 q 602 482 653 490 q 696 429 667 472 q 726 344 726 385 l 726 304 q 728 263 726 285 q 732 235 729 241 l 736 228 l 646 228 q 644 233 645 231 q 643 239 644 236 l 641 257 l 641 300 q 589 426 641 395 q 482 444 559 444 l 406 444 l 406 228 l 310 228 l 310 774 l 501 774 z "},"¯":{"ha":463,"x_min":14,"x_max":448,"o":"m 14 949 l 448 949 l 448 869 l 14 869 l 14 949 z "},"°":{"ha":555,"x_min":75,"x_max":485,"o":"m 281 970 q 426 911 367 970 q 485 766 485 852 q 424 620 485 678 q 281 561 362 561 q 133 622 191 561 q 75 764 75 683 q 136 911 75 851 q 281 970 197 970 m 149 765 q 188 673 149 712 q 281 635 227 635 q 372 673 333 635 q 411 766 411 711 q 373 858 411 819 q 281 897 334 897 q 188 858 227 897 q 149 765 149 820 z "},"±":{"ha":762,"x_min":62,"x_max":770,"o":"m 770 109 l 770 0 l 62 0 l 62 109 l 770 109 m 62 378 l 62 485 l 358 485 l 358 709 l 474 709 l 474 485 l 770 485 l 770 378 l 474 378 l 474 162 l 358 162 l 358 378 l 62 378 z "},"²":{"ha":463,"x_min":7,"x_max":441,"o":"m 7 387 q 55 546 7 486 q 173 642 102 606 q 304 716 274 692 q 334 781 334 741 q 309 853 334 826 q 229 880 284 880 q 153 846 174 880 q 130 762 131 811 l 24 762 q 82 917 24 863 q 233 971 140 971 q 384 926 327 971 q 441 793 441 880 q 400 671 441 712 q 268 586 358 629 q 132 482 152 534 l 441 482 l 441 387 l 7 387 z "},"³":{"ha":463,"x_min":5,"x_max":444,"o":"m 104 564 q 124 487 109 509 q 218 450 149 450 q 312 478 283 450 q 340 548 340 507 q 271 635 340 613 q 175 644 233 646 l 175 726 q 268 735 240 726 q 318 806 318 752 q 295 863 318 839 q 224 887 273 887 q 148 862 177 887 q 117 776 118 836 l 19 776 q 75 919 19 868 q 223 970 130 970 q 367 925 313 970 q 421 813 421 880 q 400 736 421 766 q 339 694 378 705 q 420 643 396 680 q 444 547 444 606 q 377 414 444 461 q 218 368 310 368 q 69 412 131 368 q 5 564 7 456 l 104 564 z "},"´":{"ha":463,"x_min":94,"x_max":368,"o":"m 368 1019 l 187 823 l 94 823 l 218 1019 l 368 1019 z "},"µ":{"ha":800,"x_min":-52,"x_max":747,"o":"m 294 725 l 183 212 q 179 192 180 200 q 178 173 178 183 q 191 121 178 140 q 281 87 215 87 q 447 159 379 87 q 536 328 515 231 l 623 725 l 747 725 l 591 0 l 474 0 l 503 122 q 439 51 488 92 q 254 -19 355 -19 q 189 -7 222 -19 q 140 19 155 4 l 74 -286 l -52 -286 l 168 725 l 294 725 z "},"¶":{"ha":746,"x_min":-7,"x_max":722,"o":"m 637 -246 l 538 -246 l 538 918 l 381 918 l 381 -246 l 281 -246 l 281 357 q 65 457 137 359 q -7 675 -7 556 q 41 854 -7 775 q 332 996 130 996 l 722 996 l 722 918 l 637 918 l 637 -246 z "},"·":{"ha":386,"x_min":102,"x_max":276,"o":"m 189 562 q 251 537 226 562 q 276 475 276 511 q 251 414 276 439 q 189 389 225 389 q 128 414 153 389 q 102 475 102 439 q 127 537 102 511 q 189 562 153 562 z "},"¸":{"ha":463,"x_min":82,"x_max":380,"o":"m 218 0 l 284 0 l 220 -87 q 271 -81 240 -81 q 350 -108 319 -81 q 380 -186 380 -136 q 340 -275 380 -238 q 215 -313 299 -313 q 140 -302 179 -313 q 82 -283 119 -297 l 106 -229 q 146 -242 132 -238 q 196 -250 174 -250 q 239 -242 221 -250 q 275 -191 275 -228 q 257 -153 275 -169 q 209 -137 239 -137 q 182 -140 194 -137 q 154 -149 170 -142 l 130 -121 l 218 0 z "},"¹":{"ha":463,"x_min":59,"x_max":318,"o":"m 318 387 l 209 387 l 209 783 l 59 783 l 59 855 q 172 877 144 863 q 229 967 214 899 l 318 967 l 318 387 z "},"º":{"ha":507,"x_min":33,"x_max":475,"o":"m 259 1023 q 416 966 356 1023 q 475 794 475 908 q 419 627 475 693 q 252 561 362 561 q 71 652 127 561 q 33 789 33 711 q 71 928 33 865 q 259 1023 130 1023 m 258 945 q 165 904 199 945 q 132 785 132 863 q 160 682 132 725 q 249 640 188 640 q 357 704 325 640 q 376 795 376 743 q 341 907 376 869 q 258 945 307 945 z "},"»":{"ha":772,"x_min":132,"x_max":635,"o":"m 416 267 l 559 379 l 416 492 l 416 614 l 635 444 l 635 315 l 416 144 l 416 267 m 132 267 l 275 379 l 132 492 l 132 614 l 350 444 l 350 315 l 132 144 l 132 267 z "},"¼":{"ha":1158,"x_min":111,"x_max":1103,"o":"m 370 387 l 260 387 l 260 783 l 111 783 l 111 855 q 223 877 195 863 q 281 967 265 899 l 370 967 l 370 387 m 934 583 l 1025 583 l 1025 215 l 1103 215 l 1103 132 l 1025 132 l 1025 0 l 921 0 l 921 132 l 644 132 l 644 223 l 934 583 m 919 215 l 919 448 l 736 215 l 919 215 m 855 970 l 947 970 l 352 -26 l 260 -26 l 855 970 z "},"½":{"ha":1158,"x_min":61,"x_max":1078,"o":"m 184 -26 l 760 970 l 852 970 l 276 -26 l 184 -26 m 319 387 l 210 387 l 210 783 l 61 783 l 61 855 q 173 877 145 863 q 231 967 216 899 l 319 967 l 319 387 m 644 0 q 686 150 652 91 q 810 254 720 209 q 941 329 911 304 q 971 394 971 354 q 945 467 971 441 q 866 493 919 493 q 782 449 805 493 q 766 374 769 424 l 661 374 q 711 521 661 459 q 873 583 761 583 q 1023 536 967 583 q 1078 410 1078 489 q 1045 296 1078 340 q 920 206 1011 252 q 768 94 789 146 l 1078 94 l 1078 0 l 644 0 z "},"¾":{"ha":1158,"x_min":51,"x_max":1116,"o":"m 947 583 l 1038 583 l 1038 215 l 1116 215 l 1116 132 l 1038 132 l 1038 0 l 934 0 l 934 132 l 657 132 l 657 223 l 947 583 m 932 215 l 932 448 l 749 215 l 932 215 m 985 970 l 378 -26 l 286 -26 l 893 970 l 985 970 m 151 564 q 174 484 151 515 q 264 450 199 450 q 357 477 329 450 q 386 546 386 505 q 317 635 386 612 q 222 644 280 646 l 222 726 q 315 735 288 726 q 365 808 365 753 q 343 862 365 837 q 270 887 321 887 q 194 862 223 887 q 163 776 165 837 l 66 776 q 124 922 66 873 q 270 970 182 970 q 413 925 359 970 q 467 813 467 880 q 447 740 467 772 q 385 694 426 707 q 477 623 453 673 q 490 552 490 595 q 424 415 490 462 q 265 368 357 368 q 83 448 135 368 q 51 564 51 500 l 151 564 z "},"¿":{"ha":848,"x_min":126,"x_max":732,"o":"m 370 730 l 505 730 l 505 588 l 370 588 l 370 730 m 289 254 q 366 357 351 315 q 380 475 380 398 l 501 475 q 481 323 501 372 q 368 176 460 275 l 315 120 q 267 52 279 83 q 255 -9 255 20 q 299 -126 255 -79 q 435 -174 342 -174 q 581 -98 538 -174 q 612 45 606 -55 l 730 45 q 643 -201 732 -123 q 429 -280 554 -280 q 215 -210 303 -280 q 126 -17 126 -140 q 158 103 126 52 q 257 222 190 155 l 289 254 z "},"À":{"ha":926,"x_min":20,"x_max":909,"o":"m 617 408 l 466 848 l 305 408 l 617 408 m 395 996 l 548 996 l 909 0 l 762 0 l 661 298 l 267 298 l 159 0 l 20 0 l 395 996 m 465 996 m 547 1075 l 454 1075 l 272 1271 l 423 1271 l 547 1075 z "},"Á":{"ha":926,"x_min":20,"x_max":909,"o":"m 617 408 l 466 848 l 305 408 l 617 408 m 395 996 l 548 996 l 909 0 l 762 0 l 661 298 l 267 298 l 159 0 l 20 0 l 395 996 m 465 996 m 611 1271 l 430 1075 l 336 1075 l 460 1271 l 611 1271 z "},"Â":{"ha":926,"x_min":20,"x_max":909,"o":"m 617 408 l 466 848 l 305 408 l 617 408 m 395 996 l 548 996 l 909 0 l 762 0 l 661 298 l 267 298 l 159 0 l 20 0 l 395 996 m 465 996 m 540 1271 l 678 1075 l 567 1075 l 475 1205 l 384 1075 l 273 1075 l 411 1271 l 540 1271 z "},"Ã":{"ha":926,"x_min":20,"x_max":909,"o":"m 617 408 l 466 848 l 305 408 l 617 408 m 395 996 l 548 996 l 909 0 l 762 0 l 661 298 l 267 298 l 159 0 l 20 0 l 395 996 m 465 996 m 510 1204 q 545 1191 529 1196 q 576 1186 560 1186 q 631 1210 614 1186 q 643 1249 640 1223 l 714 1249 q 660 1130 700 1162 q 571 1097 619 1097 q 533 1103 556 1097 q 492 1115 510 1108 l 456 1128 q 405 1145 425 1139 q 366 1151 385 1151 q 327 1135 342 1151 q 306 1088 311 1120 l 239 1088 q 269 1175 248 1141 q 383 1238 307 1238 q 434 1231 406 1238 q 510 1204 463 1224 z "},"Ä":{"ha":926,"x_min":20,"x_max":909,"o":"m 617 408 l 466 848 l 305 408 l 617 408 m 395 996 l 548 996 l 909 0 l 762 0 l 661 298 l 267 298 l 159 0 l 20 0 l 395 996 m 465 996 m 513 1232 l 640 1232 l 640 1091 l 513 1091 l 513 1232 m 290 1232 l 416 1232 l 416 1091 l 290 1091 l 290 1232 z "},"Å":{"ha":926,"x_min":20,"x_max":909,"o":"m 617 408 l 466 848 l 305 408 l 617 408 m 395 996 l 548 996 l 909 0 l 762 0 l 661 298 l 267 298 l 159 0 l 20 0 l 395 996 m 465 996 m 475 1093 q 536 1118 511 1093 q 561 1178 561 1143 q 536 1238 561 1213 q 475 1263 511 1263 q 416 1238 441 1263 q 391 1178 391 1213 q 416 1118 391 1143 q 475 1093 441 1093 m 475 1320 q 575 1278 534 1320 q 617 1178 617 1236 q 575 1078 617 1120 q 475 1036 534 1036 q 376 1078 417 1036 q 334 1178 334 1120 q 376 1278 334 1236 q 475 1320 417 1320 z "},"Æ":{"ha":1389,"x_min":11,"x_max":1321,"o":"m 500 880 l 315 410 l 635 410 l 635 880 l 500 880 m 416 996 l 1308 996 l 1308 878 l 768 878 l 768 572 l 1263 572 l 1263 459 l 768 459 l 768 119 l 1321 119 l 1321 0 l 635 0 l 635 296 l 268 296 l 157 0 l 11 0 l 416 996 z "},"Ç":{"ha":1003,"x_min":61,"x_max":945,"o":"m 526 1023 q 819 924 715 1023 q 935 697 924 824 l 804 697 q 714 850 781 793 q 527 906 648 906 q 289 803 380 906 q 199 486 199 699 q 280 202 199 311 q 524 93 362 93 q 751 208 673 93 q 813 366 793 268 l 945 366 q 828 102 927 209 q 522 -26 709 -26 l 477 -87 q 528 -81 497 -81 q 607 -108 576 -81 q 637 -186 637 -136 q 597 -275 637 -238 q 472 -313 556 -313 q 397 -302 436 -313 q 339 -283 376 -297 l 363 -229 q 403 -242 389 -238 q 453 -250 431 -250 q 496 -242 478 -250 q 532 -191 532 -228 q 514 -153 532 -169 q 466 -137 496 -137 q 439 -140 451 -137 q 411 -149 427 -142 l 387 -121 l 456 -26 q 219 68 338 -26 q 61 509 61 218 q 178 870 61 729 q 526 1023 304 1023 z "},"È":{"ha":926,"x_min":119,"x_max":855,"o":"m 119 996 l 845 996 l 845 874 l 250 874 l 250 572 l 800 572 l 800 456 l 250 456 l 250 119 l 855 119 l 855 0 l 119 0 l 119 996 m 487 996 m 568 1075 l 475 1075 l 294 1271 l 445 1271 l 568 1075 z "},"É":{"ha":926,"x_min":119,"x_max":855,"o":"m 119 996 l 845 996 l 845 874 l 250 874 l 250 572 l 800 572 l 800 456 l 250 456 l 250 119 l 855 119 l 855 0 l 119 0 l 119 996 m 487 996 m 640 1271 l 458 1075 l 365 1075 l 489 1271 l 640 1271 z "},"Ê":{"ha":926,"x_min":119,"x_max":855,"o":"m 119 996 l 845 996 l 845 874 l 250 874 l 250 572 l 800 572 l 800 456 l 250 456 l 250 119 l 855 119 l 855 0 l 119 0 l 119 996 m 487 996 m 562 1271 l 700 1075 l 589 1075 l 497 1205 l 406 1075 l 295 1075 l 433 1271 l 562 1271 z "},"Ë":{"ha":926,"x_min":119,"x_max":855,"o":"m 119 996 l 845 996 l 845 874 l 250 874 l 250 572 l 800 572 l 800 456 l 250 456 l 250 119 l 855 119 l 855 0 l 119 0 l 119 996 m 487 996 m 544 1232 l 671 1232 l 671 1091 l 544 1091 l 544 1232 m 320 1232 l 447 1232 l 447 1091 l 320 1091 l 320 1232 z "},"Ì":{"ha":386,"x_min":1,"x_max":276,"o":"m 125 996 l 261 996 l 261 0 l 125 0 l 125 996 m 276 1074 l 183 1074 l 1 1270 l 153 1270 l 276 1074 z "},"Í":{"ha":386,"x_min":73,"x_max":347,"o":"m 136 996 l 273 996 l 273 0 l 136 0 l 136 996 m 347 1268 l 166 1072 l 73 1072 l 197 1268 l 347 1268 z "},"Î":{"ha":386,"x_min":-5,"x_max":400,"o":"m 136 996 l 273 996 l 273 0 l 136 0 l 136 996 m 262 1274 l 400 1078 l 289 1078 l 197 1208 l 106 1078 l -5 1078 l 133 1274 l 262 1274 z "},"Ï":{"ha":386,"x_min":22,"x_max":372,"o":"m 136 996 l 273 996 l 273 0 l 136 0 l 136 996 m 245 1230 l 372 1230 l 372 1088 l 245 1088 l 245 1230 m 22 1230 l 149 1230 l 149 1088 l 22 1088 l 22 1230 z "},"Ð":{"ha":1003,"x_min":22,"x_max":935,"o":"m 22 587 l 112 587 l 112 996 l 493 996 q 853 826 741 996 q 935 515 935 702 q 872 219 935 349 q 514 0 766 0 l 112 0 l 112 466 l 22 466 l 22 587 m 248 587 l 532 587 l 532 466 l 248 466 l 248 115 l 488 115 q 601 130 557 115 q 730 231 680 156 q 787 386 770 292 q 798 490 798 442 q 724 778 798 675 q 487 880 650 880 l 248 880 l 248 587 z "},"Ñ":{"ha":1003,"x_min":106,"x_max":897,"o":"m 106 996 l 265 996 l 768 189 l 768 996 l 897 996 l 897 0 l 745 0 l 235 806 l 235 0 l 106 0 l 106 996 m 492 996 m 544 1204 q 578 1191 563 1196 q 610 1186 594 1186 q 665 1210 648 1186 q 677 1249 673 1223 l 748 1249 q 693 1130 734 1162 q 605 1097 653 1097 q 567 1103 590 1097 q 526 1115 544 1108 l 490 1128 q 438 1145 458 1139 q 399 1151 418 1151 q 360 1135 376 1151 q 340 1088 345 1120 l 273 1088 q 302 1175 282 1141 q 417 1238 341 1238 q 468 1231 440 1238 q 544 1204 496 1224 z "},"Ò":{"ha":1080,"x_min":54,"x_max":1025,"o":"m 536 1023 q 926 854 800 1023 q 1025 515 1025 722 q 912 144 1025 292 q 533 -29 779 -29 q 172 123 303 -29 q 54 493 54 269 q 155 839 54 695 q 536 1023 283 1023 m 549 92 q 807 219 728 92 q 887 513 887 347 q 795 796 887 689 q 544 903 703 903 q 292 797 389 903 q 194 484 194 691 q 278 205 194 319 q 549 92 361 92 m 540 1023 m 628 1102 l 535 1102 l 353 1298 l 505 1298 l 628 1102 z "},"Ó":{"ha":1080,"x_min":54,"x_max":1025,"o":"m 536 1023 q 926 854 800 1023 q 1025 515 1025 722 q 912 144 1025 292 q 533 -29 779 -29 q 172 123 303 -29 q 54 493 54 269 q 155 839 54 695 q 536 1023 283 1023 m 549 92 q 807 219 728 92 q 887 513 887 347 q 795 796 887 689 q 544 903 703 903 q 292 797 389 903 q 194 484 194 691 q 278 205 194 319 q 549 92 361 92 m 540 1023 m 686 1298 l 505 1102 l 411 1102 l 535 1298 l 686 1298 z "},"Ô":{"ha":1080,"x_min":54,"x_max":1025,"o":"m 536 1023 q 926 854 800 1023 q 1025 515 1025 722 q 912 144 1025 292 q 533 -29 779 -29 q 172 123 303 -29 q 54 493 54 269 q 155 839 54 695 q 536 1023 283 1023 m 549 92 q 807 219 728 92 q 887 513 887 347 q 795 796 887 689 q 544 903 703 903 q 292 797 389 903 q 194 484 194 691 q 278 205 194 319 q 549 92 361 92 m 540 1023 m 614 1298 l 753 1102 l 642 1102 l 550 1232 l 458 1102 l 348 1102 l 486 1298 l 614 1298 z "},"Õ":{"ha":1080,"x_min":54,"x_max":1025,"o":"m 536 1023 q 926 854 800 1023 q 1025 515 1025 722 q 912 144 1025 292 q 533 -29 779 -29 q 172 123 303 -29 q 54 493 54 269 q 155 839 54 695 q 536 1023 283 1023 m 549 92 q 807 219 728 92 q 887 513 887 347 q 795 796 887 689 q 544 903 703 903 q 292 797 389 903 q 194 484 194 691 q 278 205 194 319 q 549 92 361 92 m 540 1023 m 585 1231 q 619 1218 604 1223 q 651 1213 635 1213 q 705 1237 689 1213 q 718 1276 714 1250 l 789 1276 q 734 1157 774 1190 q 646 1124 694 1124 q 608 1130 631 1124 q 567 1142 585 1135 l 531 1155 q 479 1172 499 1166 q 440 1178 459 1178 q 401 1162 416 1178 q 380 1115 386 1147 l 314 1115 q 343 1202 323 1168 q 458 1265 382 1265 q 509 1258 481 1265 q 585 1231 537 1251 z "},"Ö":{"ha":1080,"x_min":54,"x_max":1025,"o":"m 536 1023 q 926 854 800 1023 q 1025 515 1025 722 q 912 144 1025 292 q 533 -29 779 -29 q 172 123 303 -29 q 54 493 54 269 q 155 839 54 695 q 536 1023 283 1023 m 549 92 q 807 219 728 92 q 887 513 887 347 q 795 796 887 689 q 544 903 703 903 q 292 797 389 903 q 194 484 194 691 q 278 205 194 319 q 549 92 361 92 m 540 1023 m 604 1259 l 730 1259 l 730 1118 l 604 1118 l 604 1259 m 380 1259 l 507 1259 l 507 1118 l 380 1118 l 380 1259 z "},"×":{"ha":811,"x_min":79,"x_max":755,"o":"m 79 612 l 159 692 l 416 435 l 673 692 l 755 612 l 498 355 l 755 98 l 673 16 l 416 273 l 159 16 l 79 98 l 336 355 l 79 612 z "},"Ø":{"ha":1080,"x_min":45,"x_max":1025,"o":"m 297 189 q 398 117 342 142 q 551 92 454 92 q 821 243 732 92 q 887 513 887 356 q 861 675 887 602 q 819 763 847 715 l 297 189 m 90 -24 l 45 18 l 163 140 q 81 303 108 212 q 54 493 54 393 q 160 846 54 699 q 530 1024 289 1024 q 733 994 650 1024 q 873 911 817 964 l 977 1023 l 1021 982 l 914 865 q 985 745 953 817 q 1025 515 1025 645 q 886 118 1025 269 q 538 -29 751 -29 q 319 14 412 -29 q 204 93 260 41 l 90 -24 m 783 810 q 699 869 737 850 q 539 903 629 903 q 290 797 387 903 q 194 484 194 690 q 208 355 194 420 q 257 236 221 290 l 783 810 z "},"Ù":{"ha":1003,"x_min":115,"x_max":900,"o":"m 252 996 l 252 380 q 293 200 252 272 q 496 92 353 92 q 730 209 668 92 q 763 380 763 273 l 763 996 l 900 996 l 900 437 q 850 154 900 253 q 507 -26 760 -26 q 165 154 255 -26 q 115 437 115 253 l 115 996 l 252 996 m 508 996 m 596 1075 l 503 1075 l 321 1271 l 473 1271 l 596 1075 z "},"Ú":{"ha":1003,"x_min":115,"x_max":900,"o":"m 252 996 l 252 380 q 293 200 252 272 q 496 92 353 92 q 730 209 668 92 q 763 380 763 273 l 763 996 l 900 996 l 900 437 q 850 154 900 253 q 507 -26 760 -26 q 165 154 255 -26 q 115 437 115 253 l 115 996 l 252 996 m 508 996 m 661 1271 l 479 1075 l 386 1075 l 510 1271 l 661 1271 z "},"Û":{"ha":1003,"x_min":115,"x_max":900,"o":"m 252 996 l 252 380 q 293 200 252 272 q 496 92 353 92 q 730 209 668 92 q 763 380 763 273 l 763 996 l 900 996 l 900 437 q 850 154 900 253 q 507 -26 760 -26 q 165 154 255 -26 q 115 437 115 253 l 115 996 l 252 996 m 508 996 m 583 1271 l 721 1075 l 610 1075 l 518 1205 l 427 1075 l 316 1075 l 454 1271 l 583 1271 z "},"Ü":{"ha":1003,"x_min":115,"x_max":900,"o":"m 252 996 l 252 380 q 293 200 252 272 q 496 92 353 92 q 730 209 668 92 q 763 380 763 273 l 763 996 l 900 996 l 900 437 q 850 154 900 253 q 507 -26 760 -26 q 165 154 255 -26 q 115 437 115 253 l 115 996 l 252 996 m 508 996 m 572 1232 l 699 1232 l 699 1091 l 572 1091 l 572 1232 m 348 1232 l 475 1232 l 475 1091 l 348 1091 l 348 1232 z "},"Ý":{"ha":926,"x_min":28,"x_max":916,"o":"m 28 996 l 186 996 l 472 517 l 758 996 l 916 996 l 540 401 l 540 0 l 405 0 l 405 401 l 28 996 m 474 996 m 620 1271 l 439 1075 l 345 1075 l 469 1271 l 620 1271 z "},"Þ":{"ha":926,"x_min":87,"x_max":831,"o":"m 87 995 l 218 995 l 218 836 l 528 836 q 756 757 682 836 q 831 549 831 678 q 751 349 831 435 q 523 264 671 264 l 218 264 l 218 0 l 87 0 l 87 995 m 483 382 q 613 406 570 383 q 692 556 692 445 q 670 644 692 603 q 526 719 628 719 l 218 719 l 218 382 l 483 382 z "},"ß":{"ha":848,"x_min":135,"x_max":750,"o":"m 135 694 q 239 964 135 888 q 411 1011 308 1011 q 627 943 551 1011 q 702 763 702 875 q 671 633 702 684 q 589 556 640 581 q 693 489 651 541 q 750 306 750 424 q 674 76 750 172 q 458 -20 597 -20 q 409 -18 425 -20 q 370 -13 393 -17 l 370 93 q 399 90 386 91 q 430 88 413 88 q 563 134 503 88 q 623 298 623 180 q 546 462 623 413 q 433 492 498 492 q 407 490 422 492 q 376 487 391 489 l 376 596 q 394 593 388 594 q 408 593 401 593 q 544 643 507 593 q 582 747 582 692 q 541 861 582 817 q 418 905 500 905 q 277 829 313 905 q 257 694 257 786 l 257 0 l 135 0 l 135 694 z "},"à":{"ha":772,"x_min":56,"x_max":743,"o":"m 183 193 q 222 110 183 140 q 313 79 260 79 q 438 109 378 79 q 540 271 540 159 l 540 370 q 482 346 517 355 q 413 332 447 336 l 339 323 q 239 295 273 314 q 183 193 183 263 m 479 440 q 535 475 521 446 q 543 522 543 492 q 499 613 543 585 q 372 641 454 641 q 236 589 276 641 q 207 505 214 561 l 93 505 q 180 691 96 639 q 374 744 264 744 q 583 695 503 744 q 662 543 662 646 l 662 125 q 670 94 662 106 q 703 83 677 83 q 721 84 711 83 q 743 87 731 85 l 743 -3 q 699 -14 714 -12 q 659 -16 684 -16 q 567 29 595 -16 q 546 96 552 53 q 439 12 509 47 q 285 -24 369 -24 q 120 37 184 -24 q 56 191 56 98 q 119 347 56 292 q 284 416 182 403 l 479 440 m 378 744 m 466 823 l 373 823 l 191 1019 l 342 1019 l 466 823 z "},"á":{"ha":772,"x_min":56,"x_max":743,"o":"m 183 193 q 222 110 183 140 q 313 79 260 79 q 438 109 378 79 q 540 271 540 159 l 540 370 q 482 346 517 355 q 413 332 447 336 l 339 323 q 239 295 273 314 q 183 193 183 263 m 479 440 q 535 475 521 446 q 543 522 543 492 q 499 613 543 585 q 372 641 454 641 q 236 589 276 641 q 207 505 214 561 l 93 505 q 180 691 96 639 q 374 744 264 744 q 583 695 503 744 q 662 543 662 646 l 662 125 q 670 94 662 106 q 703 83 677 83 q 721 84 711 83 q 743 87 731 85 l 743 -3 q 699 -14 714 -12 q 659 -16 684 -16 q 567 29 595 -16 q 546 96 552 53 q 439 12 509 47 q 285 -24 369 -24 q 120 37 184 -24 q 56 191 56 98 q 119 347 56 292 q 284 416 182 403 l 479 440 m 378 744 m 530 1019 l 349 823 l 256 823 l 380 1019 l 530 1019 z "},"â":{"ha":772,"x_min":56,"x_max":743,"o":"m 183 193 q 222 110 183 140 q 313 79 260 79 q 438 109 378 79 q 540 271 540 159 l 540 370 q 482 346 517 355 q 413 332 447 336 l 339 323 q 239 295 273 314 q 183 193 183 263 m 479 440 q 535 475 521 446 q 543 522 543 492 q 499 613 543 585 q 372 641 454 641 q 236 589 276 641 q 207 505 214 561 l 93 505 q 180 691 96 639 q 374 744 264 744 q 583 695 503 744 q 662 543 662 646 l 662 125 q 670 94 662 106 q 703 83 677 83 q 721 84 711 83 q 743 87 731 85 l 743 -3 q 699 -14 714 -12 q 659 -16 684 -16 q 567 29 595 -16 q 546 96 552 53 q 439 12 509 47 q 285 -24 369 -24 q 120 37 184 -24 q 56 191 56 98 q 119 347 56 292 q 284 416 182 403 l 479 440 m 378 744 m 459 1019 l 597 823 l 486 823 l 395 953 l 303 823 l 193 823 l 330 1019 l 459 1019 z "},"ã":{"ha":772,"x_min":56,"x_max":743,"o":"m 183 193 q 222 110 183 140 q 313 79 260 79 q 438 109 378 79 q 540 271 540 159 l 540 370 q 482 346 517 355 q 413 332 447 336 l 339 323 q 239 295 273 314 q 183 193 183 263 m 479 440 q 535 475 521 446 q 543 522 543 492 q 499 613 543 585 q 372 641 454 641 q 236 589 276 641 q 207 505 214 561 l 93 505 q 180 691 96 639 q 374 744 264 744 q 583 695 503 744 q 662 543 662 646 l 662 125 q 670 94 662 106 q 703 83 677 83 q 721 84 711 83 q 743 87 731 85 l 743 -3 q 699 -14 714 -12 q 659 -16 684 -16 q 567 29 595 -16 q 546 96 552 53 q 439 12 509 47 q 285 -24 369 -24 q 120 37 184 -24 q 56 191 56 98 q 119 347 56 292 q 284 416 182 403 l 479 440 m 378 744 m 429 951 q 464 939 448 943 q 496 934 479 934 q 550 958 534 934 q 562 996 559 970 l 633 996 q 579 878 619 910 q 490 845 538 845 q 452 850 475 845 q 412 863 429 856 l 376 876 q 324 893 344 887 q 285 899 304 899 q 246 883 261 899 q 225 836 231 867 l 159 836 q 188 923 168 889 q 302 985 227 985 q 354 979 326 985 q 429 951 382 972 z "},"ä":{"ha":772,"x_min":56,"x_max":743,"o":"m 183 193 q 222 110 183 140 q 313 79 260 79 q 438 109 378 79 q 540 271 540 159 l 540 370 q 482 346 517 355 q 413 332 447 336 l 339 323 q 239 295 273 314 q 183 193 183 263 m 479 440 q 535 475 521 446 q 543 522 543 492 q 499 613 543 585 q 372 641 454 641 q 236 589 276 641 q 207 505 214 561 l 93 505 q 180 691 96 639 q 374 744 264 744 q 583 695 503 744 q 662 543 662 646 l 662 125 q 670 94 662 106 q 703 83 677 83 q 721 84 711 83 q 743 87 731 85 l 743 -3 q 699 -14 714 -12 q 659 -16 684 -16 q 567 29 595 -16 q 546 96 552 53 q 439 12 509 47 q 285 -24 369 -24 q 120 37 184 -24 q 56 191 56 98 q 119 347 56 292 q 284 416 182 403 l 479 440 m 378 744 m 441 980 l 568 980 l 568 839 l 441 839 l 441 980 m 218 980 l 345 980 l 345 839 l 218 839 l 218 980 z "},"å":{"ha":772,"x_min":56,"x_max":743,"o":"m 183 193 q 222 110 183 140 q 313 79 260 79 q 438 109 378 79 q 540 271 540 159 l 540 370 q 482 346 517 355 q 413 332 447 336 l 339 323 q 239 295 273 314 q 183 193 183 263 m 479 440 q 535 475 521 446 q 543 522 543 492 q 499 613 543 585 q 372 641 454 641 q 236 589 276 641 q 207 505 214 561 l 93 505 q 180 691 96 639 q 374 744 264 744 q 583 695 503 744 q 662 543 662 646 l 662 125 q 670 94 662 106 q 703 83 677 83 q 721 84 711 83 q 743 87 731 85 l 743 -3 q 699 -14 714 -12 q 659 -16 684 -16 q 567 29 595 -16 q 546 96 552 53 q 439 12 509 47 q 285 -24 369 -24 q 120 37 184 -24 q 56 191 56 98 q 119 347 56 292 q 284 416 182 403 l 479 440 m 378 744 m 394 876 q 454 901 429 876 q 479 961 479 926 q 454 1021 479 996 q 394 1046 429 1046 q 334 1021 359 1046 q 309 961 309 996 q 334 901 309 926 q 394 876 359 876 m 394 1103 q 494 1061 452 1103 q 536 961 536 1019 q 494 861 536 903 q 394 819 452 819 q 294 861 336 819 q 253 961 253 903 q 294 1061 253 1019 q 394 1103 336 1103 z "},"æ":{"ha":1235,"x_min":50,"x_max":1177,"o":"m 1046 421 q 988 582 1044 528 q 850 637 931 637 q 709 582 768 637 q 644 421 650 528 l 1046 421 m 530 370 q 497 352 513 358 q 439 338 481 345 l 336 323 q 228 292 260 311 q 174 195 174 261 q 217 107 174 138 q 319 77 260 77 q 396 94 352 77 q 477 146 440 111 q 521 210 511 177 q 530 278 527 230 l 530 370 m 465 440 q 516 465 499 445 q 533 520 533 484 q 495 609 533 578 q 374 640 457 640 q 265 618 306 640 q 197 503 197 578 l 80 503 q 200 712 87 656 q 379 744 265 744 q 534 711 469 744 q 616 635 588 682 q 716 715 656 687 q 852 744 777 744 q 998 716 931 744 q 1110 622 1065 688 q 1163 497 1150 568 q 1177 324 1177 426 l 643 324 q 699 146 646 212 q 845 80 751 80 q 979 119 933 80 q 1043 228 1025 157 l 1166 228 q 1121 116 1160 174 q 1038 31 1082 59 q 942 -13 991 -1 q 840 -24 892 -24 q 664 27 741 -24 q 574 130 593 79 q 447 12 518 48 q 294 -24 376 -24 q 113 34 177 -24 q 50 184 50 92 q 132 365 50 305 q 271 414 184 403 l 465 440 z "},"ç":{"ha":694,"x_min":40,"x_max":662,"o":"m 370 747 q 569 688 492 747 q 662 482 646 628 l 543 482 q 494 594 532 549 q 370 638 455 638 q 203 524 253 638 q 170 342 170 450 q 216 158 170 233 q 361 83 262 83 q 482 130 437 83 q 543 257 526 176 l 662 257 q 560 46 642 113 q 371 -21 479 -21 l 323 -87 q 374 -81 342 -81 q 452 -108 421 -81 q 483 -186 483 -136 q 442 -275 483 -238 q 317 -313 401 -313 q 243 -302 281 -313 q 184 -283 221 -297 l 208 -229 q 248 -242 234 -238 q 298 -250 276 -250 q 342 -242 323 -250 q 377 -191 377 -228 q 359 -153 377 -169 q 311 -137 341 -137 q 284 -140 296 -137 q 256 -149 273 -142 l 233 -121 l 306 -21 q 138 56 210 -21 q 40 343 40 167 q 133 641 40 534 q 370 747 226 747 z "},"è":{"ha":772,"x_min":49,"x_max":712,"o":"m 392 743 q 542 706 469 743 q 652 612 614 670 q 701 484 689 557 q 712 324 712 434 l 180 324 q 232 147 183 214 q 383 80 281 80 q 536 143 479 80 q 582 228 568 180 l 702 228 q 670 139 697 188 q 610 58 644 90 q 473 -15 555 4 q 373 -26 429 -26 q 143 73 237 -26 q 49 349 49 172 q 144 633 49 524 q 392 743 239 743 m 587 421 q 552 548 579 500 q 385 636 502 636 q 243 575 300 636 q 183 421 186 515 l 587 421 m 380 744 m 469 823 l 376 823 l 194 1019 l 345 1019 l 469 823 z "},"é":{"ha":772,"x_min":49,"x_max":712,"o":"m 392 743 q 542 706 469 743 q 652 612 614 670 q 701 484 689 557 q 712 324 712 434 l 180 324 q 232 147 183 214 q 383 80 281 80 q 536 143 479 80 q 582 228 568 180 l 702 228 q 670 139 697 188 q 610 58 644 90 q 473 -15 555 4 q 373 -26 429 -26 q 143 73 237 -26 q 49 349 49 172 q 144 633 49 524 q 392 743 239 743 m 587 421 q 552 548 579 500 q 385 636 502 636 q 243 575 300 636 q 183 421 186 515 l 587 421 m 380 744 m 533 1019 l 352 823 l 258 823 l 382 1019 l 533 1019 z "},"ê":{"ha":772,"x_min":49,"x_max":712,"o":"m 392 743 q 542 706 469 743 q 652 612 614 670 q 701 484 689 557 q 712 324 712 434 l 180 324 q 232 147 183 214 q 383 80 281 80 q 536 143 479 80 q 582 228 568 180 l 702 228 q 670 139 697 188 q 610 58 644 90 q 473 -15 555 4 q 373 -26 429 -26 q 143 73 237 -26 q 49 349 49 172 q 144 633 49 524 q 392 743 239 743 m 587 421 q 552 548 579 500 q 385 636 502 636 q 243 575 300 636 q 183 421 186 515 l 587 421 m 380 744 m 462 1019 l 600 823 l 489 823 l 397 953 l 306 823 l 195 823 l 333 1019 l 462 1019 z "},"ë":{"ha":772,"x_min":49,"x_max":712,"o":"m 392 743 q 542 706 469 743 q 652 612 614 670 q 701 484 689 557 q 712 324 712 434 l 180 324 q 232 147 183 214 q 383 80 281 80 q 536 143 479 80 q 582 228 568 180 l 702 228 q 670 139 697 188 q 610 58 644 90 q 473 -15 555 4 q 373 -26 429 -26 q 143 73 237 -26 q 49 349 49 172 q 144 633 49 524 q 392 743 239 743 m 587 421 q 552 548 579 500 q 385 636 502 636 q 243 575 300 636 q 183 421 186 515 l 587 421 m 380 744 m 444 980 l 571 980 l 571 839 l 444 839 l 444 980 m 220 980 l 347 980 l 347 839 l 220 839 l 220 980 z "},"ì":{"ha":386,"x_min":5,"x_max":280,"o":"m 128 723 l 252 723 l 252 0 l 128 0 l 128 723 m 191 744 m 280 823 l 187 823 l 5 1019 l 157 1019 l 280 823 z "},"í":{"ha":386,"x_min":70,"x_max":345,"o":"m 128 723 l 252 723 l 252 0 l 128 0 l 128 723 m 191 744 m 345 1019 l 163 823 l 70 823 l 194 1019 l 345 1019 z "},"î":{"ha":386,"x_min":0,"x_max":405,"o":"m 128 723 l 252 723 l 252 0 l 128 0 l 128 723 m 191 744 m 267 1019 l 405 823 l 294 823 l 202 953 l 111 823 l 0 823 l 138 1019 l 267 1019 z "},"ï":{"ha":386,"x_min":25,"x_max":376,"o":"m 128 723 l 252 723 l 252 0 l 128 0 l 128 723 m 191 744 m 249 980 l 376 980 l 376 839 l 249 839 l 249 980 m 25 980 l 152 980 l 152 839 l 25 839 l 25 980 z "},"ð":{"ha":772,"x_min":41,"x_max":720,"o":"m 387 81 q 530 157 471 81 q 589 373 589 232 q 538 567 589 493 q 377 642 486 642 q 230 569 289 642 q 172 366 172 496 q 199 199 172 262 q 387 81 249 81 m 355 730 q 437 721 405 730 q 493 696 467 713 q 417 795 454 756 q 305 903 380 833 l 196 827 l 142 873 l 254 951 l 153 1035 l 242 1101 q 293 1061 271 1078 q 350 1014 315 1044 l 452 1085 l 503 1040 l 400 967 q 630 696 556 820 q 720 377 720 544 q 629 92 720 209 q 370 -25 539 -25 q 125 82 209 -25 q 41 356 41 189 q 132 632 41 534 q 355 730 222 730 z "},"ñ":{"ha":772,"x_min":90,"x_max":682,"o":"m 90 726 l 205 726 l 205 623 q 315 715 257 687 q 443 743 372 743 q 652 635 597 743 q 682 466 682 576 l 682 0 l 557 0 l 557 458 q 538 565 557 524 q 420 633 505 633 q 349 624 376 633 q 260 564 298 609 q 221 490 230 528 q 212 380 212 452 l 212 0 l 90 0 l 90 726 m 376 744 m 448 951 q 483 939 467 943 q 515 934 498 934 q 569 958 553 934 q 581 996 578 970 l 652 996 q 598 878 638 910 q 509 845 557 845 q 471 850 494 845 q 431 863 448 856 l 395 876 q 343 893 363 887 q 304 899 323 899 q 265 883 280 899 q 244 836 250 867 l 178 836 q 207 923 186 889 q 321 985 245 985 q 373 979 345 985 q 448 951 401 972 z "},"ò":{"ha":772,"x_min":40,"x_max":717,"o":"m 378 79 q 544 171 499 79 q 589 375 589 262 q 557 541 589 477 q 379 641 505 641 q 216 555 267 641 q 165 349 165 470 q 216 156 165 233 q 378 79 267 79 m 382 747 q 620 654 523 747 q 717 378 717 560 q 631 88 717 203 q 366 -26 546 -26 q 128 75 216 -26 q 40 347 40 176 q 133 639 40 530 q 382 747 226 747 m 378 744 m 460 823 l 367 823 l 185 1019 l 336 1019 l 460 823 z "},"ó":{"ha":772,"x_min":40,"x_max":717,"o":"m 378 79 q 544 171 499 79 q 589 375 589 262 q 557 541 589 477 q 379 641 505 641 q 216 555 267 641 q 165 349 165 470 q 216 156 165 233 q 378 79 267 79 m 382 747 q 620 654 523 747 q 717 378 717 560 q 631 88 717 203 q 366 -26 546 -26 q 128 75 216 -26 q 40 347 40 176 q 133 639 40 530 q 382 747 226 747 m 378 744 m 524 1019 l 343 823 l 250 823 l 374 1019 l 524 1019 z "},"ô":{"ha":772,"x_min":40,"x_max":717,"o":"m 378 79 q 544 171 499 79 q 589 375 589 262 q 557 541 589 477 q 379 641 505 641 q 216 555 267 641 q 165 349 165 470 q 216 156 165 233 q 378 79 267 79 m 382 747 q 620 654 523 747 q 717 378 717 560 q 631 88 717 203 q 366 -26 546 -26 q 128 75 216 -26 q 40 347 40 176 q 133 639 40 530 q 382 747 226 747 m 378 744 m 453 1019 l 591 823 l 480 823 l 389 953 l 297 823 l 186 823 l 324 1019 l 453 1019 z "},"õ":{"ha":772,"x_min":40,"x_max":717,"o":"m 378 79 q 544 171 499 79 q 589 375 589 262 q 557 541 589 477 q 379 641 505 641 q 216 555 267 641 q 165 349 165 470 q 216 156 165 233 q 378 79 267 79 m 382 747 q 620 654 523 747 q 717 378 717 560 q 631 88 717 203 q 366 -26 546 -26 q 128 75 216 -26 q 40 347 40 176 q 133 639 40 530 q 382 747 226 747 m 378 744 m 423 951 q 458 939 442 943 q 490 934 473 934 q 544 958 528 934 q 556 996 553 970 l 627 996 q 573 878 613 910 q 484 845 532 845 q 446 850 469 845 q 406 863 423 856 l 370 876 q 318 893 338 887 q 279 899 298 899 q 240 883 255 899 q 219 836 224 867 l 153 836 q 182 923 161 889 q 296 985 220 985 q 348 979 319 985 q 423 951 376 972 z "},"ö":{"ha":772,"x_min":40,"x_max":717,"o":"m 378 79 q 544 171 499 79 q 589 375 589 262 q 557 541 589 477 q 379 641 505 641 q 216 555 267 641 q 165 349 165 470 q 216 156 165 233 q 378 79 267 79 m 382 747 q 620 654 523 747 q 717 378 717 560 q 631 88 717 203 q 366 -26 546 -26 q 128 75 216 -26 q 40 347 40 176 q 133 639 40 530 q 382 747 226 747 m 378 744 m 435 980 l 562 980 l 562 839 l 435 839 l 435 980 m 212 980 l 338 980 l 338 839 l 212 839 l 212 980 z "},"÷":{"ha":762,"x_min":62,"x_max":770,"o":"m 345 14 l 345 163 l 488 163 l 488 14 l 345 14 m 770 411 l 770 297 l 62 297 l 62 411 l 770 411 m 488 694 l 488 545 l 345 545 l 345 694 l 488 694 z "},"ø":{"ha":848,"x_min":62,"x_max":771,"o":"m 574 572 q 513 621 555 601 q 419 641 471 641 q 261 558 321 641 q 202 347 202 476 q 212 253 202 298 q 233 189 218 228 l 574 572 m 263 144 q 335 92 296 106 q 414 79 374 79 q 595 199 542 79 q 628 366 628 272 q 618 471 628 427 q 600 527 612 495 l 263 144 m 62 3 l 149 94 q 97 207 115 144 q 79 355 79 269 q 164 628 79 509 q 414 748 250 748 q 564 717 500 748 q 651 657 602 699 l 736 753 l 771 720 l 684 622 q 745 479 727 559 q 757 374 757 427 q 663 86 757 199 q 412 -28 568 -28 q 279 -6 337 -28 q 184 54 220 16 l 102 -33 l 62 3 z "},"ù":{"ha":772,"x_min":87,"x_max":671,"o":"m 212 726 l 212 244 q 229 153 212 189 q 351 88 262 88 q 524 202 478 88 q 549 370 549 263 l 549 726 l 671 726 l 671 0 l 556 0 l 557 107 q 498 37 534 66 q 329 -20 429 -20 q 117 84 174 -20 q 87 233 87 140 l 87 726 l 212 726 m 379 744 m 467 823 l 374 823 l 193 1019 l 344 1019 l 467 823 z "},"ú":{"ha":772,"x_min":87,"x_max":671,"o":"m 212 726 l 212 244 q 229 153 212 189 q 351 88 262 88 q 524 202 478 88 q 549 370 549 263 l 549 726 l 671 726 l 671 0 l 556 0 l 557 107 q 498 37 534 66 q 329 -20 429 -20 q 117 84 174 -20 q 87 233 87 140 l 87 726 l 212 726 m 379 744 m 525 1019 l 344 823 l 250 823 l 374 1019 l 525 1019 z "},"û":{"ha":772,"x_min":87,"x_max":671,"o":"m 212 726 l 212 244 q 229 153 212 189 q 351 88 262 88 q 524 202 478 88 q 549 370 549 263 l 549 726 l 671 726 l 671 0 l 556 0 l 557 107 q 498 37 534 66 q 329 -20 429 -20 q 117 84 174 -20 q 87 233 87 140 l 87 726 l 212 726 m 379 744 m 454 1019 l 592 823 l 481 823 l 389 953 l 298 823 l 187 823 l 325 1019 l 454 1019 z "},"ü":{"ha":772,"x_min":87,"x_max":671,"o":"m 212 726 l 212 244 q 229 153 212 189 q 351 88 262 88 q 524 202 478 88 q 549 370 549 263 l 549 726 l 671 726 l 671 0 l 556 0 l 557 107 q 498 37 534 66 q 329 -20 429 -20 q 117 84 174 -20 q 87 233 87 140 l 87 726 l 212 726 m 379 744 m 436 980 l 563 980 l 563 839 l 436 839 l 436 980 m 212 980 l 339 980 l 339 839 l 212 839 l 212 980 z "},"ý":{"ha":694,"x_min":14,"x_max":678,"o":"m 543 726 l 678 726 q 564 408 652 656 q 452 102 497 220 q 303 -237 347 -176 q 154 -298 260 -298 q 114 -296 128 -298 q 80 -288 100 -294 l 80 -177 q 126 -188 112 -186 q 151 -190 140 -190 q 201 -179 185 -190 q 228 -151 217 -168 q 252 -96 231 -146 q 283 -21 273 -45 l 14 726 l 153 726 l 347 135 l 543 726 m 347 744 m 519 1016 l 338 820 l 244 820 l 368 1016 l 519 1016 z "},"þ":{"ha":772,"x_min":87,"x_max":722,"o":"m 400 75 q 543 149 490 75 q 596 354 596 222 q 572 507 596 445 q 399 625 525 625 q 262 563 323 625 q 202 366 202 500 q 227 189 202 250 q 400 75 272 75 m 202 617 q 275 692 241 669 q 422 734 336 734 q 643 632 564 734 q 722 367 722 530 q 629 65 722 162 q 407 -31 535 -31 q 261 11 318 -31 q 205 74 230 34 l 205 -296 l 87 -296 l 87 987 l 202 987 l 202 617 z "},"ÿ":{"ha":694,"x_min":14,"x_max":678,"o":"m 543 726 l 678 726 q 564 408 652 656 q 452 102 497 220 q 303 -237 347 -176 q 154 -298 260 -298 q 114 -296 128 -298 q 80 -288 100 -294 l 80 -177 q 126 -188 112 -186 q 151 -190 140 -190 q 201 -179 185 -190 q 228 -151 217 -168 q 252 -96 231 -146 q 283 -21 273 -45 l 14 726 l 153 726 l 347 135 l 543 726 m 347 744 m 404 980 l 530 980 l 530 839 l 404 839 l 404 980 m 180 980 l 307 980 l 307 839 l 180 839 l 180 980 z "},"Ā":{"ha":926,"x_min":20,"x_max":909,"o":"m 617 408 l 466 848 l 305 408 l 617 408 m 395 996 l 548 996 l 909 0 l 762 0 l 661 298 l 267 298 l 159 0 l 20 0 l 395 996 m 465 996 m 258 1145 l 692 1145 l 692 1065 l 258 1065 l 258 1145 z "},"ā":{"ha":772,"x_min":56,"x_max":743,"o":"m 183 193 q 222 110 183 140 q 313 79 260 79 q 438 109 378 79 q 540 271 540 159 l 540 370 q 482 346 517 355 q 413 332 447 336 l 339 323 q 239 295 273 314 q 183 193 183 263 m 479 440 q 535 475 521 446 q 543 522 543 492 q 499 613 543 585 q 372 641 454 641 q 236 589 276 641 q 207 505 214 561 l 93 505 q 180 691 96 639 q 374 744 264 744 q 583 695 503 744 q 662 543 662 646 l 662 125 q 670 94 662 106 q 703 83 677 83 q 721 84 711 83 q 743 87 731 85 l 743 -3 q 699 -14 714 -12 q 659 -16 684 -16 q 567 29 595 -16 q 546 96 552 53 q 439 12 509 47 q 285 -24 369 -24 q 120 37 184 -24 q 56 191 56 98 q 119 347 56 292 q 284 416 182 403 l 479 440 m 378 744 m 157 911 l 591 911 l 591 831 l 157 831 l 157 911 z "},"Ă":{"ha":926,"x_min":20,"x_max":909,"o":"m 339 1272 q 371 1206 350 1228 q 489 1166 409 1166 q 600 1206 563 1166 q 631 1272 621 1229 l 699 1272 q 628 1128 685 1173 q 475 1084 572 1084 q 303 1165 355 1084 q 270 1272 276 1207 l 339 1272 m 617 408 l 466 848 l 305 408 l 617 408 m 395 996 l 548 996 l 909 0 l 762 0 l 661 298 l 267 298 l 159 0 l 20 0 l 395 996 z "},"ă":{"ha":772,"x_min":56,"x_max":743,"o":"m 233 1020 q 265 954 244 976 q 383 913 303 913 q 494 954 457 913 q 526 1020 515 977 l 593 1020 q 523 876 579 920 q 370 832 466 832 q 197 913 250 832 q 164 1020 170 955 l 233 1020 m 313 79 q 438 109 378 79 q 540 271 540 159 l 540 370 q 482 346 517 355 q 413 332 447 336 l 339 323 q 239 295 273 314 q 183 193 183 263 q 222 110 183 140 q 313 79 260 79 m 479 440 q 535 475 521 446 q 543 522 543 492 q 499 613 543 585 q 372 641 454 641 q 236 589 276 641 q 207 505 214 561 l 93 505 q 180 691 96 639 q 374 744 264 744 q 583 695 503 744 q 662 543 662 646 l 662 125 q 670 94 662 106 q 703 83 677 83 q 721 84 711 83 q 743 87 731 85 l 743 -3 q 699 -14 714 -12 q 659 -16 684 -16 q 567 29 595 -16 q 546 96 552 53 q 439 12 509 47 q 285 -24 369 -24 q 120 37 184 -24 q 56 191 56 98 q 119 347 56 292 q 284 416 182 403 l 479 440 z "},"Ą":{"ha":926,"x_min":20,"x_max":919,"o":"m 617 408 l 466 848 l 305 408 l 617 408 m 395 996 l 548 996 l 909 0 l 762 0 l 661 298 l 267 298 l 159 0 l 20 0 l 395 996 m 465 996 m 911 0 l 871 -33 q 807 -95 821 -73 q 793 -142 793 -116 q 811 -186 793 -168 q 864 -204 829 -204 q 894 -201 882 -204 q 919 -190 905 -197 l 919 -279 q 879 -293 897 -288 q 810 -302 845 -302 q 710 -264 745 -302 q 675 -178 675 -226 q 714 -79 675 -123 q 811 0 745 -44 l 911 0 z "},"ą":{"ha":772,"x_min":56,"x_max":752,"o":"m 183 193 q 222 110 183 140 q 313 79 260 79 q 438 109 378 79 q 540 271 540 159 l 540 370 q 482 346 517 355 q 413 332 447 336 l 339 323 q 239 295 273 314 q 183 193 183 263 m 479 440 q 535 475 521 446 q 543 522 543 492 q 499 613 543 585 q 372 641 454 641 q 236 589 276 641 q 207 505 214 561 l 93 505 q 180 691 96 639 q 374 744 264 744 q 583 695 503 744 q 662 543 662 646 l 662 125 q 670 94 662 106 q 703 83 677 83 q 721 84 711 83 q 743 87 731 85 l 743 -3 q 699 -14 714 -12 q 659 -16 684 -16 q 567 29 595 -16 q 546 96 552 53 q 439 12 509 47 q 285 -24 369 -24 q 120 37 184 -24 q 56 191 56 98 q 119 347 56 292 q 284 416 182 403 l 479 440 m 378 744 m 744 3 l 705 -30 q 641 -92 654 -71 q 627 -140 627 -113 q 645 -183 627 -165 q 697 -201 663 -201 q 727 -198 715 -201 q 752 -187 739 -195 l 752 -276 q 712 -290 730 -286 q 643 -299 678 -299 q 543 -261 578 -299 q 508 -176 508 -223 q 547 -77 508 -121 q 644 3 578 -41 l 744 3 z "},"Ć":{"ha":1003,"x_min":61,"x_max":945,"o":"m 526 1023 q 819 924 715 1023 q 935 697 924 824 l 804 697 q 714 850 781 793 q 527 906 648 906 q 289 803 380 906 q 199 486 199 699 q 280 202 199 311 q 524 93 362 93 q 751 208 673 93 q 813 366 793 268 l 945 366 q 828 102 927 209 q 508 -26 709 -26 q 216 79 334 -26 q 61 509 61 218 q 178 870 61 729 q 526 1023 304 1023 m 498 1023 m 696 1304 l 515 1108 l 422 1108 l 546 1304 l 696 1304 z "},"ć":{"ha":694,"x_min":40,"x_max":662,"o":"m 370 747 q 569 688 492 747 q 662 482 646 628 l 543 482 q 494 594 532 549 q 370 638 455 638 q 203 524 253 638 q 170 342 170 450 q 216 158 170 233 q 361 83 262 83 q 482 130 437 83 q 543 257 526 176 l 662 257 q 560 46 642 113 q 352 -21 479 -21 q 125 83 210 -21 q 40 343 40 187 q 133 641 40 534 q 370 747 226 747 m 351 744 m 536 1029 l 355 833 l 261 833 l 385 1029 l 536 1029 z "},"Ĉ":{"ha":1003,"x_min":61,"x_max":945,"o":"m 526 1023 q 819 924 715 1023 q 935 697 924 824 l 804 697 q 714 850 781 793 q 527 906 648 906 q 289 803 380 906 q 199 486 199 699 q 280 202 199 311 q 524 93 362 93 q 751 208 673 93 q 813 366 793 268 l 945 366 q 828 102 927 209 q 508 -26 709 -26 q 216 79 334 -26 q 61 509 61 218 q 178 870 61 729 q 526 1023 304 1023 m 498 1023 m 594 1293 l 732 1097 l 621 1097 l 530 1227 l 438 1097 l 328 1097 l 465 1293 l 594 1293 z "},"ĉ":{"ha":694,"x_min":40,"x_max":662,"o":"m 370 747 q 569 688 492 747 q 662 482 646 628 l 543 482 q 494 594 532 549 q 370 638 455 638 q 203 524 253 638 q 170 342 170 450 q 216 158 170 233 q 361 83 262 83 q 482 130 437 83 q 543 257 526 176 l 662 257 q 560 46 642 113 q 352 -21 479 -21 q 125 83 210 -21 q 40 343 40 187 q 133 641 40 534 q 370 747 226 747 m 351 744 m 453 1010 l 591 814 l 480 814 l 389 945 l 297 814 l 186 814 l 324 1010 l 453 1010 z "},"Ċ":{"ha":1003,"x_min":61,"x_max":945,"o":"m 526 1023 q 819 924 715 1023 q 935 697 924 824 l 804 697 q 714 850 781 793 q 527 906 648 906 q 289 803 380 906 q 199 486 199 699 q 280 202 199 311 q 524 93 362 93 q 751 208 673 93 q 813 366 793 268 l 945 366 q 828 102 927 209 q 508 -26 709 -26 q 216 79 334 -26 q 61 509 61 218 q 178 870 61 729 q 526 1023 304 1023 m 498 1023 m 465 1276 l 592 1276 l 592 1135 l 465 1135 l 465 1276 z "},"ċ":{"ha":694,"x_min":40,"x_max":662,"o":"m 370 747 q 569 688 492 747 q 662 482 646 628 l 543 482 q 494 594 532 549 q 370 638 455 638 q 203 524 253 638 q 170 342 170 450 q 216 158 170 233 q 361 83 262 83 q 482 130 437 83 q 543 257 526 176 l 662 257 q 560 46 642 113 q 352 -21 479 -21 q 125 83 210 -21 q 40 343 40 187 q 133 641 40 534 q 370 747 226 747 m 351 744 m 314 989 l 441 989 l 441 848 l 314 848 l 314 989 z "},"Č":{"ha":1003,"x_min":61,"x_max":945,"o":"m 526 1023 q 819 924 715 1023 q 935 697 924 824 l 804 697 q 714 850 781 793 q 527 906 648 906 q 289 803 380 906 q 199 486 199 699 q 280 202 199 311 q 524 93 362 93 q 751 208 673 93 q 813 366 793 268 l 945 366 q 828 102 927 209 q 508 -26 709 -26 q 216 79 334 -26 q 61 509 61 218 q 178 870 61 729 q 526 1023 304 1023 m 498 1023 m 579 1102 l 450 1102 l 313 1298 l 423 1298 l 515 1168 l 606 1298 l 718 1298 l 579 1102 z "},"č":{"ha":694,"x_min":40,"x_max":662,"o":"m 370 747 q 569 688 492 747 q 662 482 646 628 l 543 482 q 494 594 532 549 q 370 638 455 638 q 203 524 253 638 q 170 342 170 450 q 216 158 170 233 q 361 83 262 83 q 482 130 437 83 q 543 257 526 176 l 662 257 q 560 46 642 113 q 352 -21 479 -21 q 125 83 210 -21 q 40 343 40 187 q 133 641 40 534 q 370 747 226 747 m 351 744 m 431 823 l 302 823 l 165 1019 l 275 1019 l 367 888 l 458 1019 l 570 1019 l 431 823 z "},"Ď":{"ha":1003,"x_min":112,"x_max":935,"o":"m 488 115 q 601 130 557 115 q 730 231 680 156 q 787 386 770 292 q 798 490 798 442 q 724 778 798 675 q 487 880 650 880 l 248 880 l 248 115 l 488 115 m 112 996 l 515 996 q 834 850 721 996 q 935 513 935 719 q 876 227 935 355 q 514 0 770 0 l 112 0 l 112 996 m 574 1072 l 445 1072 l 307 1268 l 418 1268 l 509 1138 l 601 1268 l 712 1268 l 574 1072 z "},"ď":{"ha":917,"x_min":38,"x_max":896,"o":"m 751 922 q 817 987 798 930 q 827 1046 827 1018 q 826 1055 827 1051 q 825 1063 826 1059 l 751 1063 l 751 1211 l 896 1211 l 896 1074 q 863 932 896 994 q 751 857 831 871 l 751 922 m 375 81 q 514 154 460 81 q 569 363 569 227 q 513 567 569 500 q 374 633 456 633 q 224 562 281 633 q 167 355 167 492 q 216 159 167 238 q 375 81 266 81 m 490 704 q 564 633 523 684 l 564 1000 l 682 1000 l 682 0 l 572 0 l 572 101 q 471 4 529 34 q 337 -26 412 -26 q 127 76 216 -26 q 38 348 38 178 q 119 623 38 507 q 351 739 200 739 q 490 704 434 739 z "},"Đ":{"ha":1003,"x_min":22,"x_max":935,"o":"m 22 587 l 112 587 l 112 996 l 493 996 q 853 826 741 996 q 935 515 935 702 q 872 219 935 349 q 514 0 766 0 l 112 0 l 112 466 l 22 466 l 22 587 m 248 587 l 532 587 l 532 466 l 248 466 l 248 115 l 488 115 q 601 130 557 115 q 730 231 680 156 q 787 386 770 292 q 798 490 798 442 q 724 778 798 675 q 487 880 650 880 l 248 880 l 248 587 z "},"đ":{"ha":772,"x_min":38,"x_max":772,"o":"m 167 355 q 216 159 167 238 q 375 81 266 81 q 514 154 460 81 q 569 363 569 227 q 513 567 569 500 q 374 633 456 633 q 224 562 281 633 q 167 355 167 492 m 351 739 q 490 704 434 739 q 564 633 523 684 l 564 821 l 338 821 l 338 901 l 564 901 l 564 1000 l 682 1000 l 682 901 l 772 901 l 772 821 l 682 821 l 682 0 l 572 0 l 572 101 q 471 4 529 34 q 337 -26 412 -26 q 127 76 216 -26 q 38 348 38 178 q 119 623 38 507 q 351 739 200 739 z "},"Ē":{"ha":926,"x_min":119,"x_max":855,"o":"m 119 996 l 845 996 l 845 874 l 250 874 l 250 572 l 800 572 l 800 456 l 250 456 l 250 119 l 855 119 l 855 0 l 119 0 l 119 996 m 487 996 m 288 1162 l 722 1162 l 722 1082 l 288 1082 l 288 1162 z "},"ē":{"ha":772,"x_min":49,"x_max":712,"o":"m 392 743 q 542 706 469 743 q 652 612 614 670 q 701 484 689 557 q 712 324 712 434 l 180 324 q 232 147 183 214 q 383 80 281 80 q 536 143 479 80 q 582 228 568 180 l 702 228 q 670 139 697 188 q 610 58 644 90 q 473 -15 555 4 q 373 -26 429 -26 q 143 73 237 -26 q 49 349 49 172 q 144 633 49 524 q 392 743 239 743 m 587 421 q 552 548 579 500 q 385 636 502 636 q 243 575 300 636 q 183 421 186 515 l 587 421 m 380 744 m 181 901 l 615 901 l 615 821 l 181 821 l 181 901 z "},"Ĕ":{"ha":926,"x_min":119,"x_max":855,"o":"m 357 1270 q 389 1203 368 1225 q 507 1163 427 1163 q 617 1203 581 1163 q 649 1270 638 1226 l 716 1270 q 646 1126 703 1170 q 493 1082 589 1082 q 321 1162 373 1082 q 288 1270 294 1204 l 357 1270 m 119 996 l 845 996 l 845 874 l 250 874 l 250 572 l 800 572 l 800 456 l 250 456 l 250 119 l 855 119 l 855 0 l 119 0 l 119 996 z "},"ĕ":{"ha":772,"x_min":49,"x_max":712,"o":"m 252 1013 q 283 947 262 969 q 401 907 321 907 q 512 947 475 907 q 544 1013 533 970 l 611 1013 q 541 869 597 913 q 388 825 484 825 q 216 906 268 825 q 182 1013 189 948 l 252 1013 m 652 612 q 701 484 689 557 q 712 324 712 434 l 180 324 q 232 147 183 214 q 383 80 281 80 q 536 143 479 80 q 582 228 568 180 l 702 228 q 670 139 697 188 q 610 58 644 90 q 473 -15 555 4 q 373 -26 429 -26 q 143 73 237 -26 q 49 349 49 172 q 144 633 49 524 q 392 743 239 743 q 542 706 469 743 q 652 612 614 670 m 587 421 q 552 548 579 500 q 385 636 502 636 q 243 575 300 636 q 183 421 186 515 l 587 421 z "},"Ė":{"ha":926,"x_min":119,"x_max":855,"o":"m 119 996 l 845 996 l 845 874 l 250 874 l 250 572 l 800 572 l 800 456 l 250 456 l 250 119 l 855 119 l 855 0 l 119 0 l 119 996 m 487 996 m 440 1236 l 567 1236 l 567 1095 l 440 1095 l 440 1236 z "},"ė":{"ha":772,"x_min":49,"x_max":712,"o":"m 392 743 q 542 706 469 743 q 652 612 614 670 q 701 484 689 557 q 712 324 712 434 l 180 324 q 232 147 183 214 q 383 80 281 80 q 536 143 479 80 q 582 228 568 180 l 702 228 q 670 139 697 188 q 610 58 644 90 q 473 -15 555 4 q 373 -26 429 -26 q 143 73 237 -26 q 49 349 49 172 q 144 633 49 524 q 392 743 239 743 m 587 421 q 552 548 579 500 q 385 636 502 636 q 243 575 300 636 q 183 421 186 515 l 587 421 m 380 744 m 334 961 l 460 961 l 460 820 l 334 820 l 334 961 z "},"Ę":{"ha":926,"x_min":119,"x_max":855,"o":"m 119 996 l 845 996 l 845 874 l 250 874 l 250 572 l 800 572 l 800 456 l 250 456 l 250 119 l 855 119 l 855 0 l 119 0 l 119 996 m 487 996 m 678 0 l 639 -33 q 575 -95 589 -73 q 561 -142 561 -116 q 579 -186 561 -168 q 631 -204 597 -204 q 661 -201 650 -204 q 686 -190 673 -197 l 686 -279 q 646 -293 664 -288 q 577 -302 612 -302 q 477 -264 512 -302 q 442 -178 442 -226 q 481 -79 442 -123 q 578 0 513 -44 l 678 0 z "},"ę":{"ha":772,"x_min":49,"x_max":712,"o":"m 392 743 q 542 706 469 743 q 652 612 614 670 q 701 484 689 557 q 712 324 712 434 l 180 324 q 232 147 183 214 q 383 80 281 80 q 536 143 479 80 q 582 228 568 180 l 702 228 q 670 139 697 188 q 610 58 644 90 q 473 -15 555 4 q 373 -26 429 -26 q 143 73 237 -26 q 49 349 49 172 q 144 633 49 524 q 392 743 239 743 m 587 421 q 552 548 579 500 q 385 636 502 636 q 243 575 300 636 q 183 421 186 515 l 587 421 m 380 744 m 473 -11 l 434 -43 q 370 -105 384 -84 q 356 -153 356 -127 q 374 -197 356 -178 q 427 -215 392 -215 q 456 -212 445 -215 q 481 -201 468 -208 l 481 -290 q 441 -304 459 -299 q 372 -313 408 -313 q 272 -275 307 -313 q 237 -189 237 -237 q 277 -90 237 -134 q 374 -11 308 -55 l 473 -11 z "},"Ě":{"ha":926,"x_min":119,"x_max":855,"o":"m 119 996 l 845 996 l 845 874 l 250 874 l 250 572 l 800 572 l 800 456 l 250 456 l 250 119 l 855 119 l 855 0 l 119 0 l 119 996 m 487 996 m 542 1063 l 413 1063 l 275 1259 l 386 1259 l 477 1128 l 569 1259 l 680 1259 l 542 1063 z "},"ě":{"ha":772,"x_min":49,"x_max":712,"o":"m 392 743 q 542 706 469 743 q 652 612 614 670 q 701 484 689 557 q 712 324 712 434 l 180 324 q 232 147 183 214 q 383 80 281 80 q 536 143 479 80 q 582 228 568 180 l 702 228 q 670 139 697 188 q 610 58 644 90 q 473 -15 555 4 q 373 -26 429 -26 q 143 73 237 -26 q 49 349 49 172 q 144 633 49 524 q 392 743 239 743 m 587 421 q 552 548 579 500 q 385 636 502 636 q 243 575 300 636 q 183 421 186 515 l 587 421 m 380 744 m 450 821 l 321 821 l 183 1017 l 294 1017 l 385 887 l 477 1017 l 588 1017 l 450 821 z "},"Ĝ":{"ha":1080,"x_min":67,"x_max":977,"o":"m 536 1022 q 779 968 677 1022 q 961 694 928 890 l 827 694 q 726 853 803 804 q 533 903 650 903 q 300 800 395 903 q 205 490 205 696 q 283 201 205 313 q 538 90 361 90 q 761 168 673 90 q 852 421 850 246 l 540 421 l 540 533 l 977 533 l 977 0 l 890 0 l 858 128 q 736 24 789 53 q 511 -26 648 -26 q 206 88 334 -26 q 67 483 67 232 q 203 881 67 733 q 536 1022 332 1022 m 514 1023 m 621 1284 l 759 1088 l 648 1088 l 556 1218 l 465 1088 l 354 1088 l 492 1284 l 621 1284 z "},"ĝ":{"ha":772,"x_min":41,"x_max":678,"o":"m 346 739 q 495 697 431 739 q 566 628 530 673 l 566 720 l 678 720 l 678 59 q 637 -159 678 -79 q 351 -307 562 -307 q 153 -255 233 -307 q 64 -90 73 -202 l 188 -90 q 223 -165 197 -139 q 353 -206 264 -206 q 537 -107 494 -206 q 561 101 563 -49 q 473 18 524 45 q 336 -9 421 -9 q 130 75 218 -9 q 41 352 41 159 q 131 637 41 534 q 346 739 220 739 m 566 366 q 510 566 566 501 q 368 631 454 631 q 192 511 239 631 q 167 342 167 446 q 217 155 167 219 q 351 91 267 91 q 536 210 482 91 q 566 366 566 277 m 360 744 m 414 993 l 552 797 l 441 797 l 349 927 l 258 797 l 147 797 l 285 993 l 414 993 z "},"Ğ":{"ha":1080,"x_min":67,"x_max":977,"o":"m 398 1297 q 430 1230 409 1253 q 548 1190 468 1190 q 659 1230 622 1190 q 690 1297 680 1253 l 758 1297 q 687 1153 744 1197 q 534 1109 631 1109 q 362 1190 414 1109 q 329 1297 335 1232 l 398 1297 m 779 968 q 961 694 928 890 l 827 694 q 726 853 803 804 q 533 903 650 903 q 300 800 395 903 q 205 490 205 696 q 283 201 205 313 q 538 90 361 90 q 761 168 673 90 q 852 421 850 246 l 540 421 l 540 533 l 977 533 l 977 0 l 890 0 l 858 128 q 736 24 789 53 q 511 -26 648 -26 q 206 88 334 -26 q 67 483 67 232 q 203 881 67 733 q 536 1022 332 1022 q 779 968 677 1022 z "},"ğ":{"ha":772,"x_min":41,"x_max":678,"o":"m 217 1017 q 249 951 228 973 q 367 911 287 911 q 477 951 441 911 q 509 1017 498 974 l 576 1017 q 506 873 563 918 q 353 829 450 829 q 181 910 233 829 q 148 1017 154 952 l 217 1017 m 495 697 q 566 628 530 673 l 566 720 l 678 720 l 678 59 q 637 -159 678 -79 q 351 -307 562 -307 q 153 -255 233 -307 q 64 -90 73 -202 l 188 -90 q 223 -165 197 -139 q 353 -206 264 -206 q 537 -107 494 -206 q 561 101 563 -49 q 473 18 524 45 q 336 -9 421 -9 q 130 75 218 -9 q 41 352 41 159 q 131 637 41 534 q 346 739 220 739 q 495 697 431 739 m 368 631 q 192 511 239 631 q 167 342 167 446 q 217 155 167 219 q 351 91 267 91 q 536 210 482 91 q 566 366 566 277 q 510 566 566 501 q 368 631 454 631 z "},"Ġ":{"ha":1080,"x_min":67,"x_max":977,"o":"m 536 1022 q 779 968 677 1022 q 961 694 928 890 l 827 694 q 726 853 803 804 q 533 903 650 903 q 300 800 395 903 q 205 490 205 696 q 283 201 205 313 q 538 90 361 90 q 761 168 673 90 q 852 421 850 246 l 540 421 l 540 533 l 977 533 l 977 0 l 890 0 l 858 128 q 736 24 789 53 q 511 -26 648 -26 q 206 88 334 -26 q 67 483 67 232 q 203 881 67 733 q 536 1022 332 1022 m 514 1023 m 472 1256 l 599 1256 l 599 1115 l 472 1115 l 472 1256 z "},"ġ":{"ha":772,"x_min":41,"x_max":678,"o":"m 346 739 q 495 697 431 739 q 566 628 530 673 l 566 720 l 678 720 l 678 59 q 637 -159 678 -79 q 351 -307 562 -307 q 153 -255 233 -307 q 64 -90 73 -202 l 188 -90 q 223 -165 197 -139 q 353 -206 264 -206 q 537 -107 494 -206 q 561 101 563 -49 q 473 18 524 45 q 336 -9 421 -9 q 130 75 218 -9 q 41 352 41 159 q 131 637 41 534 q 346 739 220 739 m 566 366 q 510 566 566 501 q 368 631 454 631 q 192 511 239 631 q 167 342 167 446 q 217 155 167 219 q 351 91 267 91 q 536 210 482 91 q 566 366 566 277 m 360 744 m 281 999 l 408 999 l 408 858 l 281 858 l 281 999 z "},"Ģ":{"ha":1080,"x_min":67,"x_max":977,"o":"m 536 1022 q 779 968 677 1022 q 961 694 928 890 l 827 694 q 726 853 803 804 q 533 903 650 903 q 300 800 395 903 q 205 490 205 696 q 283 201 205 313 q 538 90 361 90 q 761 168 673 90 q 852 421 850 246 l 540 421 l 540 533 l 977 533 l 977 0 l 890 0 l 858 128 q 736 24 789 53 q 511 -26 648 -26 q 206 88 334 -26 q 67 483 67 232 q 203 881 67 733 q 536 1022 332 1022 m 514 1023 m 468 -399 q 534 -333 515 -391 q 544 -274 544 -302 q 544 -266 544 -269 q 542 -257 543 -262 l 468 -257 l 468 -109 l 613 -109 l 613 -246 q 581 -388 613 -327 q 468 -463 548 -449 l 468 -399 z "},"ģ":{"ha":772,"x_min":41,"x_max":678,"o":"m 346 739 q 495 697 431 739 q 566 628 530 673 l 566 720 l 678 720 l 678 59 q 637 -159 678 -79 q 351 -307 562 -307 q 153 -255 233 -307 q 64 -90 73 -202 l 188 -90 q 223 -165 197 -139 q 353 -206 264 -206 q 537 -107 494 -206 q 561 101 563 -49 q 473 18 524 45 q 336 -9 421 -9 q 130 75 218 -9 q 41 352 41 159 q 131 637 41 534 q 346 739 220 739 m 566 366 q 510 566 566 501 q 368 631 454 631 q 192 511 239 631 q 167 342 167 446 q 217 155 167 219 q 351 91 267 91 q 536 210 482 91 q 566 366 566 277 m 360 744 m 450 1133 q 384 1067 403 1125 q 374 1008 374 1037 q 374 1000 374 1004 q 376 991 374 996 l 450 991 l 450 844 l 305 844 l 305 981 q 337 1122 305 1061 q 450 1198 370 1183 l 450 1133 z "},"Ĥ":{"ha":1003,"x_min":109,"x_max":900,"o":"m 109 996 l 245 996 l 245 585 l 764 585 l 764 996 l 900 996 l 900 0 l 764 0 l 764 466 l 245 466 l 245 0 l 109 0 l 109 996 m 582 1235 l 720 1039 l 609 1039 l 517 1169 l 426 1039 l 315 1039 l 453 1235 l 582 1235 z "},"ĥ":{"ha":772,"x_min":90,"x_max":682,"o":"m 90 1000 l 212 1000 l 212 628 q 290 705 255 683 q 437 744 349 744 q 651 633 595 744 q 682 466 682 573 l 682 0 l 556 0 l 556 458 q 536 575 556 538 q 411 635 503 635 q 273 583 335 635 q 212 385 212 530 l 212 0 l 90 0 l 90 1000 m 507 1249 l 645 1053 l 534 1053 l 442 1183 l 351 1053 l 240 1053 l 378 1249 l 507 1249 z "},"Ħ":{"ha":1003,"x_min":36,"x_max":977,"o":"m 36 855 l 109 855 l 109 996 l 245 996 l 245 855 l 764 855 l 764 996 l 900 996 l 900 855 l 977 855 l 977 755 l 900 755 l 900 0 l 764 0 l 764 466 l 245 466 l 245 0 l 109 0 l 109 755 l 36 755 l 36 855 m 764 585 l 764 755 l 245 755 l 245 585 l 764 585 z "},"ħ":{"ha":772,"x_min":42,"x_max":682,"o":"m 90 1000 l 212 1000 l 212 628 q 290 705 255 683 q 437 744 349 744 q 651 633 595 744 q 682 466 682 573 l 682 0 l 556 0 l 556 458 q 536 575 556 538 q 411 635 503 635 q 273 583 335 635 q 212 385 212 530 l 212 0 l 90 0 l 90 1000 m 42 894 l 476 894 l 476 814 l 42 814 l 42 894 z "},"Ĩ":{"ha":618,"x_min":71,"x_max":546,"o":"m 234 1000 l 370 1000 l 370 3 l 234 3 l 234 1000 m 342 1225 q 376 1213 361 1217 q 408 1208 392 1208 q 463 1232 446 1208 q 475 1270 471 1244 l 546 1270 q 491 1152 532 1184 q 403 1119 451 1119 q 365 1124 388 1119 q 324 1137 342 1130 l 288 1149 q 236 1167 256 1161 q 197 1173 216 1173 q 158 1157 174 1173 q 138 1109 143 1141 l 71 1109 q 100 1197 80 1163 q 215 1259 139 1259 q 266 1253 238 1259 q 342 1225 294 1246 z "},"ĩ":{"ha":597,"x_min":46,"x_max":521,"o":"m 209 727 l 333 727 l 333 4 l 209 4 l 209 727 m 271 748 m 317 1021 q 351 1008 336 1013 q 383 1003 367 1003 q 437 1027 421 1003 q 450 1065 446 1040 l 521 1065 q 466 947 507 979 q 378 914 426 914 q 340 920 363 914 q 299 932 317 925 l 263 945 q 211 962 231 956 q 172 968 191 968 q 133 952 149 968 q 113 905 118 937 l 46 905 q 75 992 55 958 q 190 1055 114 1055 q 241 1048 213 1055 q 317 1021 269 1041 z "},"Ī":{"ha":555,"x_min":60,"x_max":494,"o":"m 212 996 l 349 996 l 349 0 l 212 0 l 212 996 m 60 1145 l 494 1145 l 494 1065 l 60 1065 l 60 1145 z "},"ī":{"ha":542,"x_min":68,"x_max":503,"o":"m 213 723 l 337 723 l 337 0 l 213 0 l 213 723 m 275 744 m 68 898 l 503 898 l 503 818 l 68 818 l 68 898 z "},"Ĭ":{"ha":386,"x_min":-3,"x_max":425,"o":"m 136 996 l 273 996 l 273 0 l 136 0 l 136 996 m 66 1287 q 98 1221 77 1243 q 216 1181 136 1181 q 326 1221 290 1181 q 358 1287 347 1244 l 425 1287 q 355 1143 412 1187 q 202 1099 298 1099 q 30 1180 82 1099 q -3 1287 3 1222 l 66 1287 z "},"ĭ":{"ha":386,"x_min":-3,"x_max":425,"o":"m 128 723 l 252 723 l 252 0 l 128 0 l 128 723 m 191 744 m 66 1017 q 98 951 77 973 q 216 911 136 911 q 326 951 290 911 q 358 1017 347 974 l 425 1017 q 355 873 412 918 q 202 829 298 829 q 30 910 82 829 q -3 1017 3 952 l 66 1017 z "},"Į":{"ha":386,"x_min":36,"x_max":280,"o":"m 127 996 l 264 996 l 264 0 l 127 0 l 127 996 m 272 0 l 233 -33 q 169 -95 182 -73 q 155 -142 155 -116 q 173 -186 155 -168 q 225 -204 191 -204 q 255 -201 243 -204 q 280 -190 267 -197 l 280 -279 q 240 -293 258 -288 q 171 -302 206 -302 q 71 -264 106 -302 q 36 -178 36 -226 q 75 -79 36 -123 q 172 0 106 -44 l 272 0 z "},"į":{"ha":309,"x_min":-22,"x_max":222,"o":"m 90 723 l 214 723 l 214 0 l 90 0 l 90 723 m 90 996 l 214 996 l 214 858 l 90 858 l 90 996 m 214 7 l 174 -26 q 110 -88 124 -66 q 96 -136 96 -109 q 114 -179 96 -161 q 167 -197 132 -197 q 197 -194 185 -197 q 222 -183 208 -191 l 222 -272 q 182 -286 199 -281 q 113 -295 148 -295 q 13 -257 47 -295 q -22 -172 -22 -219 q 17 -73 -22 -117 q 114 7 48 -37 l 214 7 z "},"İ":{"ha":386,"x_min":136,"x_max":273,"o":"m 136 996 l 273 996 l 273 0 l 136 0 l 136 996 m 139 1230 l 266 1230 l 266 1089 l 139 1089 l 139 1230 z "},"ı":{"ha":386,"x_min":128,"x_max":252,"o":"m 128 723 l 252 723 l 252 0 l 128 0 l 128 723 m 191 744 z "},"Ĳ":{"ha":1080,"x_min":136,"x_max":981,"o":"m 136 996 l 273 996 l 273 0 l 136 0 l 136 996 m 981 297 q 943 101 981 171 q 680 -26 874 -26 q 489 34 568 -26 q 410 250 410 95 l 410 321 l 536 321 l 536 250 q 573 128 536 169 q 686 87 609 87 q 827 161 793 87 q 847 332 847 206 l 847 996 l 981 996 l 981 297 z "},"ĳ":{"ha":617,"x_min":90,"x_max":520,"o":"m 90 723 l 214 723 l 214 0 l 90 0 l 90 723 m 90 996 l 214 996 l 214 858 l 90 858 l 90 996 m 520 855 l 398 855 l 398 996 l 520 996 l 520 855 m 283 -184 q 381 -169 365 -181 q 398 -95 398 -157 l 398 723 l 520 723 l 520 -108 q 494 -227 520 -187 q 332 -293 452 -293 q 314 -292 323 -293 q 283 -290 304 -292 l 283 -184 z "},"Ĵ":{"ha":694,"x_min":24,"x_max":731,"o":"m 595 297 q 557 101 595 171 q 294 -26 488 -26 q 103 34 182 -26 q 24 250 24 95 l 24 321 l 151 321 l 151 250 q 187 128 151 169 q 300 87 223 87 q 441 161 408 87 q 461 332 461 206 l 461 996 l 595 996 l 595 297 m 593 1248 l 731 1052 l 620 1052 l 528 1182 l 437 1052 l 326 1052 l 464 1248 l 593 1248 z "},"ĵ":{"ha":309,"x_min":-63,"x_max":342,"o":"m -26 -184 q 73 -169 56 -181 q 90 -95 90 -157 l 90 723 l 212 723 l 212 -108 q 186 -227 212 -187 q 24 -293 143 -293 q 5 -292 15 -293 q -26 -290 -5 -292 l -26 -184 m 203 1012 l 342 816 l 231 816 l 139 946 l 47 816 l -63 816 l 75 1012 l 203 1012 z "},"Ķ":{"ha":926,"x_min":106,"x_max":921,"o":"m 106 996 l 237 996 l 237 511 l 723 996 l 909 996 l 495 595 l 921 0 l 745 0 l 397 500 l 237 347 l 237 0 l 106 0 l 106 996 m 353 -351 q 418 -286 399 -343 q 429 -227 429 -255 q 428 -218 429 -222 q 427 -210 428 -214 l 353 -210 l 353 -62 l 498 -62 l 498 -199 q 465 -340 498 -279 q 353 -416 433 -401 l 353 -351 z "},"ķ":{"ha":694,"x_min":87,"x_max":689,"o":"m 87 996 l 204 996 l 204 418 l 517 726 l 673 726 l 395 454 l 689 0 l 533 0 l 307 366 l 204 273 l 204 0 l 87 0 l 87 996 m 285 -358 q 351 -292 332 -350 q 361 -233 361 -262 q 360 -225 361 -229 q 359 -216 360 -221 l 285 -216 l 285 -68 l 430 -68 l 430 -205 q 397 -347 430 -286 q 285 -422 365 -408 l 285 -358 z "},"ĸ":{"ha":694,"x_min":87,"x_max":689,"o":"m 87 726 l 204 726 l 204 418 l 517 726 l 673 726 l 395 454 l 689 0 l 533 0 l 307 366 l 204 273 l 204 0 l 87 0 l 87 726 z "},"Ĺ":{"ha":772,"x_min":106,"x_max":745,"o":"m 106 996 l 241 996 l 241 119 l 745 119 l 745 0 l 106 0 l 106 996 m 397 1238 l 216 1042 l 122 1042 l 246 1238 l 397 1238 z "},"ĺ":{"ha":368,"x_min":89,"x_max":363,"o":"m 93 996 l 215 996 l 215 0 l 93 0 l 93 996 m 363 1234 l 182 1038 l 89 1038 l 213 1234 l 363 1234 z "},"Ļ":{"ha":772,"x_min":106,"x_max":745,"o":"m 106 996 l 241 996 l 241 119 l 745 119 l 745 0 l 106 0 l 106 996 m 353 -365 q 418 -299 399 -357 q 429 -240 429 -269 q 428 -232 429 -235 q 427 -223 428 -228 l 353 -223 l 353 -75 l 498 -75 l 498 -212 q 465 -354 498 -293 q 353 -429 433 -415 l 353 -365 z "},"ļ":{"ha":309,"x_min":93,"x_max":241,"o":"m 93 996 l 215 996 l 215 0 l 93 0 l 93 996 m 96 -365 q 162 -299 143 -357 q 172 -240 172 -269 q 172 -232 172 -235 q 170 -223 172 -228 l 96 -223 l 96 -75 l 241 -75 l 241 -212 q 209 -354 241 -293 q 96 -429 176 -415 l 96 -365 z "},"Ľ":{"ha":772,"x_min":106,"x_max":745,"o":"m 551 707 q 616 772 597 715 q 627 831 627 803 q 626 840 627 836 q 625 848 626 844 l 551 848 l 551 996 l 696 996 l 696 859 q 663 718 696 779 q 551 642 631 656 l 551 707 m 106 996 l 241 996 l 241 119 l 745 119 l 745 0 l 106 0 l 106 996 z "},"ľ":{"ha":365,"x_min":53,"x_max":387,"o":"m 283 996 l 387 996 l 387 621 l 283 621 l 283 996 m 53 996 l 175 996 l 175 0 l 53 0 l 53 996 z "},"Ŀ":{"ha":772,"x_min":106,"x_max":745,"o":"m 106 996 l 241 996 l 241 119 l 745 119 l 745 0 l 106 0 l 106 996 m 409 602 l 536 602 l 536 460 l 409 460 l 409 602 z "},"ŀ":{"ha":431,"x_min":93,"x_max":427,"o":"m 93 996 l 215 996 l 215 0 l 93 0 l 93 996 m 300 624 l 427 624 l 427 483 l 300 483 l 300 624 z "},"Ł":{"ha":772,"x_min":-16,"x_max":745,"o":"m -16 329 l -16 432 l 106 508 l 106 996 l 241 996 l 241 588 l 459 722 l 459 615 l 241 482 l 241 119 l 745 119 l 745 0 l 106 0 l 106 403 l -16 329 z "},"ł":{"ha":309,"x_min":-28,"x_max":336,"o":"m 215 0 l 93 0 l 93 416 l -28 344 l -28 435 l 93 511 l 93 996 l 215 996 l 215 587 l 336 661 l 336 569 l 215 495 l 215 0 z "},"Ń":{"ha":1003,"x_min":106,"x_max":897,"o":"m 106 996 l 265 996 l 768 189 l 768 996 l 897 996 l 897 0 l 745 0 l 235 806 l 235 0 l 106 0 l 106 996 m 492 996 m 718 1232 l 536 1036 l 443 1036 l 567 1232 l 718 1232 z "},"ń":{"ha":772,"x_min":90,"x_max":682,"o":"m 90 726 l 205 726 l 205 623 q 315 715 257 687 q 443 743 372 743 q 652 635 597 743 q 682 466 682 576 l 682 0 l 557 0 l 557 458 q 538 565 557 524 q 420 633 505 633 q 349 624 376 633 q 260 564 298 609 q 221 490 230 528 q 212 380 212 452 l 212 0 l 90 0 l 90 726 m 376 744 m 616 1008 l 435 812 l 342 812 l 466 1008 l 616 1008 z "},"Ņ":{"ha":1003,"x_min":106,"x_max":897,"o":"m 106 996 l 265 996 l 768 189 l 768 996 l 897 996 l 897 0 l 745 0 l 235 806 l 235 0 l 106 0 l 106 996 m 492 996 m 399 -372 q 465 -306 446 -363 q 475 -247 475 -275 q 474 -238 475 -242 q 473 -230 474 -235 l 399 -230 l 399 -82 l 544 -82 l 544 -219 q 511 -361 544 -300 q 399 -436 479 -422 l 399 -372 z "},"ņ":{"ha":772,"x_min":90,"x_max":682,"o":"m 90 726 l 205 726 l 205 623 q 315 715 257 687 q 443 743 372 743 q 652 635 597 743 q 682 466 682 576 l 682 0 l 557 0 l 557 458 q 538 565 557 524 q 420 633 505 633 q 349 624 376 633 q 260 564 298 609 q 221 490 230 528 q 212 380 212 452 l 212 0 l 90 0 l 90 726 m 376 744 m 305 -358 q 371 -292 352 -350 q 381 -233 381 -262 q 381 -225 381 -229 q 379 -216 380 -221 l 305 -216 l 305 -68 l 450 -68 l 450 -205 q 418 -347 450 -286 q 305 -422 385 -408 l 305 -358 z "},"Ň":{"ha":1003,"x_min":106,"x_max":897,"o":"m 106 996 l 265 996 l 768 189 l 768 996 l 897 996 l 897 0 l 745 0 l 235 806 l 235 0 l 106 0 l 106 996 m 492 996 m 575 1043 l 446 1043 l 309 1239 l 419 1239 l 511 1109 l 602 1239 l 713 1239 l 575 1043 z "},"ň":{"ha":772,"x_min":90,"x_max":682,"o":"m 90 726 l 205 726 l 205 623 q 315 715 257 687 q 443 743 372 743 q 652 635 597 743 q 682 466 682 576 l 682 0 l 557 0 l 557 458 q 538 565 557 524 q 420 633 505 633 q 349 624 376 633 q 260 564 298 609 q 221 490 230 528 q 212 380 212 452 l 212 0 l 90 0 l 90 726 m 376 744 m 489 815 l 360 815 l 222 1011 l 333 1011 l 425 881 l 516 1011 l 627 1011 l 489 815 z "},"ŉ":{"ha":772,"x_min":9,"x_max":749,"o":"m 157 726 l 273 726 l 273 623 q 382 715 325 687 q 511 743 440 743 q 720 635 665 743 q 749 466 749 576 l 749 0 l 625 0 l 625 458 q 606 565 625 524 q 488 633 573 633 q 416 624 444 633 q 328 564 366 609 q 289 490 298 528 q 279 380 279 452 l 279 0 l 157 0 l 157 726 m 444 744 m 9 878 q 75 943 56 886 q 85 1002 85 974 q 85 1011 85 1007 q 83 1019 85 1015 l 9 1019 l 9 1167 l 155 1167 l 155 1030 q 122 888 155 949 q 9 813 90 827 l 9 878 z "},"Ŋ":{"ha":1003,"x_min":106,"x_max":897,"o":"m 659 -184 q 758 -169 741 -181 q 774 -95 774 -157 l 774 0 l 745 0 l 235 806 l 235 0 l 106 0 l 106 996 l 265 996 l 768 189 l 768 996 l 897 996 l 897 -108 q 871 -227 897 -187 q 709 -293 828 -293 q 690 -292 700 -293 q 659 -290 680 -292 l 659 -184 z "},"ŋ":{"ha":772,"x_min":90,"x_max":682,"o":"m 444 -184 q 543 -169 526 -181 q 559 -95 559 -157 l 559 0 l 557 0 l 557 458 q 538 565 557 524 q 420 633 505 633 q 349 624 376 633 q 260 564 298 609 q 221 490 230 528 q 212 380 212 452 l 212 0 l 90 0 l 90 726 l 205 726 l 205 623 q 315 715 257 687 q 443 743 372 743 q 652 635 597 743 q 682 466 682 576 l 682 -108 q 656 -227 682 -187 q 494 -293 613 -293 q 475 -292 485 -293 q 444 -290 465 -292 l 444 -184 z "},"Ō":{"ha":1080,"x_min":54,"x_max":1025,"o":"m 536 1023 q 926 854 800 1023 q 1025 515 1025 722 q 912 144 1025 292 q 533 -29 779 -29 q 172 123 303 -29 q 54 493 54 269 q 155 839 54 695 q 536 1023 283 1023 m 549 92 q 807 219 728 92 q 887 513 887 347 q 795 796 887 689 q 544 903 703 903 q 292 797 389 903 q 194 484 194 691 q 278 205 194 319 q 549 92 361 92 m 540 1023 m 311 1179 l 745 1179 l 745 1099 l 311 1099 l 311 1179 z "},"ō":{"ha":772,"x_min":40,"x_max":717,"o":"m 378 79 q 544 171 499 79 q 589 375 589 262 q 557 541 589 477 q 379 641 505 641 q 216 555 267 641 q 165 349 165 470 q 216 156 165 233 q 378 79 267 79 m 382 747 q 620 654 523 747 q 717 378 717 560 q 631 88 717 203 q 366 -26 546 -26 q 128 75 216 -26 q 40 347 40 176 q 133 639 40 530 q 382 747 226 747 m 378 744 m 153 911 l 587 911 l 587 831 l 153 831 l 153 911 z "},"Ŏ":{"ha":1080,"x_min":54,"x_max":1025,"o":"m 392 1285 q 424 1219 403 1241 q 542 1179 462 1179 q 652 1219 616 1179 q 684 1285 673 1242 l 751 1285 q 681 1141 738 1185 q 528 1097 625 1097 q 356 1178 408 1097 q 323 1285 329 1220 l 392 1285 m 926 854 q 1025 515 1025 722 q 912 144 1025 292 q 533 -29 779 -29 q 172 123 303 -29 q 54 493 54 269 q 155 839 54 695 q 536 1023 283 1023 q 926 854 800 1023 m 887 513 q 795 796 887 689 q 544 903 703 903 q 292 797 389 903 q 194 484 194 691 q 278 205 194 319 q 549 92 361 92 q 807 219 728 92 q 887 513 887 347 z "},"ŏ":{"ha":772,"x_min":40,"x_max":717,"o":"m 248 999 q 279 932 258 955 q 397 892 317 892 q 508 932 471 892 q 540 999 529 956 l 607 999 q 537 855 593 899 q 384 811 480 811 q 212 892 264 811 q 178 999 184 934 l 248 999 m 589 375 q 557 541 589 477 q 379 641 505 641 q 216 555 267 641 q 165 349 165 470 q 216 156 165 233 q 378 79 267 79 q 544 171 499 79 q 589 375 589 262 m 717 378 q 631 88 717 203 q 366 -26 546 -26 q 128 75 216 -26 q 40 347 40 176 q 133 639 40 530 q 382 747 226 747 q 620 654 523 747 q 717 378 717 560 z "},"Ő":{"ha":1080,"x_min":54,"x_max":1025,"o":"m 536 1023 q 926 854 800 1023 q 1025 515 1025 722 q 912 144 1025 292 q 533 -29 779 -29 q 172 123 303 -29 q 54 493 54 269 q 155 839 54 695 q 536 1023 283 1023 m 549 92 q 807 219 728 92 q 887 513 887 347 q 795 796 887 689 q 544 903 703 903 q 292 797 389 903 q 194 484 194 691 q 278 205 194 319 q 549 92 361 92 m 540 1023 m 682 1290 l 827 1290 l 675 1093 l 589 1093 l 682 1290 m 456 1290 l 602 1290 l 448 1093 l 363 1093 l 456 1290 z "},"ő":{"ha":772,"x_min":40,"x_max":717,"o":"m 378 79 q 544 171 499 79 q 589 375 589 262 q 557 541 589 477 q 379 641 505 641 q 216 555 267 641 q 165 349 165 470 q 216 156 165 233 q 378 79 267 79 m 382 747 q 620 654 523 747 q 717 378 717 560 q 631 88 717 203 q 366 -26 546 -26 q 128 75 216 -26 q 40 347 40 176 q 133 639 40 530 q 382 747 226 747 m 378 744 m 505 1032 l 650 1032 l 498 835 l 412 835 l 505 1032 m 279 1032 l 425 1032 l 271 835 l 186 835 l 279 1032 z "},"Œ":{"ha":1389,"x_min":50,"x_max":1340,"o":"m 486 87 q 645 143 571 87 q 718 332 718 199 l 718 683 q 650 848 718 787 q 480 908 581 908 q 233 744 307 908 q 186 484 186 637 q 258 199 186 311 q 486 87 330 87 m 475 1019 q 626 986 562 1019 q 726 895 690 953 l 726 996 l 1337 996 l 1337 878 l 855 878 l 855 572 l 1314 572 l 1314 456 l 855 456 l 855 119 l 1340 119 l 1340 0 l 725 0 l 725 104 q 626 14 694 51 q 446 -23 557 -23 q 172 105 295 -23 q 50 488 50 246 q 134 831 50 688 q 475 1019 245 1019 z "},"œ":{"ha":1311,"x_min":48,"x_max":1252,"o":"m 48 355 q 138 634 48 522 q 392 745 229 745 q 582 690 507 745 q 661 602 624 660 q 774 707 704 669 q 931 744 844 744 q 1077 711 1012 744 q 1187 614 1143 678 q 1242 476 1229 555 q 1252 324 1251 428 l 713 324 q 745 180 717 235 q 927 75 796 75 q 1072 137 1019 75 q 1122 228 1102 170 l 1244 228 q 1129 39 1215 108 q 924 -29 1042 -29 q 774 3 844 -29 q 648 119 704 35 q 530 4 600 36 q 382 -28 459 -28 q 145 69 241 -28 q 48 355 48 165 m 1125 418 q 1092 545 1120 496 q 920 636 1041 636 q 808 600 860 636 q 715 418 728 544 l 1125 418 m 391 77 q 533 141 467 77 q 600 372 600 205 q 540 573 600 506 q 388 640 480 640 q 235 568 297 640 q 174 347 174 496 q 234 150 174 222 q 391 77 295 77 z "},"Ŕ":{"ha":1003,"x_min":122,"x_max":949,"o":"m 569 540 q 719 578 664 540 q 774 715 774 616 q 697 860 774 821 q 587 880 656 880 l 257 880 l 257 540 l 569 540 m 122 996 l 583 996 q 771 963 697 996 q 911 728 911 899 q 874 581 911 638 q 771 490 838 524 q 859 427 829 466 q 892 302 888 389 l 897 168 q 906 83 899 111 q 949 22 918 36 l 949 0 l 784 0 q 773 33 777 13 q 766 112 769 54 l 758 278 q 686 409 753 376 q 564 427 647 427 l 257 427 l 257 0 l 122 0 l 122 996 m 620 1267 l 439 1072 l 345 1072 l 469 1267 l 620 1267 z "},"ŕ":{"ha":463,"x_min":93,"x_max":446,"o":"m 93 726 l 209 726 l 209 601 q 279 690 223 637 q 407 743 334 743 q 418 742 410 743 q 446 739 427 741 l 446 610 q 426 613 435 612 q 406 614 417 614 q 264 554 314 614 q 215 418 215 495 l 215 0 l 93 0 l 93 726 m 372 1017 l 191 821 l 98 821 l 222 1017 l 372 1017 z "},"Ŗ":{"ha":1003,"x_min":122,"x_max":949,"o":"m 569 540 q 719 578 664 540 q 774 715 774 616 q 697 860 774 821 q 587 880 656 880 l 257 880 l 257 540 l 569 540 m 122 996 l 583 996 q 771 963 697 996 q 911 728 911 899 q 874 581 911 638 q 771 490 838 524 q 859 427 829 466 q 892 302 888 389 l 897 168 q 906 83 899 111 q 949 22 918 36 l 949 0 l 784 0 q 773 33 777 13 q 766 112 769 54 l 758 278 q 686 409 753 376 q 564 427 647 427 l 257 427 l 257 0 l 122 0 l 122 996 m 429 -348 q 495 -282 476 -340 q 505 -223 505 -252 q 505 -215 505 -218 q 503 -206 505 -211 l 429 -206 l 429 -58 l 574 -58 l 574 -195 q 542 -337 574 -276 q 429 -412 509 -398 l 429 -348 z "},"ŗ":{"ha":463,"x_min":93,"x_max":446,"o":"m 93 726 l 209 726 l 209 601 q 279 690 223 637 q 407 743 334 743 q 418 742 410 743 q 446 739 427 741 l 446 610 q 426 613 435 612 q 406 614 417 614 q 264 554 314 614 q 215 418 215 495 l 215 0 l 93 0 l 93 726 m 96 -358 q 162 -292 143 -350 q 172 -233 172 -262 q 172 -225 172 -229 q 170 -216 172 -221 l 96 -216 l 96 -68 l 241 -68 l 241 -205 q 209 -347 241 -286 q 96 -422 176 -408 l 96 -358 z "},"Ř":{"ha":1003,"x_min":122,"x_max":949,"o":"m 569 540 q 719 578 664 540 q 774 715 774 616 q 697 860 774 821 q 587 880 656 880 l 257 880 l 257 540 l 569 540 m 122 996 l 583 996 q 771 963 697 996 q 911 728 911 899 q 874 581 911 638 q 771 490 838 524 q 859 427 829 466 q 892 302 888 389 l 897 168 q 906 83 899 111 q 949 22 918 36 l 949 0 l 784 0 q 773 33 777 13 q 766 112 769 54 l 758 278 q 686 409 753 376 q 564 427 647 427 l 257 427 l 257 0 l 122 0 l 122 996 m 540 1055 l 411 1055 l 273 1251 l 384 1251 l 475 1121 l 567 1251 l 678 1251 l 540 1055 z "},"ř":{"ha":463,"x_min":45,"x_max":450,"o":"m 93 726 l 209 726 l 209 601 q 279 690 223 637 q 407 743 334 743 q 418 742 410 743 q 446 739 427 741 l 446 610 q 426 613 435 612 q 406 614 417 614 q 264 554 314 614 q 215 418 215 495 l 215 0 l 93 0 l 93 726 m 311 817 l 182 817 l 45 1013 l 155 1013 l 247 882 l 338 1013 l 450 1013 l 311 817 z "},"Ś":{"ha":926,"x_min":65,"x_max":861,"o":"m 194 321 q 234 184 199 237 q 471 85 301 85 q 609 106 547 85 q 730 257 730 149 q 679 373 730 338 q 517 432 627 407 l 382 463 q 195 528 250 492 q 100 715 100 591 q 193 935 100 849 q 456 1021 286 1021 q 723 946 613 1021 q 832 704 832 870 l 705 704 q 662 827 695 784 q 452 905 600 905 q 281 854 333 905 q 229 738 229 804 q 290 631 229 665 q 471 576 330 609 l 610 545 q 766 481 711 522 q 861 279 861 412 q 741 42 861 113 q 461 -29 621 -29 q 170 66 275 -29 q 67 321 65 160 l 194 321 m 467 1023 m 637 1282 l 456 1086 l 362 1086 l 486 1282 l 637 1282 z "},"ś":{"ha":694,"x_min":45,"x_max":644,"o":"m 162 228 q 193 134 168 167 q 353 75 239 75 q 472 105 420 75 q 524 196 524 134 q 482 267 524 243 q 378 302 456 282 l 281 326 q 144 378 188 349 q 65 515 65 427 q 139 682 65 618 q 339 745 214 745 q 576 649 503 745 q 620 517 621 588 l 505 517 q 475 593 501 559 q 330 641 433 641 q 225 614 260 641 q 189 545 189 588 q 236 469 189 497 q 316 439 263 452 l 397 419 q 573 357 528 387 q 644 210 644 311 q 571 43 644 113 q 347 -28 497 -28 q 117 46 184 -28 q 45 228 50 119 l 162 228 m 342 744 m 529 1031 l 348 836 l 254 836 l 378 1031 l 529 1031 z "},"Ŝ":{"ha":926,"x_min":65,"x_max":861,"o":"m 194 321 q 234 184 199 237 q 471 85 301 85 q 609 106 547 85 q 730 257 730 149 q 679 373 730 338 q 517 432 627 407 l 382 463 q 195 528 250 492 q 100 715 100 591 q 193 935 100 849 q 456 1021 286 1021 q 723 946 613 1021 q 832 704 832 870 l 705 704 q 662 827 695 784 q 452 905 600 905 q 281 854 333 905 q 229 738 229 804 q 290 631 229 665 q 471 576 330 609 l 610 545 q 766 481 711 522 q 861 279 861 412 q 741 42 861 113 q 461 -29 621 -29 q 170 66 275 -29 q 67 321 65 160 l 194 321 m 467 1023 m 524 1282 l 663 1086 l 551 1086 l 460 1217 l 368 1086 l 258 1086 l 395 1282 l 524 1282 z "},"ŝ":{"ha":694,"x_min":45,"x_max":644,"o":"m 162 228 q 193 134 168 167 q 353 75 239 75 q 472 105 420 75 q 524 196 524 134 q 482 267 524 243 q 378 302 456 282 l 281 326 q 144 378 188 349 q 65 515 65 427 q 139 682 65 618 q 339 745 214 745 q 576 649 503 745 q 620 517 621 588 l 505 517 q 475 593 501 559 q 330 641 433 641 q 225 614 260 641 q 189 545 189 588 q 236 469 189 497 q 316 439 263 452 l 397 419 q 573 357 528 387 q 644 210 644 311 q 571 43 644 113 q 347 -28 497 -28 q 117 46 184 -28 q 45 228 50 119 l 162 228 m 342 744 m 416 1011 l 554 815 l 443 815 l 351 945 l 260 815 l 149 815 l 287 1011 l 416 1011 z "},"Ş":{"ha":926,"x_min":65,"x_max":861,"o":"m 194 321 q 234 184 199 237 q 471 85 301 85 q 609 106 547 85 q 730 257 730 149 q 679 373 730 338 q 517 432 627 407 l 382 463 q 195 528 250 492 q 100 715 100 591 q 193 935 100 849 q 456 1021 286 1021 q 723 946 613 1021 q 832 704 832 870 l 705 704 q 662 827 695 784 q 452 905 600 905 q 281 854 333 905 q 229 738 229 804 q 290 631 229 665 q 471 576 330 609 l 610 545 q 766 481 711 522 q 861 279 861 412 q 741 42 861 113 q 480 -29 621 -29 l 439 -87 q 490 -81 458 -81 q 568 -108 537 -81 q 599 -186 599 -136 q 558 -275 599 -238 q 433 -313 517 -313 q 359 -302 397 -313 q 300 -283 337 -297 l 324 -229 q 364 -242 350 -238 q 414 -250 392 -250 q 458 -242 439 -250 q 493 -191 493 -228 q 475 -153 493 -169 q 427 -137 457 -137 q 400 -140 412 -137 q 372 -149 389 -142 l 349 -121 l 416 -29 q 170 65 275 -29 q 67 321 65 160 l 194 321 z "},"ş":{"ha":694,"x_min":45,"x_max":644,"o":"m 162 228 q 193 134 168 167 q 353 75 239 75 q 472 105 420 75 q 524 196 524 134 q 482 267 524 243 q 378 302 456 282 l 281 326 q 144 378 188 349 q 65 515 65 427 q 139 682 65 618 q 339 745 214 745 q 576 649 503 745 q 620 517 621 588 l 505 517 q 475 593 501 559 q 330 641 433 641 q 225 614 260 641 q 189 545 189 588 q 236 469 189 497 q 316 439 263 452 l 397 419 q 573 357 528 387 q 644 210 644 311 q 571 43 644 113 q 366 -28 497 -28 l 323 -87 q 374 -81 342 -81 q 452 -108 421 -81 q 483 -186 483 -136 q 442 -275 483 -238 q 317 -313 401 -313 q 243 -302 281 -313 q 184 -283 221 -297 l 208 -229 q 248 -242 234 -238 q 298 -250 276 -250 q 342 -242 323 -250 q 377 -191 377 -228 q 359 -153 377 -169 q 311 -137 341 -137 q 284 -140 296 -137 q 256 -149 273 -142 l 233 -121 l 300 -28 q 117 46 184 -28 q 45 228 50 119 l 162 228 z "},"Š":{"ha":926,"x_min":65,"x_max":861,"o":"m 194 321 q 234 184 199 237 q 471 85 301 85 q 609 106 547 85 q 730 257 730 149 q 679 373 730 338 q 517 432 627 407 l 382 463 q 195 528 250 492 q 100 715 100 591 q 193 935 100 849 q 456 1021 286 1021 q 723 946 613 1021 q 832 704 832 870 l 705 704 q 662 827 695 784 q 452 905 600 905 q 281 854 333 905 q 229 738 229 804 q 290 631 229 665 q 471 576 330 609 l 610 545 q 766 481 711 522 q 861 279 861 412 q 741 42 861 113 q 461 -29 621 -29 q 170 66 275 -29 q 67 321 65 160 l 194 321 m 467 1023 m 541 1102 l 412 1102 l 274 1298 l 385 1298 l 476 1168 l 568 1298 l 679 1298 l 541 1102 z "},"š":{"ha":694,"x_min":45,"x_max":644,"o":"m 162 228 q 193 134 168 167 q 353 75 239 75 q 472 105 420 75 q 524 196 524 134 q 482 267 524 243 q 378 302 456 282 l 281 326 q 144 378 188 349 q 65 515 65 427 q 139 682 65 618 q 339 745 214 745 q 576 649 503 745 q 620 517 621 588 l 505 517 q 475 593 501 559 q 330 641 433 641 q 225 614 260 641 q 189 545 189 588 q 236 469 189 497 q 316 439 263 452 l 397 419 q 573 357 528 387 q 644 210 644 311 q 571 43 644 113 q 347 -28 497 -28 q 117 46 184 -28 q 45 228 50 119 l 162 228 m 342 744 m 416 823 l 288 823 l 150 1019 l 260 1019 l 352 888 l 444 1019 l 555 1019 l 416 823 z "},"Ţ":{"ha":848,"x_min":22,"x_max":831,"o":"m 831 996 l 831 878 l 495 878 l 495 0 l 358 0 l 358 878 l 22 878 l 22 996 l 831 996 m 423 0 l 489 0 l 425 -87 q 476 -81 445 -81 q 554 -108 524 -81 q 585 -186 585 -136 q 545 -275 585 -238 q 420 -313 504 -313 q 345 -302 384 -313 q 287 -283 323 -297 l 311 -229 q 351 -242 336 -238 q 401 -250 378 -250 q 444 -242 426 -250 q 479 -191 479 -228 q 461 -153 479 -169 q 414 -137 444 -137 q 387 -140 399 -137 q 359 -149 375 -142 l 335 -121 l 423 0 z "},"ţ":{"ha":386,"x_min":16,"x_max":418,"o":"m 114 929 l 237 929 l 237 726 l 353 726 l 353 627 l 237 627 l 237 153 q 263 102 237 115 q 311 94 277 94 q 330 95 319 94 q 353 96 340 95 l 353 0 q 310 -9 332 -6 q 260 -12 287 -12 q 144 32 175 -12 q 114 146 114 76 l 114 627 l 16 627 l 16 726 l 114 726 l 114 929 m 256 -3 l 321 -3 l 258 -90 q 309 -84 277 -84 q 387 -112 356 -84 q 418 -190 418 -139 q 377 -279 418 -241 q 252 -316 336 -316 q 178 -306 216 -316 q 119 -287 156 -300 l 143 -232 q 183 -245 169 -241 q 233 -253 211 -253 q 277 -245 258 -253 q 312 -194 312 -231 q 294 -156 312 -172 q 246 -140 276 -140 q 219 -143 231 -140 q 191 -152 208 -146 l 168 -124 l 256 -3 z "},"Ť":{"ha":848,"x_min":22,"x_max":831,"o":"m 831 996 l 831 878 l 495 878 l 495 0 l 358 0 l 358 878 l 22 878 l 22 996 l 831 996 m 495 1070 l 366 1070 l 229 1266 l 339 1266 l 431 1136 l 522 1266 l 633 1266 l 495 1070 z "},"ť":{"ha":500,"x_min":16,"x_max":501,"o":"m 356 842 q 422 908 403 850 q 432 967 432 939 q 432 976 432 972 q 430 984 431 979 l 356 984 l 356 1132 l 501 1132 l 501 995 q 469 853 501 914 q 356 778 436 792 l 356 842 m 114 929 l 237 929 l 237 726 l 353 726 l 353 627 l 237 627 l 237 153 q 263 102 237 115 q 311 94 277 94 q 330 95 319 94 q 353 96 340 95 l 353 0 q 310 -9 332 -6 q 260 -12 287 -12 q 144 32 175 -12 q 114 146 114 76 l 114 627 l 16 627 l 16 726 l 114 726 l 114 929 z "},"Ŧ":{"ha":848,"x_min":22,"x_max":831,"o":"m 831 996 l 831 878 l 495 878 l 495 0 l 358 0 l 358 878 l 22 878 l 22 996 l 831 996 m 220 546 l 654 546 l 654 466 l 220 466 l 220 546 z "},"ŧ":{"ha":444,"x_min":-20,"x_max":414,"o":"m 114 929 l 237 929 l 237 726 l 353 726 l 353 627 l 237 627 l 237 153 q 263 102 237 115 q 311 94 277 94 q 330 95 319 94 q 353 96 340 95 l 353 0 q 310 -9 332 -6 q 260 -12 287 -12 q 144 32 175 -12 q 114 146 114 76 l 114 627 l 16 627 l 16 726 l 114 726 l 114 929 m -20 507 l 414 507 l 414 427 l -20 427 l -20 507 z "},"Ũ":{"ha":1003,"x_min":115,"x_max":900,"o":"m 252 996 l 252 380 q 293 200 252 272 q 496 92 353 92 q 730 209 668 92 q 763 380 763 273 l 763 996 l 900 996 l 900 437 q 850 154 900 253 q 507 -26 760 -26 q 165 154 255 -26 q 115 437 115 253 l 115 996 l 252 996 m 508 996 m 543 1191 q 578 1178 562 1183 q 610 1173 593 1173 q 664 1197 648 1173 q 676 1236 673 1210 l 747 1236 q 693 1117 733 1149 q 604 1084 652 1084 q 566 1090 589 1084 q 526 1102 543 1095 l 490 1115 q 438 1132 458 1126 q 399 1138 418 1138 q 360 1122 375 1138 q 339 1075 345 1107 l 273 1075 q 302 1162 281 1128 q 416 1225 340 1225 q 468 1218 439 1225 q 543 1191 496 1211 z "},"ũ":{"ha":772,"x_min":87,"x_max":671,"o":"m 212 726 l 212 244 q 229 153 212 189 q 351 88 262 88 q 524 202 478 88 q 549 370 549 263 l 549 726 l 671 726 l 671 0 l 556 0 l 557 107 q 498 37 534 66 q 329 -20 429 -20 q 117 84 174 -20 q 87 233 87 140 l 87 726 l 212 726 m 379 744 m 397 937 q 432 924 416 929 q 464 920 448 920 q 518 943 502 920 q 530 982 527 956 l 602 982 q 547 863 587 896 q 458 831 507 831 q 420 836 444 831 q 380 848 397 842 l 344 861 q 292 879 312 873 q 253 884 272 884 q 214 869 229 884 q 193 821 199 853 l 127 821 q 156 909 136 875 q 271 971 195 971 q 322 964 294 971 q 397 937 350 958 z "},"Ū":{"ha":1003,"x_min":115,"x_max":900,"o":"m 252 996 l 252 380 q 293 200 252 272 q 496 92 353 92 q 730 209 668 92 q 763 380 763 273 l 763 996 l 900 996 l 900 437 q 850 154 900 253 q 507 -26 760 -26 q 165 154 255 -26 q 115 437 115 253 l 115 996 l 252 996 m 508 996 m 301 1145 l 735 1145 l 735 1065 l 301 1065 l 301 1145 z "},"ū":{"ha":772,"x_min":87,"x_max":671,"o":"m 212 726 l 212 244 q 229 153 212 189 q 351 88 262 88 q 524 202 478 88 q 549 370 549 263 l 549 726 l 671 726 l 671 0 l 556 0 l 557 107 q 498 37 534 66 q 329 -20 429 -20 q 117 84 174 -20 q 87 233 87 140 l 87 726 l 212 726 m 379 744 m 160 901 l 594 901 l 594 821 l 160 821 l 160 901 z "},"Ŭ":{"ha":1003,"x_min":115,"x_max":900,"o":"m 365 1232 q 397 1166 376 1188 q 515 1126 435 1126 q 625 1166 589 1126 q 657 1232 646 1189 l 724 1232 q 654 1088 711 1133 q 501 1044 597 1044 q 329 1125 381 1044 q 296 1232 302 1167 l 365 1232 m 252 996 l 252 380 q 293 200 252 272 q 496 92 353 92 q 730 209 668 92 q 763 380 763 273 l 763 996 l 900 996 l 900 437 q 850 154 900 253 q 507 -26 760 -26 q 165 154 255 -26 q 115 437 115 253 l 115 996 l 252 996 z "},"ŭ":{"ha":772,"x_min":87,"x_max":671,"o":"m 245 986 q 277 920 256 942 q 395 880 315 880 q 505 920 469 880 q 537 986 526 943 l 604 986 q 534 842 591 886 q 381 798 477 798 q 209 879 261 798 q 176 986 182 921 l 245 986 m 212 726 l 212 244 q 229 153 212 189 q 351 88 262 88 q 524 202 478 88 q 549 370 549 263 l 549 726 l 671 726 l 671 0 l 556 0 l 557 107 q 498 37 534 66 q 329 -20 429 -20 q 117 84 174 -20 q 87 233 87 140 l 87 726 l 212 726 z "},"Ů":{"ha":1003,"x_min":115,"x_max":900,"o":"m 252 996 l 252 380 q 293 200 252 272 q 496 92 353 92 q 730 209 668 92 q 763 380 763 273 l 763 996 l 900 996 l 900 437 q 850 154 900 253 q 507 -26 760 -26 q 165 154 255 -26 q 115 437 115 253 l 115 996 l 252 996 m 508 996 m 524 1097 q 585 1122 559 1097 q 610 1183 610 1147 q 585 1243 610 1218 q 524 1268 559 1268 q 465 1243 490 1268 q 439 1183 439 1218 q 465 1122 439 1147 q 524 1097 490 1097 m 524 1324 q 624 1283 583 1324 q 666 1183 666 1241 q 624 1083 666 1124 q 524 1041 583 1041 q 425 1083 466 1041 q 383 1183 383 1124 q 425 1283 383 1241 q 524 1324 466 1324 z "},"ů":{"ha":772,"x_min":87,"x_max":671,"o":"m 212 726 l 212 244 q 229 153 212 189 q 351 88 262 88 q 524 202 478 88 q 549 370 549 263 l 549 726 l 671 726 l 671 0 l 556 0 l 557 107 q 498 37 534 66 q 329 -20 429 -20 q 117 84 174 -20 q 87 233 87 140 l 87 726 l 212 726 m 379 744 m 389 806 q 449 831 424 806 q 474 892 474 857 q 449 952 474 927 q 389 977 424 977 q 329 952 354 977 q 304 892 304 927 q 329 831 304 857 q 389 806 354 806 m 389 1034 q 489 992 447 1034 q 530 892 530 950 q 489 792 530 833 q 389 750 447 750 q 289 792 330 750 q 248 892 248 833 q 289 992 248 950 q 389 1034 330 1034 z "},"Ű":{"ha":1003,"x_min":115,"x_max":900,"o":"m 252 996 l 252 380 q 293 200 252 272 q 496 92 353 92 q 730 209 668 92 q 763 380 763 273 l 763 996 l 900 996 l 900 437 q 850 154 900 253 q 507 -26 760 -26 q 165 154 255 -26 q 115 437 115 253 l 115 996 l 252 996 m 508 996 m 631 1263 l 777 1263 l 625 1065 l 538 1065 l 631 1263 m 406 1263 l 552 1263 l 398 1065 l 313 1065 l 406 1263 z "},"ű":{"ha":772,"x_min":87,"x_max":671,"o":"m 212 726 l 212 244 q 229 153 212 189 q 351 88 262 88 q 524 202 478 88 q 549 370 549 263 l 549 726 l 671 726 l 671 0 l 556 0 l 557 107 q 498 37 534 66 q 329 -20 429 -20 q 117 84 174 -20 q 87 233 87 140 l 87 726 l 212 726 m 379 744 m 505 1021 l 650 1021 l 498 824 l 412 824 l 505 1021 m 279 1021 l 426 1021 l 272 824 l 186 824 l 279 1021 z "},"Ų":{"ha":1003,"x_min":115,"x_max":900,"o":"m 252 996 l 252 380 q 293 200 252 272 q 496 92 353 92 q 730 209 668 92 q 763 380 763 273 l 763 996 l 900 996 l 900 437 q 850 154 900 253 q 507 -26 760 -26 q 165 154 255 -26 q 115 437 115 253 l 115 996 l 252 996 m 508 996 m 563 -18 l 524 -51 q 459 -113 473 -92 q 446 -161 446 -134 q 464 -204 446 -186 q 516 -222 481 -222 q 546 -219 534 -222 q 571 -208 557 -216 l 571 -297 q 531 -311 549 -307 q 462 -320 497 -320 q 362 -282 397 -320 q 327 -197 327 -244 q 366 -98 327 -142 q 463 -18 397 -62 l 563 -18 z "},"ų":{"ha":772,"x_min":87,"x_max":671,"o":"m 212 726 l 212 244 q 229 153 212 189 q 351 88 262 88 q 524 202 478 88 q 549 370 549 263 l 549 726 l 671 726 l 671 0 l 556 0 l 557 107 q 498 37 534 66 q 329 -20 429 -20 q 117 84 174 -20 q 87 233 87 140 l 87 726 l 212 726 m 379 744 m 661 2 l 622 -31 q 558 -93 572 -71 q 544 -140 544 -114 q 562 -184 544 -165 q 614 -202 580 -202 q 644 -199 633 -202 q 669 -188 656 -195 l 669 -277 q 629 -291 647 -286 q 560 -300 595 -300 q 460 -262 495 -300 q 425 -176 425 -224 q 465 -77 425 -121 q 562 2 496 -42 l 661 2 z "},"Ŵ":{"ha":1311,"x_min":25,"x_max":1292,"o":"m 172 996 l 359 186 l 585 996 l 731 996 l 956 186 l 1144 996 l 1292 996 l 1030 0 l 888 0 l 659 826 l 427 0 l 286 0 l 25 996 l 172 996 m 730 1278 l 868 1082 l 757 1082 l 665 1213 l 574 1082 l 463 1082 l 601 1278 l 730 1278 z "},"ŵ":{"ha":1003,"x_min":12,"x_max":977,"o":"m 146 726 l 286 154 l 427 726 l 564 726 l 707 157 l 855 726 l 977 726 l 766 0 l 640 0 l 492 562 l 349 0 l 222 0 l 12 726 l 146 726 m 565 1019 l 703 823 l 592 823 l 500 953 l 409 823 l 298 823 l 436 1019 l 565 1019 z "},"Ŷ":{"ha":926,"x_min":28,"x_max":916,"o":"m 28 996 l 186 996 l 472 517 l 758 996 l 916 996 l 540 401 l 540 0 l 405 0 l 405 401 l 28 996 m 474 996 m 547 1275 l 685 1079 l 574 1079 l 482 1209 l 391 1079 l 280 1079 l 418 1275 l 547 1275 z "},"ŷ":{"ha":694,"x_min":14,"x_max":678,"o":"m 543 726 l 678 726 q 564 408 652 656 q 452 102 497 220 q 303 -237 347 -176 q 154 -298 260 -298 q 114 -296 128 -298 q 80 -288 100 -294 l 80 -177 q 126 -188 112 -186 q 151 -190 140 -190 q 201 -179 185 -190 q 228 -151 217 -168 q 252 -96 231 -146 q 283 -21 273 -45 l 14 726 l 153 726 l 347 135 l 543 726 m 347 744 m 417 1015 l 555 819 l 444 819 l 353 949 l 261 819 l 151 819 l 288 1015 l 417 1015 z "},"Ÿ":{"ha":926,"x_min":28,"x_max":916,"o":"m 28 996 l 186 996 l 472 517 l 758 996 l 916 996 l 540 401 l 540 0 l 405 0 l 405 401 l 28 996 m 474 996 m 531 1232 l 658 1232 l 658 1091 l 531 1091 l 531 1232 m 307 1232 l 434 1232 l 434 1091 l 307 1091 l 307 1232 z "},"Ź":{"ha":848,"x_min":32,"x_max":817,"o":"m 32 112 l 643 878 l 77 878 l 77 996 l 817 996 l 817 880 l 202 119 l 817 119 l 817 0 l 32 0 l 32 112 m 447 996 m 660 1251 l 479 1055 l 385 1055 l 509 1251 l 660 1251 z "},"ź":{"ha":694,"x_min":35,"x_max":643,"o":"m 35 96 l 466 617 l 67 617 l 67 726 l 630 726 l 630 627 l 202 109 l 643 109 l 643 0 l 35 0 l 35 96 m 349 744 m 550 1021 l 369 825 l 275 825 l 399 1021 l 550 1021 z "},"Ż":{"ha":848,"x_min":32,"x_max":817,"o":"m 32 112 l 643 878 l 77 878 l 77 996 l 817 996 l 817 880 l 202 119 l 817 119 l 817 0 l 32 0 l 32 112 m 447 996 m 384 1232 l 511 1232 l 511 1091 l 384 1091 l 384 1232 z "},"ż":{"ha":694,"x_min":35,"x_max":643,"o":"m 35 96 l 466 617 l 67 617 l 67 726 l 630 726 l 630 627 l 202 109 l 643 109 l 643 0 l 35 0 l 35 96 m 349 744 m 296 980 l 422 980 l 422 839 l 296 839 l 296 980 z "},"Ž":{"ha":848,"x_min":32,"x_max":817,"o":"m 32 112 l 643 878 l 77 878 l 77 996 l 817 996 l 817 880 l 202 119 l 817 119 l 817 0 l 32 0 l 32 112 m 447 996 m 521 1075 l 392 1075 l 254 1271 l 365 1271 l 456 1141 l 548 1271 l 659 1271 l 521 1075 z "},"ž":{"ha":694,"x_min":35,"x_max":643,"o":"m 35 96 l 466 617 l 67 617 l 67 726 l 630 726 l 630 627 l 202 109 l 643 109 l 643 0 l 35 0 l 35 96 m 349 744 m 423 823 l 294 823 l 157 1019 l 267 1019 l 359 888 l 450 1019 l 562 1019 l 423 823 z "},"ſ":{"ha":386,"x_min":19,"x_max":363,"o":"m 241 627 l 241 0 l 120 0 l 120 627 l 19 627 l 19 723 l 120 723 l 120 837 q 146 948 123 913 q 311 1010 189 1010 q 335 1010 323 1010 q 363 1008 347 1009 l 363 897 q 335 898 344 898 q 319 899 327 899 q 253 870 264 899 q 241 627 242 841 z "},"ƀ":{"ha":772,"x_min":38,"x_max":772,"o":"m 435 81 q 593 159 544 81 q 643 355 643 238 q 586 562 643 492 q 436 633 528 633 q 297 567 353 633 q 241 363 241 500 q 295 154 241 227 q 435 81 350 81 m 319 704 q 459 739 376 739 q 691 623 610 739 q 772 348 772 507 q 683 76 772 178 q 473 -26 594 -26 q 339 4 397 -26 q 238 101 281 34 l 238 0 l 128 0 l 128 821 l 38 821 l 38 901 l 128 901 l 128 1000 l 245 1000 l 245 901 l 472 901 l 472 821 l 245 821 l 245 633 q 319 704 287 684 z "},"Ƃ":{"ha":926,"x_min":119,"x_max":863,"o":"m 119 996 l 847 996 l 847 874 l 254 874 l 254 575 l 567 575 q 790 489 718 575 q 863 286 863 402 q 781 75 863 150 q 567 0 700 0 l 119 0 l 119 996 m 645 137 q 726 286 726 176 q 670 422 726 384 q 522 461 613 461 l 254 461 l 254 116 l 522 116 q 645 137 600 116 z "},"ƃ":{"ha":772,"x_min":80,"x_max":720,"o":"m 80 1000 l 100 1000 l 100 1000 l 630 1000 l 630 878 l 199 878 l 199 638 q 294 718 239 690 q 415 745 350 745 q 635 652 551 745 q 720 377 720 559 q 636 91 720 205 q 405 -23 553 -23 q 265 17 322 -23 q 193 93 231 41 l 193 0 l 80 0 l 80 1000 m 595 371 q 546 561 595 486 q 401 636 496 636 q 255 574 317 636 q 192 371 192 513 q 218 205 192 269 q 397 85 266 85 q 546 163 496 85 q 595 371 595 242 z "},"Ɔ":{"ha":1003,"x_min":60,"x_max":944,"o":"m 70 300 l 201 300 q 291 147 224 203 q 478 91 357 91 q 716 194 625 91 q 806 511 806 298 q 725 795 806 686 q 481 904 643 904 q 254 789 332 904 q 192 631 212 729 l 60 631 q 177 895 78 788 q 497 1023 296 1023 q 789 918 671 1023 q 944 488 944 779 q 827 127 944 268 q 479 -26 701 -26 q 186 73 290 -26 q 70 300 81 173 z "},"Ɖ":{"ha":1003,"x_min":22,"x_max":935,"o":"m 22 587 l 112 587 l 112 996 l 493 996 q 853 826 741 996 q 935 515 935 702 q 872 219 935 349 q 514 0 766 0 l 112 0 l 112 466 l 22 466 l 22 587 m 248 587 l 532 587 l 532 466 l 248 466 l 248 115 l 488 115 q 601 130 557 115 q 730 231 680 156 q 787 386 770 292 q 798 490 798 442 q 724 778 798 675 q 487 880 650 880 l 248 880 l 248 587 z "},"Ƌ":{"ha":926,"x_min":119,"x_max":863,"o":"m 863 0 l 414 0 q 200 75 281 0 q 119 286 119 150 q 191 489 119 402 q 414 575 264 575 l 728 575 l 728 874 l 134 874 l 134 996 l 863 996 l 863 0 m 336 137 q 459 116 381 116 l 728 116 l 728 461 l 459 461 q 312 422 368 461 q 255 286 255 384 q 336 137 255 176 z "},"ƌ":{"ha":772,"x_min":80,"x_max":720,"o":"m 720 0 l 607 0 l 607 93 q 534 17 568 41 q 395 -23 477 -23 q 163 91 247 -23 q 80 377 80 205 q 164 652 80 559 q 385 745 249 745 q 505 718 450 745 q 601 638 561 690 l 601 878 l 170 878 l 170 1000 l 699 1000 l 699 1000 l 720 1000 l 720 0 m 205 371 q 254 163 205 242 q 402 85 303 85 q 582 205 534 85 q 608 371 608 269 q 545 574 608 513 q 399 636 482 636 q 254 561 303 636 q 205 371 205 486 z "},"ƍ":{"ha":787,"x_min":50,"x_max":723,"o":"m 50 661 q 143 898 50 803 q 389 993 237 993 q 629 902 536 993 q 723 673 723 811 q 643 396 723 503 q 391 289 562 289 l 651 98 l 651 -14 l 120 -14 l 120 86 l 508 86 l 220 300 q 90 456 130 367 q 50 661 50 546 m 386 882 q 222 809 283 882 q 161 625 161 736 q 228 429 161 484 q 385 375 295 375 q 406 375 395 375 q 466 385 420 378 q 562 466 512 392 q 612 637 612 541 q 549 813 612 743 q 386 882 487 882 z "},"Ǝ":{"ha":926,"x_min":119,"x_max":855,"o":"m 855 -1 l 119 -1 l 119 118 l 724 118 l 724 456 l 174 456 l 174 571 l 724 571 l 724 873 l 129 873 l 129 996 l 855 996 l 855 -1 z "},"Ə":{"ha":1043,"x_min":66,"x_max":962,"o":"m 146 147 q 81 320 97 221 q 66 536 66 388 l 825 536 q 734 795 821 685 q 510 906 648 906 q 263 781 381 906 q 201 666 219 731 l 79 666 q 122 786 86 720 q 203 895 159 852 q 389 994 278 968 q 524 1008 449 1008 q 834 875 707 1008 q 962 502 962 742 q 833 118 962 266 q 498 -29 705 -29 q 296 20 394 -29 q 146 147 198 69 m 195 446 q 241 234 205 338 q 508 74 350 74 q 719 197 622 74 q 821 446 816 319 l 195 446 z "},"Ɛ":{"ha":743,"x_min":62,"x_max":686,"o":"m 374 69 q 522 142 463 69 q 585 300 575 207 l 686 300 q 600 73 678 165 q 360 -33 510 -33 q 145 62 231 -33 q 62 286 62 155 q 87 431 62 376 q 191 533 117 494 q 87 739 87 619 q 160 951 87 871 q 366 1034 235 1034 q 589 936 507 1034 q 667 700 667 844 l 567 699 q 513 855 567 785 q 372 932 456 932 q 245 885 292 932 q 199 757 199 838 q 259 610 199 650 q 418 578 306 580 l 418 478 q 370 481 385 481 q 171 293 171 481 q 222 134 171 195 q 374 69 277 69 z "},"Ƒ":{"ha":848,"x_min":1,"x_max":810,"o":"m 1 -184 q 100 -169 83 -181 q 117 -95 117 -157 l 117 723 l 119 723 l 119 996 l 810 996 l 810 874 l 254 874 l 254 572 l 743 572 l 743 453 l 254 453 l 254 -108 q 228 -227 254 -187 q 51 -293 170 -293 q 32 -292 42 -293 q 1 -290 22 -292 l 1 -184 z "},"ƒ":{"ha":772,"x_min":27,"x_max":738,"o":"m 48 -156 q 81 -170 64 -164 q 115 -176 98 -176 q 218 -108 184 -176 q 263 67 239 -65 l 352 543 l 199 543 l 199 640 l 371 640 q 414 832 405 800 q 447 911 423 865 q 532 996 483 969 q 639 1022 581 1022 q 692 1017 669 1022 q 738 1003 716 1013 l 717 893 q 671 911 687 906 q 640 916 656 916 q 555 862 584 916 q 496 640 526 808 l 656 640 l 656 543 l 479 543 l 418 202 q 329 -140 372 -52 q 112 -285 259 -285 q 62 -280 81 -285 q 27 -269 43 -275 l 48 -156 z "},"Ɩ":{"ha":309,"x_min":42,"x_max":279,"o":"m 279 -16 q 249 -19 258 -18 q 230 -20 239 -20 q 68 47 111 -20 q 42 165 42 86 l 42 996 l 164 996 l 164 178 q 181 104 164 116 q 279 90 197 92 l 279 -16 z "},"Ɨ":{"ha":474,"x_min":24,"x_max":458,"o":"m 24 624 l 181 624 l 181 996 l 303 996 l 303 624 l 458 624 l 458 544 l 303 544 l 303 0 l 181 0 l 181 544 l 24 544 l 24 624 z "},"ƚ":{"ha":474,"x_min":24,"x_max":458,"o":"m 24 624 l 181 624 l 181 996 l 303 996 l 303 624 l 458 624 l 458 544 l 303 544 l 303 0 l 181 0 l 181 544 l 24 544 l 24 624 z "},"ƛ":{"ha":772,"x_min":25,"x_max":747,"o":"m 89 773 l 263 823 l 260 832 q 176 897 233 900 l 132 897 l 132 998 q 201 1006 160 1006 q 307 969 272 1006 q 370 853 340 932 l 566 909 l 566 829 l 399 781 l 652 157 q 676 118 663 136 q 713 100 690 100 l 747 100 l 747 0 l 676 0 q 539 103 576 0 l 370 550 l 160 0 l 25 0 l 310 699 l 290 750 l 89 693 l 89 773 z "},"Ɲ":{"ha":1003,"x_min":-9,"x_max":897,"o":"m -9 -184 q 89 -169 73 -181 q 106 -95 106 -157 l 106 996 l 265 996 l 768 189 l 768 996 l 897 996 l 897 0 l 745 0 l 235 806 l 235 0 l 228 0 l 228 -108 q 202 -227 228 -187 q 40 -293 159 -293 q 21 -292 31 -293 q -9 -290 12 -292 l -9 -184 z "},"ƞ":{"ha":772,"x_min":90,"x_max":682,"o":"m 90 726 l 205 726 l 205 623 q 315 715 257 687 q 443 743 372 743 q 652 635 597 743 q 682 466 682 576 l 682 -269 l 557 -269 l 557 458 q 538 565 557 524 q 420 633 505 633 q 349 624 376 633 q 260 564 298 609 q 221 490 230 528 q 212 380 212 452 l 212 0 l 90 0 l 90 726 z "},"Ɵ":{"ha":1080,"x_min":54,"x_max":1025,"o":"m 926 854 q 1025 515 1025 722 q 912 144 1025 292 q 533 -29 779 -29 q 172 123 303 -29 q 54 493 54 269 q 155 839 54 695 q 536 1023 283 1023 q 926 854 800 1023 m 277 205 q 549 92 361 92 q 807 219 728 92 q 884 450 871 322 l 195 450 q 277 205 203 307 m 795 796 q 544 903 703 903 q 292 797 389 903 q 197 549 210 708 l 886 549 q 795 796 878 700 z "},"Ơ":{"ha":1234,"x_min":54,"x_max":1193,"o":"m 1025 515 q 912 144 1025 292 q 533 -29 779 -29 q 172 123 303 -29 q 54 493 54 269 q 155 839 54 695 q 536 1023 283 1023 q 909 874 783 1023 q 956 875 929 869 q 1015 888 988 877 l 1022 891 q 1029 897 1025 893 l 1001 964 l 1137 1021 l 1193 887 l 1066 835 q 957 807 1010 811 q 1025 515 1025 687 m 887 513 q 795 796 887 689 q 544 903 703 903 q 292 797 389 903 q 194 484 194 691 q 278 205 194 319 q 549 92 361 92 q 807 219 728 92 q 887 513 887 347 z "},"ơ":{"ha":939,"x_min":40,"x_max":908,"o":"m 717 378 q 631 88 717 203 q 366 -26 546 -26 q 128 75 216 -26 q 40 347 40 176 q 133 639 40 530 q 382 747 226 747 q 620 654 523 747 q 648 621 635 639 q 671 624 659 621 q 730 637 703 626 l 737 640 q 744 646 741 642 l 716 713 l 852 770 l 908 636 l 781 584 q 685 557 732 563 q 717 378 717 482 m 589 375 q 557 541 589 477 q 379 641 505 641 q 216 555 267 641 q 165 349 165 470 q 216 156 165 233 q 378 79 267 79 q 544 171 499 79 q 589 375 589 262 z "},"Ʀ":{"ha":886,"x_min":35,"x_max":863,"o":"m 35 996 l 170 996 l 170 861 l 496 861 q 684 827 610 861 q 825 592 825 764 q 788 446 825 503 q 684 354 751 389 q 772 292 743 330 q 805 166 802 253 l 810 33 q 819 -52 812 -24 q 863 -113 831 -100 l 863 -136 l 697 -136 q 686 -102 690 -123 q 680 -24 682 -82 l 671 142 q 599 273 667 240 q 477 292 560 292 l 170 292 l 170 0 l 35 0 l 35 996 m 482 404 q 632 442 577 404 q 688 579 688 480 q 610 724 688 686 q 500 745 569 745 l 170 745 l 170 404 l 482 404 z "},"Ƨ":{"ha":926,"x_min":65,"x_max":861,"o":"m 859 321 q 756 66 861 160 q 465 -29 651 -29 q 185 42 306 -29 q 65 279 65 113 q 160 481 65 412 q 316 545 215 522 l 456 576 q 637 631 597 609 q 698 738 698 665 q 646 854 698 804 q 474 905 593 905 q 264 827 326 905 q 221 704 231 784 l 94 704 q 204 946 94 870 q 470 1021 313 1021 q 733 935 640 1021 q 826 715 826 849 q 731 528 826 591 q 544 463 676 492 l 409 432 q 248 373 299 407 q 197 257 197 338 q 317 106 197 149 q 456 85 380 85 q 692 184 625 85 q 732 321 728 237 l 859 321 z "},"ƨ":{"ha":694,"x_min":45,"x_max":644,"o":"m 644 228 q 572 46 640 119 q 342 -28 505 -28 q 118 43 192 -28 q 45 210 45 113 q 116 357 45 311 q 292 419 161 387 l 373 439 q 453 469 426 452 q 500 545 500 497 q 464 614 500 588 q 359 641 429 641 q 214 593 256 641 q 184 517 188 559 l 69 517 q 113 649 68 588 q 350 745 186 745 q 550 682 475 745 q 624 515 624 618 q 545 378 624 427 q 408 326 501 349 l 311 302 q 207 267 233 282 q 165 196 165 243 q 217 105 165 134 q 336 75 269 75 q 496 134 450 75 q 527 228 522 167 l 644 228 z "},"Ʃ":{"ha":798,"x_min":39,"x_max":758,"o":"m 39 111 l 443 496 l 69 882 l 69 993 l 742 993 l 742 882 l 227 882 l 600 496 l 196 111 l 758 111 l 758 0 l 39 0 l 39 111 z "},"Ʈ":{"ha":848,"x_min":22,"x_max":831,"o":"m 243 -184 q 341 -169 325 -181 q 358 -95 358 -157 l 358 878 l 22 878 l 22 996 l 831 996 l 831 878 l 495 878 l 495 -108 q 469 -227 495 -187 q 292 -293 412 -293 q 274 -292 283 -293 q 243 -290 264 -292 l 243 -184 z "},"Ư":{"ha":1198,"x_min":115,"x_max":1162,"o":"m 252 996 l 252 380 q 293 200 252 272 q 496 92 353 92 q 730 209 668 92 q 763 380 763 273 l 763 996 l 900 996 l 900 910 q 924 913 911 910 q 983 926 957 915 l 991 929 q 998 935 994 931 l 970 1002 l 1106 1059 l 1162 925 l 1035 873 q 900 844 965 843 l 900 437 q 850 154 900 253 q 507 -26 760 -26 q 165 154 255 -26 q 115 437 115 253 l 115 996 l 252 996 z "},"ư":{"ha":969,"x_min":87,"x_max":939,"o":"m 212 726 l 212 244 q 229 153 212 189 q 351 88 262 88 q 524 202 478 88 q 549 370 549 263 l 549 726 l 671 726 l 671 621 q 701 624 685 621 q 760 637 734 626 l 768 640 q 774 646 771 642 l 747 713 l 883 770 l 939 636 l 812 584 q 671 556 739 553 l 671 0 l 556 0 l 557 107 q 498 37 534 66 q 329 -20 429 -20 q 117 84 174 -20 q 87 233 87 140 l 87 726 l 212 726 z "},"Ʊ":{"ha":1048,"x_min":56,"x_max":989,"o":"m 864 470 q 794 722 864 600 q 608 894 725 845 l 608 1006 l 989 1006 l 989 895 l 736 895 q 904 749 819 862 q 989 470 989 637 q 869 132 989 264 q 522 -1 749 -1 q 176 131 296 -1 q 56 470 56 263 q 140 749 56 637 q 309 895 224 862 l 56 895 l 56 1006 l 436 1006 l 436 894 q 250 724 319 845 q 180 470 180 602 q 271 221 180 317 q 519 125 362 125 q 772 220 680 125 q 864 470 864 316 z "},"Ƶ":{"ha":848,"x_min":32,"x_max":817,"o":"m 32 112 l 351 511 l 203 511 l 203 591 l 414 591 l 643 878 l 77 878 l 77 996 l 817 996 l 817 880 l 583 591 l 705 591 l 705 511 l 519 511 l 202 119 l 817 119 l 817 0 l 32 0 l 32 112 z "},"ƶ":{"ha":694,"x_min":35,"x_max":643,"o":"m 35 96 l 244 349 l 127 349 l 127 429 l 311 429 l 466 617 l 67 617 l 67 726 l 630 726 l 630 627 l 467 429 l 561 429 l 561 349 l 401 349 l 202 109 l 643 109 l 643 0 l 35 0 l 35 96 z "},"Ʒ":{"ha":763,"x_min":23,"x_max":726,"o":"m 173 564 l 547 885 l 31 885 l 31 996 l 704 996 l 704 885 l 460 673 q 633 573 562 655 q 726 275 726 467 q 621 56 726 119 q 374 -7 516 -7 q 145 59 247 -7 q 23 271 43 126 l 142 271 q 223 143 159 190 q 364 97 288 97 q 530 131 463 97 q 596 274 596 165 q 555 476 596 382 q 397 570 513 570 l 330 564 l 173 564 z "},"Ƹ":{"ha":763,"x_min":37,"x_max":740,"o":"m 433 564 l 366 570 q 208 476 250 570 q 167 274 167 382 q 233 131 167 165 q 399 97 300 97 q 539 143 475 97 q 621 271 604 190 l 740 271 q 618 59 720 126 q 389 -7 516 -7 q 142 56 247 -7 q 37 275 37 119 q 130 573 37 467 q 303 673 201 655 l 59 885 l 59 996 l 732 996 l 732 885 l 216 885 l 590 564 l 433 564 z "},"ƹ":{"ha":695,"x_min":35,"x_max":671,"o":"m 431 290 l 365 297 q 207 203 248 297 q 165 1 165 109 q 229 -149 165 -109 q 391 -190 292 -190 q 501 -137 467 -190 q 552 -3 535 -83 l 671 -3 q 579 -221 650 -147 q 381 -294 508 -294 q 137 -224 239 -294 q 35 2 35 -154 q 128 300 35 193 q 302 400 199 382 l 58 612 l 58 723 l 663 723 l 663 612 l 215 612 l 589 290 l 431 290 z "},"ƻ":{"ha":787,"x_min":47,"x_max":750,"o":"m 275 387 l 405 463 q 528 549 492 513 q 583 678 583 606 q 532 813 583 763 q 397 863 481 863 q 223 768 271 863 q 195 627 197 717 l 71 627 q 117 833 73 753 q 397 975 197 975 q 641 884 564 975 q 718 684 718 794 q 636 484 718 567 q 466 368 589 436 l 373 316 q 269 246 307 279 q 183 115 201 187 l 713 115 l 713 0 l 47 0 q 99 218 54 125 q 275 387 144 311 m 85 431 l 85 527 l 750 527 l 750 431 l 85 431 z "},"ǀ":{"ha":361,"x_min":123,"x_max":239,"o":"m 239 0 l 123 0 l 123 1010 l 239 1010 l 239 0 z "},"ǁ":{"ha":599,"x_min":123,"x_max":477,"o":"m 239 0 l 123 0 l 123 1010 l 239 1010 l 239 0 m 477 0 l 361 0 l 361 1010 l 477 1010 l 477 0 z "},"ǂ":{"ha":789,"x_min":29,"x_max":736,"o":"m 736 680 l 736 566 l 434 566 l 434 389 l 736 389 l 736 273 l 434 273 l 434 0 l 318 0 l 318 273 l 29 273 l 29 389 l 318 389 l 318 566 l 29 566 l 29 680 l 318 680 l 318 1010 l 434 1010 l 434 680 l 736 680 z "},"ǃ":{"ha":386,"x_min":132,"x_max":270,"o":"m 132 996 l 270 996 l 270 669 l 237 237 l 168 237 l 132 669 l 132 996 m 132 141 l 267 141 l 267 0 l 132 0 l 132 141 z "},"Ǆ":{"ha":1716,"x_min":79,"x_max":1671,"o":"m 455 115 q 568 130 524 115 q 696 231 646 156 q 754 386 736 292 q 764 490 764 442 q 691 778 764 675 q 454 880 617 880 l 214 880 l 214 115 l 455 115 m 79 996 l 482 996 q 801 850 688 996 q 902 513 902 719 q 842 227 902 355 q 481 0 737 0 l 79 0 l 79 996 m 886 115 l 1497 881 l 931 881 l 931 1000 l 1671 1000 l 1671 884 l 1057 122 l 1671 122 l 1671 3 l 886 3 l 886 115 m 1301 1000 m 1338 1079 l 1209 1079 l 1072 1275 l 1182 1275 l 1274 1145 l 1365 1275 l 1476 1275 l 1338 1079 z "},"ǅ":{"ha":1520,"x_min":54,"x_max":1497,"o":"m 430 115 q 543 130 498 115 q 671 231 621 156 q 729 386 711 292 q 739 490 739 442 q 666 778 739 675 q 429 880 592 880 l 189 880 l 189 115 l 430 115 m 54 996 l 457 996 q 776 850 663 996 q 877 513 877 719 q 817 227 877 355 q 456 0 712 0 l 54 0 l 54 996 m 890 96 l 1320 617 l 922 617 l 922 726 l 1485 726 l 1485 627 l 1057 109 l 1497 109 l 1497 0 l 890 0 l 890 96 m 1204 744 m 1272 812 l 1143 812 l 1005 1008 l 1116 1008 l 1207 878 l 1299 1008 l 1410 1008 l 1272 812 z "},"ǆ":{"ha":1364,"x_min":38,"x_max":1343,"o":"m 167 355 q 216 159 167 238 q 375 81 266 81 q 514 154 460 81 q 569 363 569 227 q 513 567 569 500 q 374 633 456 633 q 224 562 281 633 q 167 355 167 492 m 351 739 q 490 704 434 739 q 564 633 523 684 l 564 1000 l 682 1000 l 682 0 l 572 0 l 572 101 q 471 4 529 34 q 337 -26 412 -26 q 127 76 216 -26 q 38 348 38 178 q 119 623 38 507 q 351 739 200 739 m 735 96 l 1166 617 l 767 617 l 767 726 l 1330 726 l 1330 627 l 902 109 l 1343 109 l 1343 0 l 735 0 l 735 96 m 1049 744 m 1131 808 l 1002 808 l 865 1004 l 975 1004 l 1067 873 l 1158 1004 l 1270 1004 l 1131 808 z "},"Ǉ":{"ha":1363,"x_min":73,"x_max":1327,"o":"m 73 996 l 208 996 l 208 119 l 712 119 l 712 0 l 73 0 l 73 996 m 1327 297 q 1290 101 1327 171 q 1027 -26 1221 -26 q 836 34 915 -26 q 756 250 756 95 l 756 321 l 883 321 l 883 250 q 919 128 883 169 q 1032 87 956 87 q 1173 161 1140 87 q 1194 332 1194 206 l 1194 996 l 1327 996 l 1327 297 z "},"ǈ":{"ha":981,"x_min":77,"x_max":948,"o":"m 77 996 l 212 996 l 212 119 l 716 119 l 716 0 l 77 0 l 77 996 m 948 855 l 826 855 l 826 996 l 948 996 l 948 855 m 711 -184 q 809 -169 793 -181 q 826 -95 826 -157 l 826 723 l 948 723 l 948 -108 q 922 -227 948 -187 q 760 -293 880 -293 q 742 -292 751 -293 q 711 -290 732 -292 l 711 -184 z "},"ǉ":{"ha":515,"x_min":60,"x_max":480,"o":"m 60 996 l 182 996 l 182 0 l 60 0 l 60 996 m 480 855 l 358 855 l 358 996 l 480 996 l 480 855 m 243 -184 q 341 -169 325 -181 q 358 -95 358 -157 l 358 723 l 480 723 l 480 -108 q 454 -227 480 -187 q 292 -293 412 -293 q 274 -292 283 -293 q 243 -290 264 -292 l 243 -184 z "},"Ǌ":{"ha":1546,"x_min":77,"x_max":1485,"o":"m 77 996 l 236 996 l 739 189 l 739 996 l 867 996 l 867 0 l 716 0 l 205 806 l 205 0 l 77 0 l 77 996 m 463 996 m 1485 315 q 1448 119 1485 189 q 1185 -8 1379 -8 q 994 53 1073 -8 q 914 269 914 113 l 914 340 l 1041 340 l 1041 269 q 1077 146 1041 187 q 1190 105 1114 105 q 1331 179 1298 105 q 1352 351 1352 224 l 1352 1015 l 1485 1015 l 1485 315 z "},"ǋ":{"ha":1204,"x_min":73,"x_max":1175,"o":"m 73 996 l 232 996 l 735 189 l 735 996 l 863 996 l 863 0 l 712 0 l 201 806 l 201 0 l 73 0 l 73 996 m 459 996 m 1175 855 l 1053 855 l 1053 996 l 1175 996 l 1175 855 m 937 -184 q 1036 -169 1019 -181 q 1053 -95 1053 -157 l 1053 723 l 1175 723 l 1175 -108 q 1149 -227 1175 -187 q 987 -293 1106 -293 q 968 -292 978 -293 q 937 -290 958 -292 l 937 -184 z "},"ǌ":{"ha":977,"x_min":56,"x_max":944,"o":"m 56 726 l 172 726 l 172 623 q 281 715 224 687 q 410 743 339 743 q 618 635 564 743 q 648 466 648 576 l 648 0 l 524 0 l 524 458 q 505 565 524 524 q 387 633 472 633 q 315 624 343 633 q 227 564 265 609 q 188 490 197 528 q 178 380 178 452 l 178 0 l 56 0 l 56 726 m 343 744 m 944 855 l 822 855 l 822 996 l 944 996 l 944 855 m 707 -184 q 805 -169 789 -181 q 822 -95 822 -157 l 822 723 l 944 723 l 944 -108 q 918 -227 944 -187 q 756 -293 876 -293 q 738 -292 747 -293 q 707 -290 728 -292 l 707 -184 z "},"Ǎ":{"ha":926,"x_min":20,"x_max":909,"o":"m 617 408 l 466 848 l 305 408 l 617 408 m 395 996 l 548 996 l 909 0 l 762 0 l 661 298 l 267 298 l 159 0 l 20 0 l 395 996 m 465 996 m 557 1072 l 428 1072 l 290 1267 l 401 1267 l 492 1137 l 584 1267 l 695 1267 l 557 1072 z "},"ǎ":{"ha":772,"x_min":56,"x_max":743,"o":"m 183 193 q 222 110 183 140 q 313 79 260 79 q 438 109 378 79 q 540 271 540 159 l 540 370 q 482 346 517 355 q 413 332 447 336 l 339 323 q 239 295 273 314 q 183 193 183 263 m 479 440 q 535 475 521 446 q 543 522 543 492 q 499 613 543 585 q 372 641 454 641 q 236 589 276 641 q 207 505 214 561 l 93 505 q 180 691 96 639 q 374 744 264 744 q 583 695 503 744 q 662 543 662 646 l 662 125 q 670 94 662 106 q 703 83 677 83 q 721 84 711 83 q 743 87 731 85 l 743 -3 q 699 -14 714 -12 q 659 -16 684 -16 q 567 29 595 -16 q 546 96 552 53 q 439 12 509 47 q 285 -24 369 -24 q 120 37 184 -24 q 56 191 56 98 q 119 347 56 292 q 284 416 182 403 l 479 440 m 378 744 m 469 801 l 340 801 l 203 997 l 313 997 l 405 867 l 496 997 l 608 997 l 469 801 z "},"Ǐ":{"ha":386,"x_min":20,"x_max":425,"o":"m 136 996 l 273 996 l 273 0 l 136 0 l 136 996 m 287 1076 l 158 1076 l 20 1272 l 131 1272 l 222 1141 l 314 1272 l 425 1272 l 287 1076 z "},"ǐ":{"ha":386,"x_min":-1,"x_max":404,"o":"m 128 723 l 252 723 l 252 0 l 128 0 l 128 723 m 191 744 m 266 815 l 137 815 l -1 1011 l 110 1011 l 201 881 l 293 1011 l 404 1011 l 266 815 z "},"Ǒ":{"ha":1080,"x_min":54,"x_max":1025,"o":"m 536 1023 q 926 854 800 1023 q 1025 515 1025 722 q 912 144 1025 292 q 533 -29 779 -29 q 172 123 303 -29 q 54 493 54 269 q 155 839 54 695 q 536 1023 283 1023 m 549 92 q 807 219 728 92 q 887 513 887 347 q 795 796 887 689 q 544 903 703 903 q 292 797 389 903 q 194 484 194 691 q 278 205 194 319 q 549 92 361 92 m 540 1023 m 621 1095 l 492 1095 l 355 1291 l 465 1291 l 557 1160 l 648 1291 l 760 1291 l 621 1095 z "},"ǒ":{"ha":772,"x_min":40,"x_max":717,"o":"m 378 79 q 544 171 499 79 q 589 375 589 262 q 557 541 589 477 q 379 641 505 641 q 216 555 267 641 q 165 349 165 470 q 216 156 165 233 q 378 79 267 79 m 382 747 q 620 654 523 747 q 717 378 717 560 q 631 88 717 203 q 366 -26 546 -26 q 128 75 216 -26 q 40 347 40 176 q 133 639 40 530 q 382 747 226 747 m 378 744 m 467 814 l 338 814 l 201 1010 l 311 1010 l 403 880 l 494 1010 l 606 1010 l 467 814 z "},"Ǔ":{"ha":1003,"x_min":115,"x_max":900,"o":"m 252 996 l 252 380 q 293 200 252 272 q 496 92 353 92 q 730 209 668 92 q 763 380 763 273 l 763 996 l 900 996 l 900 437 q 850 154 900 253 q 507 -26 760 -26 q 165 154 255 -26 q 115 437 115 253 l 115 996 l 252 996 m 508 996 m 596 1050 l 467 1050 l 330 1246 l 440 1246 l 532 1116 l 623 1246 l 734 1246 l 596 1050 z "},"ǔ":{"ha":772,"x_min":87,"x_max":671,"o":"m 212 726 l 212 244 q 229 153 212 189 q 351 88 262 88 q 524 202 478 88 q 549 370 549 263 l 549 726 l 671 726 l 671 0 l 556 0 l 557 107 q 498 37 534 66 q 329 -20 429 -20 q 117 84 174 -20 q 87 233 87 140 l 87 726 l 212 726 m 379 744 m 468 793 l 339 793 l 201 989 l 312 989 l 404 859 l 495 989 l 606 989 l 468 793 z "},"Ǖ":{"ha":1003,"x_min":115,"x_max":900,"o":"m 252 996 l 252 380 q 293 200 252 272 q 496 92 353 92 q 730 209 668 92 q 763 380 763 273 l 763 996 l 900 996 l 900 437 q 850 154 900 253 q 507 -26 760 -26 q 165 154 255 -26 q 115 437 115 253 l 115 996 l 252 996 m 508 996 m 572 1200 l 699 1200 l 699 1059 l 572 1059 l 572 1200 m 349 1200 l 475 1200 l 475 1059 l 349 1059 l 349 1200 m 301 1360 l 735 1360 l 735 1280 l 301 1280 l 301 1360 z "},"ǖ":{"ha":772,"x_min":87,"x_max":671,"o":"m 212 726 l 212 244 q 229 153 212 189 q 351 88 262 88 q 524 202 478 88 q 549 370 549 263 l 549 726 l 671 726 l 671 0 l 556 0 l 557 107 q 498 37 534 66 q 329 -20 429 -20 q 117 84 174 -20 q 87 233 87 140 l 87 726 l 212 726 m 379 744 m 444 926 l 570 926 l 570 785 l 444 785 l 444 926 m 220 926 l 347 926 l 347 785 l 220 785 l 220 926 m 187 1082 l 621 1082 l 621 1002 l 187 1002 l 187 1082 z "},"Ǘ":{"ha":1003,"x_min":115,"x_max":900,"o":"m 252 996 l 252 380 q 293 200 252 272 q 496 92 353 92 q 730 209 668 92 q 763 380 763 273 l 763 996 l 900 996 l 900 437 q 850 154 900 253 q 507 -26 760 -26 q 165 154 255 -26 q 115 437 115 253 l 115 996 l 252 996 m 508 996 m 572 1185 l 699 1185 l 699 1044 l 572 1044 l 572 1185 m 349 1185 l 475 1185 l 475 1044 l 349 1044 l 349 1185 m 718 1437 l 536 1241 l 443 1241 l 567 1437 l 718 1437 z "},"ǘ":{"ha":772,"x_min":87,"x_max":671,"o":"m 212 726 l 212 244 q 229 153 212 189 q 351 88 262 88 q 524 202 478 88 q 549 370 549 263 l 549 726 l 671 726 l 671 0 l 556 0 l 557 107 q 498 37 534 66 q 329 -20 429 -20 q 117 84 174 -20 q 87 233 87 140 l 87 726 l 212 726 m 379 744 m 428 929 l 555 929 l 555 788 l 428 788 l 428 929 m 204 929 l 331 929 l 331 788 l 204 788 l 204 929 m 580 1188 l 399 992 l 305 992 l 429 1188 l 580 1188 z "},"Ǚ":{"ha":1003,"x_min":115,"x_max":900,"o":"m 252 996 l 252 380 q 293 200 252 272 q 496 92 353 92 q 730 209 668 92 q 763 380 763 273 l 763 996 l 900 996 l 900 437 q 850 154 900 253 q 507 -26 760 -26 q 165 154 255 -26 q 115 437 115 253 l 115 996 l 252 996 m 508 996 m 556 1181 l 683 1181 l 683 1040 l 556 1040 l 556 1181 m 332 1181 l 459 1181 l 459 1040 l 332 1040 l 332 1181 m 576 1230 l 448 1230 l 310 1426 l 420 1426 l 512 1296 l 604 1426 l 715 1426 l 576 1230 z "},"ǚ":{"ha":772,"x_min":87,"x_max":671,"o":"m 212 726 l 212 244 q 229 153 212 189 q 351 88 262 88 q 524 202 478 88 q 549 370 549 263 l 549 726 l 671 726 l 671 0 l 556 0 l 557 107 q 498 37 534 66 q 329 -20 429 -20 q 117 84 174 -20 q 87 233 87 140 l 87 726 l 212 726 m 379 744 m 430 907 l 557 907 l 557 766 l 430 766 l 430 907 m 206 907 l 333 907 l 333 766 l 206 766 l 206 907 m 447 958 l 318 958 l 180 1154 l 291 1154 l 382 1023 l 474 1154 l 585 1154 l 447 958 z "},"Ǜ":{"ha":1003,"x_min":115,"x_max":900,"o":"m 252 996 l 252 380 q 293 200 252 272 q 496 92 353 92 q 730 209 668 92 q 763 380 763 273 l 763 996 l 900 996 l 900 437 q 850 154 900 253 q 507 -26 760 -26 q 165 154 255 -26 q 115 437 115 253 l 115 996 l 252 996 m 508 996 m 549 1167 l 675 1167 l 675 1026 l 549 1026 l 549 1167 m 325 1167 l 452 1167 l 452 1026 l 325 1026 l 325 1167 m 563 1206 l 470 1206 l 288 1402 l 439 1402 l 563 1206 z "},"ǜ":{"ha":772,"x_min":87,"x_max":671,"o":"m 212 726 l 212 244 q 229 153 212 189 q 351 88 262 88 q 524 202 478 88 q 549 370 549 263 l 549 726 l 671 726 l 671 0 l 556 0 l 557 107 q 498 37 534 66 q 329 -20 429 -20 q 117 84 174 -20 q 87 233 87 140 l 87 726 l 212 726 m 379 744 m 429 910 l 555 910 l 555 769 l 429 769 l 429 910 m 205 910 l 332 910 l 332 769 l 205 769 l 205 910 m 446 954 l 353 954 l 172 1149 l 323 1149 l 446 954 z "},"ǝ":{"ha":772,"x_min":49,"x_max":712,"o":"m 109 104 q 60 232 72 159 q 49 392 49 282 l 581 392 q 529 569 578 503 q 378 636 480 636 q 225 573 282 636 q 179 488 193 536 l 59 488 q 91 577 64 528 q 151 658 117 627 q 288 731 206 712 q 388 742 332 742 q 618 643 524 742 q 712 367 712 545 q 617 83 712 192 q 369 -26 522 -26 q 219 10 292 -26 q 109 104 146 46 m 174 295 q 209 168 182 216 q 376 80 259 80 q 517 141 460 80 q 578 295 574 201 l 174 295 z "},"Ǟ":{"ha":926,"x_min":20,"x_max":909,"o":"m 617 408 l 466 848 l 305 408 l 617 408 m 395 996 l 548 996 l 909 0 l 762 0 l 661 298 l 267 298 l 159 0 l 20 0 l 395 996 m 465 996 m 524 1195 l 650 1195 l 650 1054 l 524 1054 l 524 1195 m 300 1195 l 427 1195 l 427 1054 l 300 1054 l 300 1195 m 250 1324 l 684 1324 l 684 1244 l 250 1244 l 250 1324 z "},"ǟ":{"ha":772,"x_min":56,"x_max":743,"o":"m 183 193 q 222 110 183 140 q 313 79 260 79 q 438 109 378 79 q 540 271 540 159 l 540 370 q 482 346 517 355 q 413 332 447 336 l 339 323 q 239 295 273 314 q 183 193 183 263 m 479 440 q 535 475 521 446 q 543 522 543 492 q 499 613 543 585 q 372 641 454 641 q 236 589 276 641 q 207 505 214 561 l 93 505 q 180 691 96 639 q 374 744 264 744 q 583 695 503 744 q 662 543 662 646 l 662 125 q 670 94 662 106 q 703 83 677 83 q 721 84 711 83 q 743 87 731 85 l 743 -3 q 699 -14 714 -12 q 659 -16 684 -16 q 567 29 595 -16 q 546 96 552 53 q 439 12 509 47 q 285 -24 369 -24 q 120 37 184 -24 q 56 191 56 98 q 119 347 56 292 q 284 416 182 403 l 479 440 m 378 744 m 414 964 l 541 964 l 541 823 l 414 823 l 414 964 m 190 964 l 317 964 l 317 823 l 190 823 l 190 964 m 141 1118 l 575 1118 l 575 1038 l 141 1038 l 141 1118 z "},"Ǡ":{"ha":926,"x_min":20,"x_max":909,"o":"m 617 408 l 466 848 l 305 408 l 617 408 m 395 996 l 548 996 l 909 0 l 762 0 l 661 298 l 267 298 l 159 0 l 20 0 l 395 996 m 465 996 m 405 1193 l 532 1193 l 532 1052 l 405 1052 l 405 1193 m 245 1324 l 680 1324 l 680 1244 l 245 1244 l 245 1324 z "},"ǡ":{"ha":772,"x_min":56,"x_max":743,"o":"m 183 193 q 222 110 183 140 q 313 79 260 79 q 438 109 378 79 q 540 271 540 159 l 540 370 q 482 346 517 355 q 413 332 447 336 l 339 323 q 239 295 273 314 q 183 193 183 263 m 479 440 q 535 475 521 446 q 543 522 543 492 q 499 613 543 585 q 372 641 454 641 q 236 589 276 641 q 207 505 214 561 l 93 505 q 180 691 96 639 q 374 744 264 744 q 583 695 503 744 q 662 543 662 646 l 662 125 q 670 94 662 106 q 703 83 677 83 q 721 84 711 83 q 743 87 731 85 l 743 -3 q 699 -14 714 -12 q 659 -16 684 -16 q 567 29 595 -16 q 546 96 552 53 q 439 12 509 47 q 285 -24 369 -24 q 120 37 184 -24 q 56 191 56 98 q 119 347 56 292 q 284 416 182 403 l 479 440 m 378 744 m 305 979 l 432 979 l 432 838 l 305 838 l 305 979 m 149 1122 l 583 1122 l 583 1042 l 149 1042 l 149 1122 z "},"Ǣ":{"ha":1389,"x_min":11,"x_max":1321,"o":"m 500 880 l 315 410 l 635 410 l 635 880 l 500 880 m 416 996 l 1308 996 l 1308 878 l 768 878 l 768 572 l 1263 572 l 1263 459 l 768 459 l 768 119 l 1321 119 l 1321 0 l 635 0 l 635 296 l 268 296 l 157 0 l 11 0 l 416 996 m 606 1162 l 1040 1162 l 1040 1082 l 606 1082 l 606 1162 z "},"ǣ":{"ha":1235,"x_min":50,"x_max":1177,"o":"m 1046 421 q 988 582 1044 528 q 850 637 931 637 q 709 582 768 637 q 644 421 650 528 l 1046 421 m 530 370 q 497 352 513 358 q 439 338 481 345 l 336 323 q 228 292 260 311 q 174 195 174 261 q 217 107 174 138 q 319 77 260 77 q 396 94 352 77 q 477 146 440 111 q 521 210 511 177 q 530 278 527 230 l 530 370 m 465 440 q 516 465 499 445 q 533 520 533 484 q 495 609 533 578 q 374 640 457 640 q 265 618 306 640 q 197 503 197 578 l 80 503 q 200 712 87 656 q 379 744 265 744 q 534 711 469 744 q 616 635 588 682 q 716 715 656 687 q 852 744 777 744 q 998 716 931 744 q 1110 622 1065 688 q 1163 497 1150 568 q 1177 324 1177 426 l 643 324 q 699 146 646 212 q 845 80 751 80 q 979 119 933 80 q 1043 228 1025 157 l 1166 228 q 1121 116 1160 174 q 1038 31 1082 59 q 942 -13 991 -1 q 840 -24 892 -24 q 664 27 741 -24 q 574 130 593 79 q 447 12 518 48 q 294 -24 376 -24 q 113 34 177 -24 q 50 184 50 92 q 132 365 50 305 q 271 414 184 403 l 465 440 m 400 913 l 834 913 l 834 833 l 400 833 l 400 913 z "},"Ǥ":{"ha":1098,"x_min":34,"x_max":1076,"o":"m 664 254 l 664 350 l 813 350 q 819 421 818 383 l 507 421 l 507 533 l 944 533 l 944 350 l 1076 350 l 1076 254 l 944 254 l 944 0 l 857 0 l 825 128 q 703 24 756 53 q 477 -26 614 -26 q 173 88 300 -26 q 34 483 34 232 q 170 881 34 733 q 503 1022 298 1022 q 746 968 644 1022 q 928 694 895 890 l 794 694 q 693 853 770 804 q 500 903 616 903 q 267 800 361 903 q 172 490 172 696 q 250 201 172 313 q 505 90 328 90 q 728 168 640 90 q 788 254 766 201 l 664 254 z "},"ǥ":{"ha":830,"x_min":35,"x_max":810,"o":"m 488 697 q 559 628 523 673 l 559 720 l 671 720 l 671 418 l 810 418 l 810 321 l 671 321 l 671 59 q 631 -159 671 -79 q 344 -307 555 -307 q 146 -255 227 -307 q 57 -90 66 -202 l 181 -90 q 216 -165 190 -139 q 347 -206 258 -206 q 530 -107 487 -206 q 554 101 556 -49 q 466 18 517 45 q 330 -9 414 -9 q 123 75 212 -9 q 35 352 35 159 q 124 637 35 534 q 339 739 213 739 q 488 697 425 739 m 399 321 l 399 418 l 556 418 q 503 566 547 514 q 361 631 448 631 q 185 511 233 631 q 160 342 160 446 q 210 155 160 219 q 344 91 260 91 q 529 210 475 91 q 557 321 551 259 l 399 321 z "},"Ǧ":{"ha":1080,"x_min":67,"x_max":977,"o":"m 536 1022 q 779 968 677 1022 q 961 694 928 890 l 827 694 q 726 853 803 804 q 533 903 650 903 q 300 800 395 903 q 205 490 205 696 q 283 201 205 313 q 538 90 361 90 q 761 168 673 90 q 852 421 850 246 l 540 421 l 540 533 l 977 533 l 977 0 l 890 0 l 858 128 q 736 24 789 53 q 511 -26 648 -26 q 206 88 334 -26 q 67 483 67 232 q 203 881 67 733 q 536 1022 332 1022 m 514 1023 m 602 1084 l 473 1084 l 336 1280 l 446 1280 l 538 1150 l 629 1280 l 741 1280 l 602 1084 z "},"ǧ":{"ha":772,"x_min":41,"x_max":678,"o":"m 346 739 q 495 697 431 739 q 566 628 530 673 l 566 720 l 678 720 l 678 59 q 637 -159 678 -79 q 351 -307 562 -307 q 153 -255 233 -307 q 64 -90 73 -202 l 188 -90 q 223 -165 197 -139 q 353 -206 264 -206 q 537 -107 494 -206 q 561 101 563 -49 q 473 18 524 45 q 336 -9 421 -9 q 130 75 218 -9 q 41 352 41 159 q 131 637 41 534 q 346 739 220 739 m 566 366 q 510 566 566 501 q 368 631 454 631 q 192 511 239 631 q 167 342 167 446 q 217 155 167 219 q 351 91 267 91 q 536 210 482 91 q 566 366 566 277 m 360 744 m 414 834 l 285 834 l 147 1030 l 258 1030 l 349 900 l 441 1030 l 552 1030 l 414 834 z "},"Ǩ":{"ha":926,"x_min":106,"x_max":921,"o":"m 106 996 l 237 996 l 237 511 l 723 996 l 909 996 l 495 595 l 921 0 l 745 0 l 397 500 l 237 347 l 237 0 l 106 0 l 106 996 m 543 1056 l 414 1056 l 276 1252 l 387 1252 l 478 1122 l 570 1252 l 681 1252 l 543 1056 z "},"ǩ":{"ha":694,"x_min":87,"x_max":689,"o":"m 87 996 l 204 996 l 204 418 l 517 726 l 673 726 l 395 454 l 689 0 l 533 0 l 307 366 l 204 273 l 204 0 l 87 0 l 87 996 m 439 1039 l 310 1039 l 172 1235 l 283 1235 l 374 1105 l 466 1235 l 577 1235 l 439 1039 z "},"Ǫ":{"ha":1080,"x_min":54,"x_max":1025,"o":"m 536 1023 q 926 854 800 1023 q 1025 515 1025 722 q 912 144 1025 292 q 533 -29 779 -29 q 172 123 303 -29 q 54 493 54 269 q 155 839 54 695 q 536 1023 283 1023 m 549 92 q 807 219 728 92 q 887 513 887 347 q 795 796 887 689 q 544 903 703 903 q 292 797 389 903 q 194 484 194 691 q 278 205 194 319 q 549 92 361 92 m 540 1023 m 595 -22 l 556 -54 q 492 -116 506 -95 q 478 -164 478 -138 q 496 -208 478 -189 q 549 -226 514 -226 q 578 -222 567 -226 q 604 -212 590 -219 l 604 -300 q 564 -315 581 -310 q 494 -323 530 -323 q 394 -286 429 -323 q 359 -200 359 -248 q 399 -101 359 -145 q 496 -22 430 -66 l 595 -22 z "},"ǫ":{"ha":772,"x_min":40,"x_max":717,"o":"m 378 79 q 544 171 499 79 q 589 375 589 262 q 557 541 589 477 q 379 641 505 641 q 216 555 267 641 q 165 349 165 470 q 216 156 165 233 q 378 79 267 79 m 382 747 q 620 654 523 747 q 717 378 717 560 q 631 88 717 203 q 366 -26 546 -26 q 128 75 216 -26 q 40 347 40 176 q 133 639 40 530 q 382 747 226 747 m 378 744 m 434 -19 l 395 -52 q 331 -114 345 -92 q 317 -161 317 -135 q 335 -205 317 -186 q 387 -223 353 -223 q 417 -220 406 -223 q 442 -209 429 -216 l 442 -298 q 402 -312 420 -307 q 333 -321 368 -321 q 233 -283 268 -321 q 198 -197 198 -245 q 237 -98 198 -142 q 334 -19 269 -63 l 434 -19 z "},"Ǭ":{"ha":1080,"x_min":54,"x_max":1025,"o":"m 536 1023 q 926 854 800 1023 q 1025 515 1025 722 q 912 144 1025 292 q 533 -29 779 -29 q 172 123 303 -29 q 54 493 54 269 q 155 839 54 695 q 536 1023 283 1023 m 549 92 q 807 219 728 92 q 887 513 887 347 q 795 796 887 689 q 544 903 703 903 q 292 797 389 903 q 194 484 194 691 q 278 205 194 319 q 549 92 361 92 m 540 1023 m 595 -22 l 556 -54 q 492 -116 506 -95 q 478 -164 478 -138 q 496 -208 478 -189 q 549 -226 514 -226 q 578 -222 567 -226 q 604 -212 590 -219 l 604 -300 q 564 -315 581 -310 q 494 -323 530 -323 q 394 -286 429 -323 q 359 -200 359 -248 q 399 -101 359 -145 q 496 -22 430 -66 l 595 -22 m 304 1189 l 739 1189 l 739 1109 l 304 1109 l 304 1189 z "},"ǭ":{"ha":772,"x_min":40,"x_max":717,"o":"m 378 79 q 544 171 499 79 q 589 375 589 262 q 557 541 589 477 q 379 641 505 641 q 216 555 267 641 q 165 349 165 470 q 216 156 165 233 q 378 79 267 79 m 382 747 q 620 654 523 747 q 717 378 717 560 q 631 88 717 203 q 366 -26 546 -26 q 128 75 216 -26 q 40 347 40 176 q 133 639 40 530 q 382 747 226 747 m 378 744 m 434 -19 l 395 -52 q 331 -114 345 -92 q 317 -161 317 -135 q 335 -205 317 -186 q 387 -223 353 -223 q 417 -220 406 -223 q 442 -209 429 -216 l 442 -298 q 402 -312 420 -307 q 333 -321 368 -321 q 233 -283 268 -321 q 198 -197 198 -245 q 237 -98 198 -142 q 334 -19 269 -63 l 434 -19 m 149 920 l 583 920 l 583 840 l 149 840 l 149 920 z "},"Ǯ":{"ha":746,"x_min":18,"x_max":722,"o":"m 168 564 l 542 885 l 26 885 l 26 996 l 699 996 l 699 885 l 455 673 q 629 573 557 655 q 722 275 722 467 q 616 56 722 119 q 369 -7 511 -7 q 140 59 242 -7 q 18 271 39 126 l 137 271 q 219 143 154 190 q 359 97 283 97 q 525 131 458 97 q 591 274 591 165 q 550 476 591 382 q 392 570 509 570 l 326 564 l 168 564 m 421 1094 l 292 1094 l 155 1290 l 265 1290 l 357 1160 l 448 1290 l 559 1290 l 421 1094 z "},"ǯ":{"ha":680,"x_min":20,"x_max":655,"o":"m 102 290 l 475 612 l 28 612 l 28 723 l 633 723 l 633 612 l 389 400 q 562 300 491 382 q 655 2 655 193 q 553 -224 655 -154 q 309 -294 452 -294 q 111 -221 182 -294 q 20 -3 40 -147 l 138 -3 q 190 -137 155 -83 q 300 -190 224 -190 q 462 -149 399 -190 q 525 1 525 -109 q 484 203 525 109 q 326 297 442 297 l 259 290 l 102 290 m 395 823 l 267 823 l 129 1019 l 239 1019 l 331 888 l 422 1019 l 534 1019 l 395 823 z "},"ǰ":{"ha":309,"x_min":-45,"x_max":360,"o":"m -26 -184 q 73 -169 56 -181 q 90 -95 90 -157 l 90 723 l 212 723 l 212 -108 q 186 -227 212 -187 q 24 -293 143 -293 q 5 -292 15 -293 q -26 -290 -5 -292 l -26 -184 m 222 816 l 93 816 l -45 1012 l 66 1012 l 157 882 l 249 1012 l 360 1012 l 222 816 z "},"Ǳ":{"ha":1702,"x_min":57,"x_max":1660,"o":"m 433 115 q 546 130 502 115 q 675 231 625 156 q 732 386 715 292 q 743 490 743 442 q 669 778 743 675 q 432 880 595 880 l 193 880 l 193 115 l 433 115 m 57 996 l 460 996 q 779 850 666 996 q 880 513 880 719 q 821 227 880 355 q 459 0 715 0 l 57 0 l 57 996 m 876 115 l 1487 881 l 920 881 l 920 1000 l 1660 1000 l 1660 884 l 1046 122 l 1660 122 l 1660 3 l 876 3 l 876 115 m 1291 1000 z "},"ǲ":{"ha":1560,"x_min":75,"x_max":1519,"o":"m 452 115 q 564 130 520 115 q 693 231 643 156 q 751 386 733 292 q 761 490 761 442 q 687 778 761 675 q 450 880 614 880 l 211 880 l 211 115 l 452 115 m 75 996 l 479 996 q 798 850 684 996 q 899 513 899 719 q 839 227 899 355 q 477 0 734 0 l 75 0 l 75 996 m 911 96 l 1342 617 l 943 617 l 943 726 l 1506 726 l 1506 627 l 1078 109 l 1519 109 l 1519 0 l 911 0 l 911 96 m 1225 744 z "},"ǳ":{"ha":1385,"x_min":38,"x_max":1339,"o":"m 167 355 q 216 159 167 238 q 375 81 266 81 q 514 154 460 81 q 569 363 569 227 q 513 567 569 500 q 374 633 456 633 q 224 562 281 633 q 167 355 167 492 m 351 739 q 490 704 434 739 q 564 633 523 684 l 564 1000 l 682 1000 l 682 0 l 572 0 l 572 101 q 471 4 529 34 q 337 -26 412 -26 q 127 76 216 -26 q 38 348 38 178 q 119 623 38 507 q 351 739 200 739 m 732 96 l 1162 617 l 764 617 l 764 726 l 1326 726 l 1326 627 l 899 109 l 1339 109 l 1339 0 l 732 0 l 732 96 m 1046 744 z "},"Ǵ":{"ha":1080,"x_min":67,"x_max":977,"o":"m 536 1022 q 779 968 677 1022 q 961 694 928 890 l 827 694 q 726 853 803 804 q 533 903 650 903 q 300 800 395 903 q 205 490 205 696 q 283 201 205 313 q 538 90 361 90 q 761 168 673 90 q 852 421 850 246 l 540 421 l 540 533 l 977 533 l 977 0 l 890 0 l 858 128 q 736 24 789 53 q 511 -26 648 -26 q 206 88 334 -26 q 67 483 67 232 q 203 881 67 733 q 536 1022 332 1022 m 514 1023 m 685 1280 l 504 1084 l 410 1084 l 534 1280 l 685 1280 z "},"ǵ":{"ha":772,"x_min":41,"x_max":678,"o":"m 346 739 q 495 697 431 739 q 566 628 530 673 l 566 720 l 678 720 l 678 59 q 637 -159 678 -79 q 351 -307 562 -307 q 153 -255 233 -307 q 64 -90 73 -202 l 188 -90 q 223 -165 197 -139 q 353 -206 264 -206 q 537 -107 494 -206 q 561 101 563 -49 q 473 18 524 45 q 336 -9 421 -9 q 130 75 218 -9 q 41 352 41 159 q 131 637 41 534 q 346 739 220 739 m 566 366 q 510 566 566 501 q 368 631 454 631 q 192 511 239 631 q 167 342 167 446 q 217 155 167 219 q 351 91 267 91 q 536 210 482 91 q 566 366 566 277 m 360 744 m 541 1014 l 360 818 l 267 818 l 391 1014 l 541 1014 z "},"Ƿ":{"ha":926,"x_min":119,"x_max":863,"o":"m 119 996 l 567 996 q 781 921 700 996 q 863 711 863 846 q 790 487 863 594 q 567 319 718 380 l 254 218 l 254 0 l 119 0 l 119 996 m 645 859 q 522 880 600 880 l 254 880 l 254 332 l 522 433 q 670 519 613 467 q 726 710 726 572 q 645 859 726 820 z "},"Ǹ":{"ha":1003,"x_min":106,"x_max":897,"o":"m 106 996 l 265 996 l 768 189 l 768 996 l 897 996 l 897 0 l 745 0 l 235 806 l 235 0 l 106 0 l 106 996 m 492 996 m 591 1039 l 498 1039 l 316 1235 l 467 1235 l 591 1039 z "},"ǹ":{"ha":772,"x_min":90,"x_max":682,"o":"m 90 726 l 205 726 l 205 623 q 315 715 257 687 q 443 743 372 743 q 652 635 597 743 q 682 466 682 576 l 682 0 l 557 0 l 557 458 q 538 565 557 524 q 420 633 505 633 q 349 624 376 633 q 260 564 298 609 q 221 490 230 528 q 212 380 212 452 l 212 0 l 90 0 l 90 726 m 376 744 m 492 821 l 399 821 l 218 1017 l 369 1017 l 492 821 z "},"Ǻ":{"ha":926,"x_min":20,"x_max":909,"o":"m 617 408 l 466 848 l 305 408 l 617 408 m 395 996 l 548 996 l 909 0 l 762 0 l 661 298 l 267 298 l 159 0 l 20 0 l 395 996 m 465 996 m 473 1106 q 533 1131 508 1106 q 558 1192 558 1156 q 533 1252 558 1227 q 473 1277 508 1277 q 413 1252 438 1277 q 388 1192 388 1227 q 413 1131 388 1156 q 473 1106 438 1106 m 473 1333 q 573 1292 531 1333 q 614 1192 614 1250 q 573 1092 614 1133 q 473 1050 531 1050 q 373 1092 414 1050 q 332 1192 332 1133 q 373 1292 332 1250 q 473 1333 414 1333 m 692 1558 l 511 1362 l 418 1362 l 542 1558 l 692 1558 z "},"ǻ":{"ha":772,"x_min":56,"x_max":743,"o":"m 183 193 q 222 110 183 140 q 313 79 260 79 q 438 109 378 79 q 540 271 540 159 l 540 370 q 482 346 517 355 q 413 332 447 336 l 339 323 q 239 295 273 314 q 183 193 183 263 m 479 440 q 535 475 521 446 q 543 522 543 492 q 499 613 543 585 q 372 641 454 641 q 236 589 276 641 q 207 505 214 561 l 93 505 q 180 691 96 639 q 374 744 264 744 q 583 695 503 744 q 662 543 662 646 l 662 125 q 670 94 662 106 q 703 83 677 83 q 721 84 711 83 q 743 87 731 85 l 743 -3 q 699 -14 714 -12 q 659 -16 684 -16 q 567 29 595 -16 q 546 96 552 53 q 439 12 509 47 q 285 -24 369 -24 q 120 37 184 -24 q 56 191 56 98 q 119 347 56 292 q 284 416 182 403 l 479 440 m 378 744 m 382 836 q 443 861 418 836 q 468 921 468 886 q 443 981 468 956 q 382 1006 418 1006 q 323 981 348 1006 q 298 921 298 956 q 323 861 298 886 q 382 836 348 836 m 382 1063 q 483 1021 441 1063 q 524 921 524 979 q 483 821 524 863 q 382 779 441 779 q 283 821 324 779 q 241 921 241 863 q 283 1021 241 979 q 382 1063 324 1063 m 584 1291 l 403 1095 l 309 1095 l 433 1291 l 584 1291 z "},"Ǽ":{"ha":1389,"x_min":11,"x_max":1321,"o":"m 500 880 l 315 410 l 635 410 l 635 880 l 500 880 m 416 996 l 1308 996 l 1308 878 l 768 878 l 768 572 l 1263 572 l 1263 459 l 768 459 l 768 119 l 1321 119 l 1321 0 l 635 0 l 635 296 l 268 296 l 157 0 l 11 0 l 416 996 m 983 1242 l 802 1046 l 708 1046 l 832 1242 l 983 1242 z "},"ǽ":{"ha":1235,"x_min":50,"x_max":1177,"o":"m 1046 421 q 988 582 1044 528 q 850 637 931 637 q 709 582 768 637 q 644 421 650 528 l 1046 421 m 530 370 q 497 352 513 358 q 439 338 481 345 l 336 323 q 228 292 260 311 q 174 195 174 261 q 217 107 174 138 q 319 77 260 77 q 396 94 352 77 q 477 146 440 111 q 521 210 511 177 q 530 278 527 230 l 530 370 m 465 440 q 516 465 499 445 q 533 520 533 484 q 495 609 533 578 q 374 640 457 640 q 265 618 306 640 q 197 503 197 578 l 80 503 q 200 712 87 656 q 379 744 265 744 q 534 711 469 744 q 616 635 588 682 q 716 715 656 687 q 852 744 777 744 q 998 716 931 744 q 1110 622 1065 688 q 1163 497 1150 568 q 1177 324 1177 426 l 643 324 q 699 146 646 212 q 845 80 751 80 q 979 119 933 80 q 1043 228 1025 157 l 1166 228 q 1121 116 1160 174 q 1038 31 1082 59 q 942 -13 991 -1 q 840 -24 892 -24 q 664 27 741 -24 q 574 130 593 79 q 447 12 518 48 q 294 -24 376 -24 q 113 34 177 -24 q 50 184 50 92 q 132 365 50 305 q 271 414 184 403 l 465 440 m 772 1017 l 591 821 l 497 821 l 621 1017 l 772 1017 z "},"Ǿ":{"ha":1080,"x_min":45,"x_max":1025,"o":"m 297 189 q 398 117 342 142 q 551 92 454 92 q 821 243 732 92 q 887 513 887 356 q 861 675 887 602 q 819 763 847 715 l 297 189 m 90 -24 l 45 18 l 163 140 q 81 303 108 212 q 54 493 54 393 q 160 846 54 699 q 530 1024 289 1024 q 733 994 650 1024 q 873 911 817 964 l 977 1023 l 1021 982 l 914 865 q 985 745 953 817 q 1025 515 1025 645 q 886 118 1025 269 q 538 -29 751 -29 q 319 14 412 -29 q 204 93 260 41 l 90 -24 m 783 810 q 699 869 737 850 q 539 903 629 903 q 290 797 387 903 q 194 484 194 690 q 208 355 194 420 q 257 236 221 290 l 783 810 m 692 1274 l 511 1078 l 417 1078 l 541 1274 l 692 1274 z "},"ǿ":{"ha":848,"x_min":62,"x_max":771,"o":"m 574 572 q 513 621 555 601 q 419 641 471 641 q 261 558 321 641 q 202 347 202 476 q 212 253 202 298 q 233 189 218 228 l 574 572 m 263 144 q 335 92 296 106 q 414 79 374 79 q 595 199 542 79 q 628 366 628 272 q 618 471 628 427 q 600 527 612 495 l 263 144 m 62 3 l 149 94 q 97 207 115 144 q 79 355 79 269 q 164 628 79 509 q 414 748 250 748 q 564 717 500 748 q 651 657 602 699 l 736 753 l 771 720 l 684 622 q 745 479 727 559 q 757 374 757 427 q 663 86 757 199 q 412 -28 568 -28 q 279 -6 337 -28 q 184 54 220 16 l 102 -33 l 62 3 m 581 1025 l 399 829 l 306 829 l 430 1025 l 581 1025 z "},"Ȁ":{"ha":926,"x_min":20,"x_max":909,"o":"m 617 408 l 466 848 l 305 408 l 617 408 m 395 996 l 548 996 l 909 0 l 762 0 l 661 298 l 267 298 l 159 0 l 20 0 l 395 996 m 465 996 m 401 1065 l 315 1065 l 163 1263 l 309 1263 l 401 1065 m 627 1065 l 542 1065 l 388 1263 l 534 1263 l 627 1065 z "},"ȁ":{"ha":772,"x_min":56,"x_max":743,"o":"m 183 193 q 222 110 183 140 q 313 79 260 79 q 438 109 378 79 q 540 271 540 159 l 540 370 q 482 346 517 355 q 413 332 447 336 l 339 323 q 239 295 273 314 q 183 193 183 263 m 479 440 q 535 475 521 446 q 543 522 543 492 q 499 613 543 585 q 372 641 454 641 q 236 589 276 641 q 207 505 214 561 l 93 505 q 180 691 96 639 q 374 744 264 744 q 583 695 503 744 q 662 543 662 646 l 662 125 q 670 94 662 106 q 703 83 677 83 q 721 84 711 83 q 743 87 731 85 l 743 -3 q 699 -14 714 -12 q 659 -16 684 -16 q 567 29 595 -16 q 546 96 552 53 q 439 12 509 47 q 285 -24 369 -24 q 120 37 184 -24 q 56 191 56 98 q 119 347 56 292 q 284 416 182 403 l 479 440 m 378 744 m 330 821 l 243 821 l 92 1018 l 237 1018 l 330 821 m 555 821 l 470 821 l 316 1018 l 463 1018 l 555 821 z "},"Ȃ":{"ha":926,"x_min":20,"x_max":909,"o":"m 617 408 l 466 848 l 305 408 l 617 408 m 395 996 l 548 996 l 909 0 l 762 0 l 661 298 l 267 298 l 159 0 l 20 0 l 395 996 m 465 996 m 612 1025 q 580 1092 601 1069 q 462 1132 542 1132 q 351 1092 388 1132 q 319 1025 330 1069 l 252 1025 q 322 1169 266 1125 q 475 1213 379 1213 q 648 1133 595 1213 q 681 1025 675 1090 l 612 1025 z "},"ȃ":{"ha":772,"x_min":56,"x_max":743,"o":"m 183 193 q 222 110 183 140 q 313 79 260 79 q 438 109 378 79 q 540 271 540 159 l 540 370 q 482 346 517 355 q 413 332 447 336 l 339 323 q 239 295 273 314 q 183 193 183 263 m 479 440 q 535 475 521 446 q 543 522 543 492 q 499 613 543 585 q 372 641 454 641 q 236 589 276 641 q 207 505 214 561 l 93 505 q 180 691 96 639 q 374 744 264 744 q 583 695 503 744 q 662 543 662 646 l 662 125 q 670 94 662 106 q 703 83 677 83 q 721 84 711 83 q 743 87 731 85 l 743 -3 q 699 -14 714 -12 q 659 -16 684 -16 q 567 29 595 -16 q 546 96 552 53 q 439 12 509 47 q 285 -24 369 -24 q 120 37 184 -24 q 56 191 56 98 q 119 347 56 292 q 284 416 182 403 l 479 440 m 378 744 m 516 824 q 484 890 505 868 q 366 930 446 930 q 256 890 292 930 q 224 824 235 867 l 157 824 q 227 968 170 924 q 380 1012 283 1012 q 552 931 500 1012 q 585 824 579 889 l 516 824 z "},"Ȅ":{"ha":926,"x_min":119,"x_max":855,"o":"m 119 996 l 845 996 l 845 874 l 250 874 l 250 572 l 800 572 l 800 456 l 250 456 l 250 119 l 855 119 l 855 0 l 119 0 l 119 996 m 487 996 m 447 1065 l 361 1065 l 209 1263 l 354 1263 l 447 1065 m 673 1065 l 587 1065 l 433 1263 l 580 1263 l 673 1065 z "},"ȅ":{"ha":772,"x_min":49,"x_max":712,"o":"m 392 743 q 542 706 469 743 q 652 612 614 670 q 701 484 689 557 q 712 324 712 434 l 180 324 q 232 147 183 214 q 383 80 281 80 q 536 143 479 80 q 582 228 568 180 l 702 228 q 670 139 697 188 q 610 58 644 90 q 473 -15 555 4 q 373 -26 429 -26 q 143 73 237 -26 q 49 349 49 172 q 144 633 49 524 q 392 743 239 743 m 587 421 q 552 548 579 500 q 385 636 502 636 q 243 575 300 636 q 183 421 186 515 l 587 421 m 380 744 m 340 821 l 254 821 l 102 1018 l 248 1018 l 340 821 m 566 821 l 481 821 l 327 1018 l 473 1018 l 566 821 z "},"Ȇ":{"ha":926,"x_min":119,"x_max":855,"o":"m 119 996 l 845 996 l 845 874 l 250 874 l 250 572 l 800 572 l 800 456 l 250 456 l 250 119 l 855 119 l 855 0 l 119 0 l 119 996 m 487 996 m 631 1065 q 599 1132 620 1109 q 481 1172 561 1172 q 370 1132 407 1172 q 338 1065 349 1109 l 271 1065 q 341 1209 285 1165 q 494 1253 398 1253 q 667 1173 614 1253 q 700 1065 694 1131 l 631 1065 z "},"ȇ":{"ha":772,"x_min":49,"x_max":712,"o":"m 392 743 q 542 706 469 743 q 652 612 614 670 q 701 484 689 557 q 712 324 712 434 l 180 324 q 232 147 183 214 q 383 80 281 80 q 536 143 479 80 q 582 228 568 180 l 702 228 q 670 139 697 188 q 610 58 644 90 q 473 -15 555 4 q 373 -26 429 -26 q 143 73 237 -26 q 49 349 49 172 q 144 633 49 524 q 392 743 239 743 m 587 421 q 552 548 579 500 q 385 636 502 636 q 243 575 300 636 q 183 421 186 515 l 587 421 m 380 744 m 544 817 q 512 884 533 861 q 394 924 474 924 q 283 884 320 924 q 252 817 262 861 l 184 817 q 255 961 198 917 q 408 1005 311 1005 q 580 924 528 1005 q 613 817 607 882 l 544 817 z "},"Ȉ":{"ha":386,"x_min":-97,"x_max":367,"o":"m 136 996 l 273 996 l 273 0 l 136 0 l 136 996 m 141 1065 l 55 1065 l -97 1263 l 48 1263 l 141 1065 m 367 1065 l 281 1065 l 127 1263 l 274 1263 l 367 1065 z "},"ȉ":{"ha":309,"x_min":-138,"x_max":326,"o":"m 96 723 l 220 723 l 220 0 l 96 0 l 96 723 m 158 744 m 100 821 l 14 821 l -138 1019 l 7 1019 l 100 821 m 326 821 l 241 821 l 87 1019 l 233 1019 l 326 821 z "},"Ȋ":{"ha":386,"x_min":-5,"x_max":423,"o":"m 136 996 l 273 996 l 273 0 l 136 0 l 136 996 m 354 1065 q 322 1132 343 1109 q 204 1172 284 1172 q 94 1132 130 1172 q 62 1065 73 1109 l -5 1065 q 65 1209 8 1165 q 218 1253 121 1253 q 390 1173 338 1253 q 423 1065 417 1131 l 354 1065 z "},"ȋ":{"ha":309,"x_min":-58,"x_max":370,"o":"m 96 723 l 220 723 l 220 0 l 96 0 l 96 723 m 158 744 m 301 829 q 269 895 290 873 q 151 935 231 935 q 41 895 77 935 q 9 829 20 872 l -58 829 q 12 972 -45 928 q 165 1017 68 1017 q 337 936 285 1017 q 370 829 364 894 l 301 829 z "},"Ȍ":{"ha":1080,"x_min":54,"x_max":1025,"o":"m 536 1023 q 926 854 800 1023 q 1025 515 1025 722 q 912 144 1025 292 q 533 -29 779 -29 q 172 123 303 -29 q 54 493 54 269 q 155 839 54 695 q 536 1023 283 1023 m 549 92 q 807 219 728 92 q 887 513 887 347 q 795 796 887 689 q 544 903 703 903 q 292 797 389 903 q 194 484 194 691 q 278 205 194 319 q 549 92 361 92 m 540 1023 m 480 1103 l 394 1103 l 242 1300 l 387 1300 l 480 1103 m 706 1103 l 621 1103 l 467 1300 l 613 1300 l 706 1103 z "},"ȍ":{"ha":772,"x_min":40,"x_max":717,"o":"m 378 79 q 544 171 499 79 q 589 375 589 262 q 557 541 589 477 q 379 641 505 641 q 216 555 267 641 q 165 349 165 470 q 216 156 165 233 q 378 79 267 79 m 382 747 q 620 654 523 747 q 717 378 717 560 q 631 88 717 203 q 366 -26 546 -26 q 128 75 216 -26 q 40 347 40 176 q 133 639 40 530 q 382 747 226 747 m 378 744 m 338 821 l 252 821 l 100 1019 l 245 1019 l 338 821 m 564 821 l 479 821 l 325 1019 l 471 1019 l 564 821 z "},"Ȏ":{"ha":1080,"x_min":54,"x_max":1025,"o":"m 536 1023 q 926 854 800 1023 q 1025 515 1025 722 q 912 144 1025 292 q 533 -29 779 -29 q 172 123 303 -29 q 54 493 54 269 q 155 839 54 695 q 536 1023 283 1023 m 549 92 q 807 219 728 92 q 887 513 887 347 q 795 796 887 689 q 544 903 703 903 q 292 797 389 903 q 194 484 194 691 q 278 205 194 319 q 549 92 361 92 m 540 1023 m 684 1093 q 652 1159 673 1137 q 534 1199 614 1199 q 423 1159 460 1199 q 391 1093 402 1136 l 324 1093 q 394 1236 338 1192 q 547 1280 451 1280 q 720 1200 667 1280 q 753 1093 747 1158 l 684 1093 z "},"ȏ":{"ha":772,"x_min":40,"x_max":717,"o":"m 378 79 q 544 171 499 79 q 589 375 589 262 q 557 541 589 477 q 379 641 505 641 q 216 555 267 641 q 165 349 165 470 q 216 156 165 233 q 378 79 267 79 m 382 747 q 620 654 523 747 q 717 378 717 560 q 631 88 717 203 q 366 -26 546 -26 q 128 75 216 -26 q 40 347 40 176 q 133 639 40 530 q 382 747 226 747 m 378 744 m 522 824 q 490 890 511 868 q 372 930 452 930 q 262 890 298 930 q 230 824 241 867 l 163 824 q 233 968 176 924 q 386 1012 290 1012 q 558 931 506 1012 q 591 824 585 889 l 522 824 z "},"Ȑ":{"ha":1003,"x_min":122,"x_max":949,"o":"m 569 540 q 719 578 664 540 q 774 715 774 616 q 697 860 774 821 q 587 880 656 880 l 257 880 l 257 540 l 569 540 m 122 996 l 583 996 q 771 963 697 996 q 911 728 911 899 q 874 581 911 638 q 771 490 838 524 q 859 427 829 466 q 892 302 888 389 l 897 168 q 906 83 899 111 q 949 22 918 36 l 949 0 l 784 0 q 773 33 777 13 q 766 112 769 54 l 758 278 q 686 409 753 376 q 564 427 647 427 l 257 427 l 257 0 l 122 0 l 122 996 m 450 1069 l 363 1069 l 212 1266 l 357 1266 l 450 1069 m 675 1069 l 590 1069 l 436 1266 l 583 1266 l 675 1069 z "},"ȑ":{"ha":463,"x_min":-28,"x_max":446,"o":"m 93 726 l 209 726 l 209 601 q 279 690 223 637 q 407 743 334 743 q 418 742 410 743 q 446 739 427 741 l 446 610 q 426 613 435 612 q 406 614 417 614 q 264 554 314 614 q 215 418 215 495 l 215 0 l 93 0 l 93 726 m 210 838 l 123 838 l -28 1036 l 117 1036 l 210 838 m 435 838 l 350 838 l 196 1036 l 342 1036 l 435 838 z "},"Ȓ":{"ha":1003,"x_min":122,"x_max":949,"o":"m 569 540 q 719 578 664 540 q 774 715 774 616 q 697 860 774 821 q 587 880 656 880 l 257 880 l 257 540 l 569 540 m 122 996 l 583 996 q 771 963 697 996 q 911 728 911 899 q 874 581 911 638 q 771 490 838 524 q 859 427 829 466 q 892 302 888 389 l 897 168 q 906 83 899 111 q 949 22 918 36 l 949 0 l 784 0 q 773 33 777 13 q 766 112 769 54 l 758 278 q 686 409 753 376 q 564 427 647 427 l 257 427 l 257 0 l 122 0 l 122 996 m 627 1054 q 595 1120 616 1098 q 477 1160 557 1160 q 366 1120 403 1160 q 334 1054 345 1097 l 267 1054 q 337 1198 281 1154 q 490 1242 394 1242 q 663 1161 610 1242 q 696 1054 690 1119 l 627 1054 z "},"ȓ":{"ha":463,"x_min":54,"x_max":482,"o":"m 93 726 l 209 726 l 209 601 q 279 690 223 637 q 407 743 334 743 q 418 742 410 743 q 446 739 427 741 l 446 610 q 426 613 435 612 q 406 614 417 614 q 264 554 314 614 q 215 418 215 495 l 215 0 l 93 0 l 93 726 m 413 819 q 381 886 402 863 q 263 926 343 926 q 153 886 189 926 q 121 819 132 863 l 54 819 q 124 963 67 919 q 277 1007 180 1007 q 449 926 397 1007 q 482 819 476 884 l 413 819 z "},"Ȕ":{"ha":1003,"x_min":115,"x_max":900,"o":"m 252 996 l 252 380 q 293 200 252 272 q 496 92 353 92 q 730 209 668 92 q 763 380 763 273 l 763 996 l 900 996 l 900 437 q 850 154 900 253 q 507 -26 760 -26 q 165 154 255 -26 q 115 437 115 253 l 115 996 l 252 996 m 508 996 m 467 1065 l 381 1065 l 229 1263 l 374 1263 l 467 1065 m 693 1065 l 608 1065 l 454 1263 l 600 1263 l 693 1065 z "},"ȕ":{"ha":772,"x_min":87,"x_max":671,"o":"m 212 726 l 212 244 q 229 153 212 189 q 351 88 262 88 q 524 202 478 88 q 549 370 549 263 l 549 726 l 671 726 l 671 0 l 556 0 l 557 107 q 498 37 534 66 q 329 -20 429 -20 q 117 84 174 -20 q 87 233 87 140 l 87 726 l 212 726 m 379 744 m 339 821 l 253 821 l 101 1018 l 246 1018 l 339 821 m 565 821 l 479 821 l 326 1018 l 472 1018 l 565 821 z "},"Ȗ":{"ha":1003,"x_min":115,"x_max":900,"o":"m 252 996 l 252 380 q 293 200 252 272 q 496 92 353 92 q 730 209 668 92 q 763 380 763 273 l 763 996 l 900 996 l 900 437 q 850 154 900 253 q 507 -26 760 -26 q 165 154 255 -26 q 115 437 115 253 l 115 996 l 252 996 m 508 996 m 651 1065 q 619 1132 640 1109 q 501 1172 581 1172 q 391 1132 427 1172 q 359 1065 370 1109 l 292 1065 q 362 1209 305 1165 q 515 1253 418 1253 q 687 1173 635 1253 q 720 1065 714 1131 l 651 1065 z "},"ȗ":{"ha":772,"x_min":87,"x_max":671,"o":"m 212 726 l 212 244 q 229 153 212 189 q 351 88 262 88 q 524 202 478 88 q 549 370 549 263 l 549 726 l 671 726 l 671 0 l 556 0 l 557 107 q 498 37 534 66 q 329 -20 429 -20 q 117 84 174 -20 q 87 233 87 140 l 87 726 l 212 726 m 379 744 m 523 821 q 491 887 512 865 q 373 927 453 927 q 262 887 299 927 q 231 821 241 864 l 163 821 q 234 964 177 920 q 387 1008 290 1008 q 559 928 507 1008 q 592 821 586 886 l 523 821 z "},"Ș":{"ha":926,"x_min":65,"x_max":861,"o":"m 194 321 q 234 184 199 237 q 471 85 301 85 q 609 106 547 85 q 730 257 730 149 q 679 373 730 338 q 517 432 627 407 l 382 463 q 195 528 250 492 q 100 715 100 591 q 193 935 100 849 q 456 1021 286 1021 q 723 946 613 1021 q 832 704 832 870 l 705 704 q 662 827 695 784 q 452 905 600 905 q 281 854 333 905 q 229 738 229 804 q 290 631 229 665 q 471 576 330 609 l 610 545 q 766 481 711 522 q 861 279 861 412 q 741 42 861 113 q 461 -29 621 -29 q 170 66 275 -29 q 67 321 65 160 l 194 321 m 401 -352 q 454 -300 439 -346 q 463 -252 463 -275 q 462 -245 463 -248 q 460 -239 462 -243 l 401 -239 l 401 -121 l 517 -121 l 517 -230 q 491 -343 517 -294 q 401 -404 465 -392 l 401 -352 z "},"ș":{"ha":694,"x_min":45,"x_max":644,"o":"m 162 228 q 193 134 168 167 q 353 75 239 75 q 472 105 420 75 q 524 196 524 134 q 482 267 524 243 q 378 302 456 282 l 281 326 q 144 378 188 349 q 65 515 65 427 q 139 682 65 618 q 339 745 214 745 q 576 649 503 745 q 620 517 621 588 l 505 517 q 475 593 501 559 q 330 641 433 641 q 225 614 260 641 q 189 545 189 588 q 236 469 189 497 q 316 439 263 452 l 397 419 q 573 357 528 387 q 644 210 644 311 q 571 43 644 113 q 347 -28 497 -28 q 117 46 184 -28 q 45 228 50 119 l 162 228 m 283 -351 q 336 -298 320 -345 q 344 -251 344 -274 q 343 -244 344 -247 q 342 -237 343 -241 l 283 -237 l 283 -119 l 399 -119 l 399 -229 q 373 -342 399 -293 q 283 -402 347 -391 l 283 -351 z "},"Ț":{"ha":848,"x_min":22,"x_max":831,"o":"m 831 996 l 831 878 l 495 878 l 495 0 l 358 0 l 358 878 l 22 878 l 22 996 l 831 996 m 365 -323 q 418 -271 402 -317 q 426 -223 426 -246 q 426 -216 426 -219 q 424 -210 425 -214 l 365 -210 l 365 -92 l 481 -92 l 481 -201 q 455 -314 481 -265 q 365 -374 429 -363 l 365 -323 z "},"ț":{"ha":386,"x_min":16,"x_max":353,"o":"m 114 929 l 237 929 l 237 726 l 353 726 l 353 627 l 237 627 l 237 153 q 263 102 237 115 q 311 94 277 94 q 330 95 319 94 q 353 96 340 95 l 353 0 q 310 -9 332 -6 q 260 -12 287 -12 q 144 32 175 -12 q 114 146 114 76 l 114 627 l 16 627 l 16 726 l 114 726 l 114 929 m 126 -334 q 178 -281 163 -328 q 186 -235 186 -258 q 186 -228 186 -231 q 185 -221 186 -225 l 126 -221 l 126 -103 l 242 -103 l 242 -212 q 216 -326 242 -277 q 126 -386 190 -374 l 126 -334 z "},"Ȝ":{"ha":922,"x_min":117,"x_max":851,"o":"m 465 75 q 652 140 585 75 q 716 293 716 195 q 470 477 716 477 q 410 475 452 477 l 410 585 q 607 617 549 587 q 682 750 682 650 q 625 878 682 831 q 467 925 567 925 q 224 781 363 925 l 131 868 q 475 1034 300 1034 q 730 951 637 1034 q 820 739 820 871 q 692 533 820 619 q 820 431 783 494 q 851 286 851 376 q 749 62 851 155 q 482 -33 642 -33 q 117 73 296 -33 l 213 147 q 465 75 355 75 z "},"ȝ":{"ha":922,"x_min":117,"x_max":851,"o":"m 465 -215 q 652 -150 585 -215 q 716 3 716 -95 q 470 188 716 188 q 410 185 452 188 l 410 295 q 607 328 549 297 q 682 460 682 360 q 625 589 682 542 q 467 635 567 635 q 224 491 363 635 l 131 578 q 475 744 300 744 q 730 661 637 744 q 820 450 820 582 q 692 243 820 330 q 820 141 783 204 q 851 -3 851 87 q 749 -227 851 -134 q 482 -323 642 -323 q 117 -216 296 -323 l 213 -142 q 465 -215 355 -215 z "},"Ȟ":{"ha":1003,"x_min":109,"x_max":900,"o":"m 109 996 l 245 996 l 245 585 l 764 585 l 764 996 l 900 996 l 900 0 l 764 0 l 764 466 l 245 466 l 245 0 l 109 0 l 109 996 m 578 1036 l 450 1036 l 312 1232 l 422 1232 l 514 1101 l 606 1232 l 717 1232 l 578 1036 z "},"ȟ":{"ha":772,"x_min":90,"x_max":682,"o":"m 90 1000 l 212 1000 l 212 628 q 290 705 255 683 q 437 744 349 744 q 651 633 595 744 q 682 466 682 573 l 682 0 l 556 0 l 556 458 q 536 575 556 538 q 411 635 503 635 q 273 583 335 635 q 212 385 212 530 l 212 0 l 90 0 l 90 1000 m 467 1042 l 338 1042 l 200 1238 l 311 1238 l 402 1108 l 494 1238 l 605 1238 l 467 1042 z "},"Ƞ":{"ha":1003,"x_min":115,"x_max":900,"o":"m 115 996 l 252 996 l 252 949 q 508 1023 347 1023 q 850 842 760 1023 q 900 559 900 743 l 900 -269 l 763 -269 l 763 616 q 722 796 763 724 q 519 905 662 905 q 286 787 347 905 q 252 616 252 724 l 252 0 l 115 0 l 115 996 z "},"Ȧ":{"ha":926,"x_min":20,"x_max":909,"o":"m 617 408 l 466 848 l 305 408 l 617 408 m 395 996 l 548 996 l 909 0 l 762 0 l 661 298 l 267 298 l 159 0 l 20 0 l 395 996 m 465 996 m 408 1206 l 535 1206 l 535 1065 l 408 1065 l 408 1206 z "},"ȧ":{"ha":772,"x_min":56,"x_max":743,"o":"m 183 193 q 222 110 183 140 q 313 79 260 79 q 438 109 378 79 q 540 271 540 159 l 540 370 q 482 346 517 355 q 413 332 447 336 l 339 323 q 239 295 273 314 q 183 193 183 263 m 479 440 q 535 475 521 446 q 543 522 543 492 q 499 613 543 585 q 372 641 454 641 q 236 589 276 641 q 207 505 214 561 l 93 505 q 180 691 96 639 q 374 744 264 744 q 583 695 503 744 q 662 543 662 646 l 662 125 q 670 94 662 106 q 703 83 677 83 q 721 84 711 83 q 743 87 731 85 l 743 -3 q 699 -14 714 -12 q 659 -16 684 -16 q 567 29 595 -16 q 546 96 552 53 q 439 12 509 47 q 285 -24 369 -24 q 120 37 184 -24 q 56 191 56 98 q 119 347 56 292 q 284 416 182 403 l 479 440 m 378 744 m 321 1005 l 448 1005 l 448 864 l 321 864 l 321 1005 z "},"Ȩ":{"ha":926,"x_min":119,"x_max":855,"o":"m 119 996 l 845 996 l 845 874 l 250 874 l 250 572 l 800 572 l 800 456 l 250 456 l 250 119 l 855 119 l 855 0 l 119 0 l 119 996 m 487 996 m 496 0 l 562 0 l 498 -87 q 549 -81 518 -81 q 628 -108 597 -81 q 659 -186 659 -136 q 618 -275 659 -238 q 493 -313 577 -313 q 418 -302 457 -313 q 360 -283 397 -297 l 384 -229 q 424 -242 410 -238 q 474 -250 452 -250 q 517 -242 499 -250 q 553 -191 553 -228 q 535 -153 553 -169 q 487 -137 517 -137 q 460 -140 472 -137 q 432 -149 448 -142 l 408 -121 l 496 0 z "},"ȩ":{"ha":772,"x_min":49,"x_max":712,"o":"m 392 743 q 542 706 469 743 q 652 612 614 670 q 701 484 689 557 q 712 324 712 434 l 180 324 q 232 147 183 214 q 383 80 281 80 q 536 143 479 80 q 582 228 568 180 l 702 228 q 670 139 697 188 q 610 58 644 90 q 473 -15 555 4 q 373 -26 429 -26 q 143 73 237 -26 q 49 349 49 172 q 144 633 49 524 q 392 743 239 743 m 587 421 q 552 548 579 500 q 385 636 502 636 q 243 575 300 636 q 183 421 186 515 l 587 421 m 380 744 m 390 -18 l 456 -18 l 392 -105 q 443 -99 412 -99 q 521 -126 490 -99 q 552 -205 552 -154 q 511 -294 552 -256 q 387 -331 471 -331 q 312 -321 351 -331 q 254 -302 290 -315 l 277 -247 q 317 -260 303 -256 q 368 -268 345 -268 q 411 -260 393 -268 q 446 -209 446 -246 q 428 -171 446 -187 q 380 -155 410 -155 q 354 -158 366 -155 q 326 -167 342 -161 l 302 -139 l 390 -18 z "},"Ȫ":{"ha":1080,"x_min":54,"x_max":1025,"o":"m 536 1023 q 926 854 800 1023 q 1025 515 1025 722 q 912 144 1025 292 q 533 -29 779 -29 q 172 123 303 -29 q 54 493 54 269 q 155 839 54 695 q 536 1023 283 1023 m 549 92 q 807 219 728 92 q 887 513 887 347 q 795 796 887 689 q 544 903 703 903 q 292 797 389 903 q 194 484 194 691 q 278 205 194 319 q 549 92 361 92 m 540 1023 m 589 1236 l 715 1236 l 715 1095 l 589 1095 l 589 1236 m 365 1236 l 492 1236 l 492 1095 l 365 1095 l 365 1236 m 334 1478 l 768 1478 l 768 1398 l 334 1398 l 334 1478 z "},"ȫ":{"ha":772,"x_min":40,"x_max":717,"o":"m 378 79 q 544 171 499 79 q 589 375 589 262 q 557 541 589 477 q 379 641 505 641 q 216 555 267 641 q 165 349 165 470 q 216 156 165 233 q 378 79 267 79 m 382 747 q 620 654 523 747 q 717 378 717 560 q 631 88 717 203 q 366 -26 546 -26 q 128 75 216 -26 q 40 347 40 176 q 133 639 40 530 q 382 747 226 747 m 378 744 m 435 957 l 562 957 l 562 816 l 435 816 l 435 957 m 212 957 l 338 957 l 338 816 l 212 816 l 212 957 m 172 1118 l 606 1118 l 606 1038 l 172 1038 l 172 1118 z "},"Ȭ":{"ha":1080,"x_min":54,"x_max":1025,"o":"m 536 1023 q 926 854 800 1023 q 1025 515 1025 722 q 912 144 1025 292 q 533 -29 779 -29 q 172 123 303 -29 q 54 493 54 269 q 155 839 54 695 q 536 1023 283 1023 m 549 92 q 807 219 728 92 q 887 513 887 347 q 795 796 887 689 q 544 903 703 903 q 292 797 389 903 q 194 484 194 691 q 278 205 194 319 q 549 92 361 92 m 540 1023 m 572 1190 q 607 1177 591 1181 q 639 1172 623 1172 q 693 1196 677 1172 q 705 1234 702 1208 l 777 1234 q 722 1116 762 1148 q 633 1083 682 1083 q 595 1088 618 1083 q 555 1101 572 1094 l 519 1114 q 467 1131 487 1125 q 428 1137 447 1137 q 389 1121 404 1137 q 368 1074 374 1105 l 302 1074 q 331 1161 311 1127 q 446 1223 370 1223 q 497 1217 469 1223 q 572 1190 525 1210 m 311 1370 l 745 1370 l 745 1290 l 311 1290 l 311 1370 z "},"ȭ":{"ha":772,"x_min":40,"x_max":717,"o":"m 378 79 q 544 171 499 79 q 589 375 589 262 q 557 541 589 477 q 379 641 505 641 q 216 555 267 641 q 165 349 165 470 q 216 156 165 233 q 378 79 267 79 m 382 747 q 620 654 523 747 q 717 378 717 560 q 631 88 717 203 q 366 -26 546 -26 q 128 75 216 -26 q 40 347 40 176 q 133 639 40 530 q 382 747 226 747 m 378 744 m 412 927 q 446 914 431 919 q 478 909 462 909 q 532 933 516 909 q 545 972 541 946 l 616 972 q 561 853 602 886 q 473 821 521 821 q 435 826 458 821 q 394 838 412 831 l 358 851 q 306 868 326 863 q 267 874 286 874 q 228 859 243 874 q 208 811 213 843 l 141 811 q 170 899 150 865 q 285 961 209 961 q 336 954 308 961 q 412 927 364 947 m 157 1111 l 591 1111 l 591 1031 l 157 1031 l 157 1111 z "},"Ȯ":{"ha":1080,"x_min":54,"x_max":1025,"o":"m 536 1023 q 926 854 800 1023 q 1025 515 1025 722 q 912 144 1025 292 q 533 -29 779 -29 q 172 123 303 -29 q 54 493 54 269 q 155 839 54 695 q 536 1023 283 1023 m 549 92 q 807 219 728 92 q 887 513 887 347 q 795 796 887 689 q 544 903 703 903 q 292 797 389 903 q 194 484 194 691 q 278 205 194 319 q 549 92 361 92 m 540 1023 m 467 1264 l 593 1264 l 593 1123 l 467 1123 l 467 1264 z "},"ȯ":{"ha":772,"x_min":40,"x_max":717,"o":"m 378 79 q 544 171 499 79 q 589 375 589 262 q 557 541 589 477 q 379 641 505 641 q 216 555 267 641 q 165 349 165 470 q 216 156 165 233 q 378 79 267 79 m 382 747 q 620 654 523 747 q 717 378 717 560 q 631 88 717 203 q 366 -26 546 -26 q 128 75 216 -26 q 40 347 40 176 q 133 639 40 530 q 382 747 226 747 m 378 744 m 312 1000 l 439 1000 l 439 859 l 312 859 l 312 1000 z "},"Ȱ":{"ha":1080,"x_min":54,"x_max":1025,"o":"m 536 1023 q 926 854 800 1023 q 1025 515 1025 722 q 912 144 1025 292 q 533 -29 779 -29 q 172 123 303 -29 q 54 493 54 269 q 155 839 54 695 q 536 1023 283 1023 m 549 92 q 807 219 728 92 q 887 513 887 347 q 795 796 887 689 q 544 903 703 903 q 292 797 389 903 q 194 484 194 691 q 278 205 194 319 q 549 92 361 92 m 540 1023 m 464 1257 l 591 1257 l 591 1116 l 464 1116 l 464 1257 m 313 1393 l 747 1393 l 747 1313 l 313 1313 l 313 1393 z "},"ȱ":{"ha":772,"x_min":40,"x_max":717,"o":"m 378 79 q 544 171 499 79 q 589 375 589 262 q 557 541 589 477 q 379 641 505 641 q 216 555 267 641 q 165 349 165 470 q 216 156 165 233 q 378 79 267 79 m 382 747 q 620 654 523 747 q 717 378 717 560 q 631 88 717 203 q 366 -26 546 -26 q 128 75 216 -26 q 40 347 40 176 q 133 639 40 530 q 382 747 226 747 m 378 744 m 328 954 l 455 954 l 455 813 l 328 813 l 328 954 m 172 1082 l 606 1082 l 606 1002 l 172 1002 l 172 1082 z "},"Ȳ":{"ha":926,"x_min":28,"x_max":916,"o":"m 28 996 l 186 996 l 472 517 l 758 996 l 916 996 l 540 401 l 540 0 l 405 0 l 405 401 l 28 996 m 474 996 m 266 1120 l 700 1120 l 700 1040 l 266 1040 l 266 1120 z "},"ȳ":{"ha":694,"x_min":14,"x_max":678,"o":"m 543 726 l 678 726 q 564 408 652 656 q 452 102 497 220 q 303 -237 347 -176 q 154 -298 260 -298 q 114 -296 128 -298 q 80 -288 100 -294 l 80 -177 q 126 -188 112 -186 q 151 -190 140 -190 q 201 -179 185 -190 q 228 -151 217 -168 q 252 -96 231 -146 q 283 -21 273 -45 l 14 726 l 153 726 l 347 135 l 543 726 m 347 744 m 140 901 l 574 901 l 574 821 l 140 821 l 140 901 z "},"ȷ":{"ha":309,"x_min":-26,"x_max":212,"o":"m -26 -184 q 73 -169 56 -181 q 90 -95 90 -157 l 90 723 l 212 723 l 212 -108 q 186 -227 212 -187 q 24 -293 143 -293 q 5 -292 15 -293 q -26 -290 -5 -292 l -26 -184 z "},"ȸ":{"ha":1293,"x_min":62,"x_max":1231,"o":"m 514 704 q 588 633 547 684 l 588 1000 l 710 1000 l 710 638 q 806 718 750 690 q 926 745 861 745 q 1146 652 1062 745 q 1231 377 1231 559 q 1147 91 1231 205 q 916 -23 1064 -23 q 777 17 833 -23 q 705 91 743 40 l 705 0 l 591 0 l 591 94 q 494 4 550 33 q 361 -26 436 -26 q 151 76 239 -26 q 62 348 62 178 q 143 623 62 507 q 374 739 224 739 q 514 704 458 739 m 1106 371 q 1057 561 1106 486 q 912 636 1008 636 q 766 574 829 636 q 705 420 715 524 l 705 317 q 729 205 710 251 q 909 85 777 85 q 1057 163 1008 85 q 1106 371 1106 242 m 399 81 q 538 153 484 81 q 591 323 585 216 l 591 402 q 536 566 584 510 q 397 633 480 633 q 248 562 305 633 q 191 355 191 492 q 240 159 191 238 q 399 81 290 81 z "},"ȹ":{"ha":1253,"x_min":47,"x_max":1206,"o":"m 567 723 l 572 723 l 572 726 l 688 726 l 688 629 q 766 703 724 677 q 911 744 827 744 q 1120 649 1034 744 q 1206 379 1206 555 q 1082 40 1206 142 q 899 -24 1004 -24 q 762 12 817 -24 q 689 81 729 32 l 689 -290 l 565 -290 l 565 83 q 480 6 534 35 q 346 -23 427 -23 q 138 68 230 -23 q 47 345 47 159 q 133 631 47 519 q 355 743 218 743 q 507 697 445 743 q 567 632 538 675 l 567 723 m 1082 368 q 1057 517 1082 454 q 883 637 1009 637 q 709 510 756 637 q 688 410 694 467 l 688 278 q 709 195 694 231 q 883 82 757 82 q 1025 154 968 82 q 1082 368 1082 225 m 201 195 q 368 82 248 82 q 544 201 496 82 q 567 300 561 243 l 567 430 q 541 527 560 486 q 367 635 492 635 q 231 566 288 635 q 174 353 174 497 q 201 195 174 259 z "},"Ⱥ":{"ha":926,"x_min":20,"x_max":909,"o":"m 617 408 l 466 848 l 305 408 l 617 408 m 395 996 l 548 996 l 909 0 l 762 0 l 661 298 l 267 298 l 159 0 l 20 0 l 395 996 m 587 1132 l 690 1132 l 356 -136 l 253 -136 l 587 1132 z "},"Ȼ":{"ha":1003,"x_min":61,"x_max":945,"o":"m 587 1139 l 690 1139 l 658 1008 q 819 924 755 985 q 935 697 924 824 l 804 697 q 714 850 781 793 q 629 893 680 879 l 435 102 q 524 93 476 93 q 751 208 673 93 q 813 366 793 268 l 945 366 q 828 102 927 209 q 508 -26 709 -26 q 406 -16 454 -26 l 374 -142 l 271 -142 l 310 16 q 216 79 260 41 q 61 509 61 218 q 178 870 61 729 q 526 1023 304 1023 q 559 1022 543 1023 l 587 1139 m 289 802 q 199 486 199 699 q 280 201 199 311 q 341 142 307 166 l 530 906 l 527 906 q 289 802 380 906 z "},"ȼ":{"ha":694,"x_min":40,"x_max":662,"o":"m 486 861 l 589 861 l 540 707 q 569 688 555 699 q 662 482 646 628 l 543 482 q 501 585 533 543 l 342 84 q 361 83 351 83 q 482 130 437 83 q 543 257 526 176 l 662 257 q 560 46 642 113 q 352 -21 479 -21 q 310 -18 330 -21 l 273 -136 l 170 -136 l 215 9 q 125 83 163 35 q 40 343 40 187 q 133 641 40 534 q 370 747 226 747 q 448 740 411 747 l 486 861 m 370 638 q 203 524 253 638 q 170 342 170 450 q 216 158 170 233 q 250 119 231 134 l 414 635 q 370 638 393 638 z "},"Ƚ":{"ha":772,"x_min":-16,"x_max":745,"o":"m -16 473 l -16 576 l 106 576 l 106 996 l 241 996 l 241 576 l 459 576 l 459 469 l 241 470 l 241 119 l 745 119 l 745 0 l 106 0 l 106 471 l -16 473 z "},"Ⱦ":{"ha":848,"x_min":22,"x_max":831,"o":"m 621 1139 l 724 1139 l 674 996 l 831 996 l 831 878 l 632 878 l 495 488 l 495 0 l 358 0 l 358 100 l 273 -142 l 170 -142 l 358 392 l 358 878 l 22 878 l 22 996 l 571 996 l 621 1139 m 495 781 l 529 878 l 495 878 l 495 781 z "},"Ɂ":{"ha":772,"x_min":106,"x_max":710,"o":"m 416 1009 q 630 933 549 1009 q 710 738 710 857 q 681 621 710 666 q 562 490 651 576 q 477 383 496 427 q 458 0 458 339 l 337 0 q 360 410 337 351 q 461 546 383 469 l 515 600 q 555 648 540 623 q 582 739 582 692 q 542 854 582 806 q 411 903 503 903 q 254 819 298 903 q 227 684 230 772 l 106 684 q 189 920 106 831 q 416 1009 271 1009 z "},"ɂ":{"ha":772,"x_min":106,"x_max":710,"o":"m 416 747 q 630 671 549 747 q 710 476 710 595 q 681 359 710 404 q 562 228 651 315 q 477 121 496 165 q 458 0 458 77 l 337 0 q 360 148 337 89 q 461 284 383 208 l 515 338 q 555 386 540 361 q 582 477 582 430 q 542 593 582 544 q 411 642 503 642 q 254 557 298 642 q 227 422 230 511 l 106 422 q 189 658 106 569 q 416 747 271 747 z "},"Ƀ":{"ha":1005,"x_min":33,"x_max":957,"o":"m 33 241 l 33 337 l 189 337 l 189 996 l 616 996 q 865 892 791 996 q 909 749 909 830 q 855 595 909 655 q 775 536 827 563 q 890 471 852 507 q 957 291 957 406 q 897 117 957 195 q 610 0 806 0 l 189 0 l 189 241 l 33 241 m 612 115 q 789 187 736 115 q 822 297 822 233 q 725 445 822 406 q 589 466 673 466 l 321 466 l 321 337 l 467 337 l 467 241 l 321 241 l 321 115 l 612 115 m 566 575 q 699 599 652 575 q 774 733 774 636 q 694 865 774 831 q 562 884 650 884 l 321 884 l 321 575 l 566 575 z "},"Ʉ":{"ha":1176,"x_min":31,"x_max":1143,"o":"m 31 512 l 31 608 l 200 608 l 200 996 l 337 996 l 337 608 l 848 608 l 848 996 l 985 996 l 985 608 l 1143 608 l 1143 512 l 985 512 l 985 437 q 935 154 985 253 q 592 -26 844 -26 q 250 154 340 -26 q 200 437 200 253 l 200 512 l 31 512 m 378 200 q 581 92 438 92 q 814 209 753 92 q 848 380 848 273 l 848 512 l 337 512 l 337 380 q 378 200 337 272 z "},"Ʌ":{"ha":926,"x_min":35,"x_max":905,"o":"m 35 0 l 398 996 l 541 996 l 905 0 l 753 0 l 471 848 l 184 0 l 35 0 z "},"Ɇ":{"ha":926,"x_min":119,"x_max":855,"o":"m 119 996 l 552 996 l 587 1139 l 690 1139 l 655 996 l 845 996 l 845 874 l 625 874 l 551 572 l 800 572 l 800 456 l 522 456 l 439 119 l 855 119 l 855 0 l 410 0 l 374 -142 l 271 -142 l 307 0 l 119 0 l 119 996 m 250 572 l 448 572 l 522 874 l 250 874 l 250 572 m 250 119 l 336 119 l 419 456 l 250 456 l 250 119 z "},"ɇ":{"ha":772,"x_min":49,"x_max":712,"o":"m 486 861 l 589 861 l 540 707 q 542 706 541 707 q 652 612 614 670 q 701 484 689 557 q 712 324 712 434 l 418 324 l 342 83 q 383 80 361 80 q 536 143 479 80 q 582 228 568 180 l 702 228 q 670 139 697 188 q 610 58 644 90 q 473 -15 555 4 q 373 -26 429 -26 q 309 -20 340 -26 l 273 -136 l 170 -136 l 217 14 q 143 73 177 37 q 49 349 49 172 q 144 633 49 524 q 392 743 239 743 q 446 738 419 743 l 486 861 m 385 636 q 243 575 300 636 q 183 421 186 515 l 346 421 l 414 635 q 385 636 399 636 m 232 146 q 252 124 241 134 l 315 324 l 180 324 q 232 146 183 214 m 587 421 q 552 548 579 500 q 506 600 534 580 l 449 421 l 587 421 z "},"Ɉ":{"ha":753,"x_min":24,"x_max":697,"o":"m 595 297 q 557 101 595 171 q 294 -26 488 -26 q 103 34 182 -26 q 24 250 24 95 l 24 321 l 151 321 l 151 250 q 187 128 151 169 q 300 87 223 87 q 441 161 408 87 q 461 332 461 206 l 461 627 l 353 627 l 353 723 l 461 723 l 461 996 l 595 996 l 595 723 l 697 723 l 697 627 l 595 627 l 595 297 z "},"ɉ":{"ha":309,"x_min":-26,"x_max":332,"o":"m 212 384 l 332 384 l 332 288 l 212 288 l 212 -108 q 186 -227 212 -187 q 24 -293 143 -293 q 5 -292 15 -293 q -26 -290 -5 -292 l -26 -184 q 73 -169 56 -181 q 90 -95 90 -157 l 90 288 l -12 288 l -12 384 l 90 384 l 90 723 l 212 723 l 212 384 m 212 855 l 90 855 l 90 996 l 212 996 l 212 855 z "},"Ɋ":{"ha":1194,"x_min":23,"x_max":1154,"o":"m 1154 -311 q 891 -184 960 -311 q 854 12 854 -114 l 854 98 q 515 -29 726 -29 q 136 144 269 -29 q 23 515 23 292 q 122 854 23 722 q 513 1023 249 1023 q 854 888 728 1023 l 854 996 l 987 996 l 987 47 q 1008 -124 987 -79 q 1149 -198 1041 -198 q 1151 -203 1150 -198 q 1152 -216 1152 -208 q 1153 -234 1152 -224 q 1154 -255 1154 -244 q 1154 -311 1154 -280 m 161 513 q 241 219 161 347 q 499 92 321 92 q 771 205 687 92 q 854 452 846 307 l 854 515 q 757 797 847 699 q 505 903 659 903 q 253 796 345 903 q 161 513 161 689 z "},"ɋ":{"ha":852,"x_min":22,"x_max":812,"o":"m 812 -290 q 781 -292 791 -292 q 762 -293 771 -293 q 600 -227 643 -293 q 574 -108 574 -187 l 574 39 q 372 -26 494 -26 q 107 88 193 -26 q 22 378 22 203 q 119 654 22 560 q 356 747 216 747 q 574 671 488 747 l 574 723 l 696 723 l 696 -95 q 713 -169 696 -157 q 812 -184 730 -181 l 812 -290 m 149 375 q 194 171 149 262 q 361 79 239 79 q 522 156 471 79 q 573 349 573 233 q 522 555 573 470 q 359 641 471 641 q 182 541 233 641 q 149 375 149 477 z "},"Ɍ":{"ha":1084,"x_min":32,"x_max":1035,"o":"m 32 427 l 32 540 l 208 540 l 208 996 l 669 996 q 857 963 783 996 q 997 728 997 899 q 960 581 997 638 q 857 490 923 524 q 944 427 915 466 q 977 302 974 389 l 982 168 q 991 83 984 111 q 1035 22 1004 36 l 1035 0 l 869 0 q 859 33 863 13 q 852 112 854 54 l 844 278 q 771 409 839 376 q 650 427 732 427 l 342 427 l 342 0 l 208 0 l 208 427 l 32 427 m 654 540 q 805 578 749 540 q 860 715 860 616 q 783 860 860 821 q 672 880 741 880 l 342 880 l 342 540 l 654 540 z "},"ɍ":{"ha":542,"x_min":18,"x_max":517,"o":"m 18 241 l 18 337 l 164 337 l 164 726 l 280 726 l 280 601 q 350 690 294 637 q 478 743 406 743 q 490 742 481 743 q 517 739 498 741 l 517 610 q 497 613 507 612 q 477 614 488 614 q 336 554 385 614 q 286 418 286 495 l 286 337 l 452 337 l 452 241 l 286 241 l 286 0 l 164 0 l 164 241 l 18 241 z "},"Ɏ":{"ha":1073,"x_min":17,"x_max":1055,"o":"m 17 715 l 17 812 l 216 812 l 99 996 l 256 996 l 366 812 l 718 812 l 829 996 l 987 996 l 870 812 l 1055 812 l 1055 715 l 809 715 l 610 401 l 610 0 l 475 0 l 475 401 l 277 715 l 17 715 m 543 517 l 661 715 l 424 715 l 543 517 z "},"ɏ":{"ha":852,"x_min":33,"x_max":840,"o":"m 33 444 l 33 541 l 168 541 l 101 726 l 239 726 l 300 541 l 568 541 l 630 726 l 765 726 q 698 541 747 677 l 840 541 l 840 444 l 663 444 q 650 408 657 427 q 539 102 584 220 q 390 -237 433 -176 q 241 -298 347 -298 q 201 -296 215 -298 q 167 -288 187 -294 l 167 -177 q 213 -188 199 -186 q 238 -190 227 -190 q 288 -179 272 -190 q 315 -151 304 -168 q 339 -96 318 -146 q 370 -21 360 -45 l 202 444 l 33 444 m 434 135 l 536 444 l 332 444 l 434 135 z "},"ɐ":{"ha":772,"x_min":55,"x_max":742,"o":"m 484 640 q 359 610 420 640 q 258 448 258 560 l 258 349 q 315 373 280 363 q 385 387 351 382 l 458 396 q 558 424 525 405 q 614 526 614 456 q 576 609 614 578 q 484 640 537 640 m 319 279 q 262 243 277 273 q 254 197 254 227 q 299 106 254 134 q 426 78 343 78 q 562 130 522 78 q 591 214 584 158 l 705 214 q 617 27 701 80 q 423 -25 534 -25 q 215 24 295 -25 q 136 176 136 73 l 136 594 q 128 625 136 613 q 95 636 120 636 q 77 635 87 636 q 55 632 66 634 l 55 722 q 98 732 83 730 q 139 734 113 734 q 231 690 202 734 q 252 623 245 666 q 359 707 289 671 q 513 743 429 743 q 678 682 614 743 q 742 528 742 621 q 679 372 742 427 q 513 303 616 316 l 319 279 z "},"ɑ":{"ha":815,"x_min":39,"x_max":782,"o":"m 597 104 q 496 13 557 46 q 354 -21 436 -21 q 124 87 210 -21 q 39 361 39 195 q 123 635 39 528 q 354 743 208 743 q 495 710 435 743 q 596 621 555 676 l 596 729 l 707 729 l 707 161 q 716 99 707 104 q 782 87 725 93 l 782 0 q 766 -5 775 -4 q 726 -7 757 -7 q 632 21 659 -7 q 597 104 606 49 m 371 639 q 215 571 273 639 q 157 361 157 504 q 215 152 157 220 q 371 83 273 83 q 526 151 468 83 q 585 361 585 218 q 526 571 585 503 q 371 639 468 639 z "},"ɒ":{"ha":815,"x_min":39,"x_max":782,"o":"m 223 617 q 324 709 264 675 q 467 743 385 743 q 696 635 611 743 q 782 361 782 527 q 697 86 782 194 q 467 -22 612 -22 q 326 12 386 -22 q 224 101 265 45 l 224 -7 l 114 -7 l 114 560 q 105 623 114 617 q 39 634 96 629 l 39 722 q 55 727 45 726 q 94 728 64 728 q 189 701 162 728 q 223 617 215 673 m 450 83 q 606 150 547 83 q 664 361 664 218 q 606 570 664 502 q 450 638 547 638 q 294 571 353 638 q 236 361 236 503 q 294 151 236 219 q 450 83 353 83 z "},"ɓ":{"ha":772,"x_min":77,"x_max":720,"o":"m 315 916 q 216 901 233 913 q 199 827 199 889 l 199 639 q 294 718 239 690 q 415 745 350 745 q 635 652 551 745 q 720 377 720 559 q 636 91 720 205 q 405 -23 553 -23 q 265 17 322 -23 q 193 93 231 41 l 193 0 l 80 0 l 80 531 l 77 531 l 77 840 q 103 958 77 919 q 265 1025 146 1025 q 284 1024 274 1025 q 315 1021 294 1023 l 315 916 m 595 371 q 546 561 595 486 q 401 636 496 636 q 255 574 317 636 q 192 371 192 513 q 218 205 192 269 q 397 85 266 85 q 546 163 496 85 q 595 371 595 242 z "},"ɔ":{"ha":694,"x_min":39,"x_max":661,"o":"m 39 243 l 158 243 q 208 132 169 176 q 332 87 246 87 q 498 201 448 87 q 531 384 531 275 q 485 568 531 493 q 340 642 439 642 q 219 596 264 642 q 158 469 175 549 l 39 469 q 141 680 60 613 q 349 747 222 747 q 576 643 492 747 q 661 382 661 538 q 568 85 661 191 q 332 -22 475 -22 q 132 38 209 -22 q 39 243 55 98 z "},"ɖ":{"ha":844,"x_min":38,"x_max":795,"o":"m 795 -290 q 764 -292 774 -292 q 745 -293 754 -293 q 583 -227 626 -293 q 557 -108 557 -187 l 557 80 q 471 4 519 29 q 337 -26 412 -26 q 127 76 216 -26 q 38 348 38 178 q 119 623 38 507 q 351 739 200 739 q 490 704 434 739 q 564 633 523 684 l 564 1000 l 682 1000 l 682 0 l 680 0 l 680 -95 q 696 -169 680 -157 q 795 -184 713 -181 l 795 -290 m 375 81 q 514 154 460 81 q 569 363 569 227 q 513 567 569 500 q 374 633 456 633 q 224 562 281 633 q 167 355 167 492 q 216 159 167 238 q 375 81 266 81 z "},"ɗ":{"ha":823,"x_min":38,"x_max":797,"o":"m 797 913 q 698 898 715 910 q 682 824 682 886 l 682 0 l 572 0 l 572 101 q 471 4 529 34 q 337 -26 412 -26 q 127 76 216 -26 q 38 348 38 178 q 119 623 38 507 q 351 739 200 739 q 490 704 434 739 q 559 638 521 684 l 559 837 q 585 956 559 916 q 747 1022 628 1022 q 766 1021 756 1022 q 797 1019 776 1021 l 797 913 m 375 81 q 514 154 460 81 q 569 363 569 227 q 513 567 569 500 q 374 633 456 633 q 224 562 281 633 q 167 355 167 492 q 216 159 167 238 q 375 81 266 81 z "},"ɘ":{"ha":772,"x_min":49,"x_max":712,"o":"m 109 612 q 219 706 146 670 q 369 743 292 743 q 617 633 522 743 q 712 349 712 524 q 618 73 712 172 q 388 -26 524 -26 q 288 -15 332 -26 q 151 58 206 4 q 91 139 117 90 q 59 228 64 188 l 179 228 q 225 143 193 180 q 378 80 282 80 q 529 147 480 80 q 581 324 578 214 l 49 324 q 60 484 49 434 q 109 612 72 557 m 578 421 q 517 575 574 515 q 376 636 460 636 q 209 548 259 636 q 174 421 182 500 l 578 421 z "},"ə":{"ha":772,"x_min":49,"x_max":712,"o":"m 109 104 q 60 232 72 159 q 49 392 49 282 l 581 392 q 529 569 578 503 q 378 636 480 636 q 225 573 282 636 q 179 488 193 536 l 59 488 q 91 577 64 528 q 151 658 117 627 q 288 731 206 712 q 388 742 332 742 q 618 643 524 742 q 712 367 712 545 q 617 83 712 192 q 369 -26 522 -26 q 219 10 292 -26 q 109 104 146 46 m 174 295 q 209 168 182 216 q 376 80 259 80 q 517 141 460 80 q 578 295 574 201 l 174 295 z "},"ɚ":{"ha":1145,"x_min":39,"x_max":1138,"o":"m 959 336 q 995 334 977 330 q 1028 349 1013 338 q 1055 374 1043 359 q 1076 406 1067 389 q 1092 392 1084 397 q 1107 382 1099 387 q 1122 372 1114 377 q 1138 358 1130 366 q 1078 283 1118 309 q 981 254 1038 258 q 912 261 942 250 q 863 295 883 272 q 832 352 842 318 q 822 426 822 385 q 764 410 793 420 q 719 395 742 402 q 688 153 741 260 q 477 -16 625 23 q 323 -20 402 -37 q 192 42 243 -4 q 111 153 142 85 q 60 305 88 199 l 574 443 q 477 601 542 549 q 314 626 413 652 q 183 526 222 601 q 160 432 161 481 l 44 401 q 52 495 39 441 q 89 588 65 549 q 203 694 129 655 q 296 731 243 716 q 544 694 427 766 q 700 475 652 629 q 750 490 725 482 q 910 538 832 514 q 916 476 918 508 q 914 415 914 444 q 922 366 914 387 q 959 336 930 345 m 205 243 q 272 130 233 169 q 456 88 343 58 q 577 183 538 110 q 595 348 616 257 l 205 243 z "}}}
